<?xml version="1.0" encoding="UTF-8" standalone="no"?>
<svg
   xmlns:dc="http://purl.org/dc/elements/1.1/"
   xmlns:cc="http://creativecommons.org/ns#"
   xmlns:rdf="http://www.w3.org/1999/02/22-rdf-syntax-ns#"
   xmlns:svg="http://www.w3.org/2000/svg"
   xmlns="http://www.w3.org/2000/svg"
   xmlns:sodipodi="http://sodipodi.sourceforge.net/DTD/sodipodi-0.dtd"
   xmlns:inkscape="http://www.inkscape.org/namespaces/inkscape"
   version="1.1"
   x="0px"
   y="0px"
   viewBox="0 0 75.846909 89.999474"
   enable-background="new 0 0 100 100"
   xml:space="preserve"
   id="root"
   inkscape:version="0.91 r13725"
   sodipodi:docname="apple.svg"
   width="75.846909"
   height="89.999474"><metadata
     id="metadata20"><rdf:RDF><cc:Work
         rdf:about=""><dc:format>image/svg+xml</dc:format><dc:type
           rdf:resource="http://purl.org/dc/dcmitype/StillImage" /><dc:title></dc:title></cc:Work></rdf:RDF></metadata><defs
     id="defs18" /><sodipodi:namedview
     pagecolor="#ffffff"
     bordercolor="#666666"
     borderopacity="1"
     objecttolerance="10"
     gridtolerance="10"
     guidetolerance="10"
     inkscape:pageopacity="0"
     inkscape:pageshadow="2"
     inkscape:window-width="748"
     inkscape:window-height="480"
     id="namedview16"
     showgrid="false"
     fit-margin-top="0"
     fit-margin-left="0"
     fit-margin-right="0"
     fit-margin-bottom="0"
     inkscape:zoom="1.888"
     inkscape:cx="37.923177"
     inkscape:cy="32.5"
     inkscape:window-x="75"
     inkscape:window-y="34"
     inkscape:window-maximized="0"
     inkscape:current-layer="root" /><g
     id="g4"
     transform="translate(-12.076823,-5.0005271)"><path
       d="m 57.413,18.586 c 1.662,-2.649 1.598,-6.027 1.315,-8.194 -2.964,0.713 -5.148,1.986 -6.507,3.802 -1.658,2.214 -1.66,4.651 -1.611,5.442 0.478,0.928 0.895,1.851 1.259,2.751 2.538,-0.719 4.406,-1.986 5.544,-3.801 z"
       id="path6"
       inkscape:connector-curvature="0"
       style="fill:none" /><path
       d="m 60.03,29.91 c -8.008,3.275 -16.512,0.858 -16.87,0.754 -0.124,-0.035 -0.245,-0.082 -0.361,-0.137 -6.465,-3.031 -11.082,-2.559 -11.125,-2.554 -0.121,0.016 -0.24,0.016 -0.363,0.02 -0.098,-0.002 -0.196,-0.004 -0.292,-0.004 -12.371,0 -13.68,16.447 -13.73,17.152 -2.038,19.128 10.921,38.151 15.871,42.926 3.737,3.604 7.105,1.136 7.742,0.605 2.587,-2.074 9.03,-4.778 15.303,-0.517 C 60.891,91.333 66.84,85.742 66.9,85.686 77.289,76.63 81.873,56.79 81.918,56.591 81.956,56.42 85.581,40.101 78.884,32.783 72.329,25.62 67.164,26.994 60.03,29.91 Z"
       id="path8"
       inkscape:connector-curvature="0"
       style="fill:none" /><path
       d="m 82.571,29.409 c -8.681,-9.485 -16.51,-7.366 -24.433,-4.125 -0.443,0.181 -0.89,0.333 -1.338,0.472 2.024,-1.115 3.654,-2.614 4.845,-4.513 C 65.537,15.042 63.189,7.104 63.087,6.769 62.732,5.601 61.587,4.877 60.37,5.018 54.834,5.746 50.746,7.825 48.22,11.198 47.56,12.08 47.068,12.981 46.694,13.863 44.863,11.785 42.608,9.882 39.802,8.399 39.124,7.954 38.099,7.612 36.968,7.816 c -0.902,0.165 -2.194,0.737 -3.23,2.533 -1.443,2.507 0.819,4.342 2.635,5.816 2.168,1.758 5.513,4.476 7.6,9.419 -6.651,-2.89 -11.63,-2.68 -12.71,-2.59 C 17.518,22.841 12.845,37.153 12.312,44.7 10.085,65.594 24.271,86.436 29.691,91.664 32.263,94.145 34.925,95 37.3,95 c 2.947,-0.001 5.45,-1.316 6.784,-2.476 0.043,-0.034 4.489,-3.514 9.314,-0.235 7.984,5.425 16.591,-2.643 16.869,-2.912 C 81.813,79.317 86.594,58.569 86.79,57.7 86.968,56.928 91.041,38.664 82.571,29.409 Z M 52.221,14.194 c 1.359,-1.816 3.543,-3.089 6.507,-3.802 0.284,2.167 0.348,5.545 -1.315,8.194 -1.138,1.814 -3.006,3.081 -5.543,3.801 -0.364,-0.901 -0.781,-1.823 -1.259,-2.751 -0.05,-0.791 -0.048,-3.228 1.61,-5.442 z M 81.918,56.591 C 81.873,56.79 77.289,76.63 66.9,85.686 66.84,85.742 60.892,91.334 56.205,88.155 49.932,83.894 43.489,86.598 40.902,88.672 40.264,89.203 36.896,91.671 33.16,88.067 28.209,83.292 15.251,64.269 17.289,45.141 c 0.05,-0.705 1.359,-17.152 13.73,-17.152 0.096,0 0.194,10e-4 0.292,0.004 0.123,-0.004 0.242,-0.004 0.363,-0.02 0.043,-0.005 4.66,-0.477 11.125,2.554 0.117,0.055 0.237,0.101 0.361,0.137 0.358,0.104 8.862,2.521 16.87,-0.754 7.134,-2.916 12.299,-4.29 18.854,2.873 6.697,7.319 3.072,23.637 3.034,23.808 z"
       id="path10"
       inkscape:connector-curvature="0" /></g></svg>