<?xml version="1.0" encoding="UTF-8" standalone="no"?>
<svg
   xmlns:dc="http://purl.org/dc/elements/1.1/"
   xmlns:cc="http://creativecommons.org/ns#"
   xmlns:rdf="http://www.w3.org/1999/02/22-rdf-syntax-ns#"
   xmlns:svg="http://www.w3.org/2000/svg"
   xmlns="http://www.w3.org/2000/svg"
   xmlns:sodipodi="http://sodipodi.sourceforge.net/DTD/sodipodi-0.dtd"
   xmlns:inkscape="http://www.inkscape.org/namespaces/inkscape"
   version="1.1"
   x="0px"
   y="0px"
   viewBox="0 0 59.283905 90.000092"
   enable-background="new 0 0 100 100"
   xml:space="preserve"
   id="root"
   inkscape:version="0.91 r13725"
   sodipodi:docname="avocado.svg"
   width="59.283905"
   height="90.000092"><metadata
     id="metadata22"><rdf:RDF><cc:Work
         rdf:about=""><dc:format>image/svg+xml</dc:format><dc:type
           rdf:resource="http://purl.org/dc/dcmitype/StillImage" /><dc:title></dc:title></cc:Work></rdf:RDF></metadata><defs
     id="defs20" /><sodipodi:namedview
     pagecolor="#ffffff"
     bordercolor="#666666"
     borderopacity="1"
     objecttolerance="10"
     gridtolerance="10"
     guidetolerance="10"
     inkscape:pageopacity="0"
     inkscape:pageshadow="2"
     inkscape:window-width="748"
     inkscape:window-height="480"
     id="namedview18"
     showgrid="false"
     fit-margin-top="0"
     fit-margin-left="0"
     fit-margin-right="0"
     fit-margin-bottom="0"
     inkscape:zoom="1.888"
     inkscape:cx="29.641848"
     inkscape:cy="32.500336"
     inkscape:window-x="75"
     inkscape:window-y="34"
     inkscape:window-maximized="0"
     inkscape:current-layer="root" /><g
     id="g4"
     transform="translate(-20.358152,-5.0002423)"><path
       d="M 70.151,34.226 C 69.209,26.83 68.538,21.568 63.685,16.552 61.2,13.986 58.27,12.423 55.438,12.157 c -0.669,-0.062 -1.33,-0.043 -1.963,0.059 -4.946,0.799 -8.67,6.657 -11.955,11.825 -0.607,0.954 -1.181,1.855 -1.741,2.696 -4.192,6.287 -7.079,11.661 -9.083,16.913 -4.24,11.11 -4.305,22.341 -0.177,30.81 4.636,9.515 15.296,15.216 24.257,12.947 7.869,-1.976 14.411,-9.716 16.667,-19.718 2.166,-9.601 0.672,-19.772 -0.773,-29.607 -0.193,-1.313 -0.358,-2.599 -0.519,-3.856 z m -3.682,21.591 c -1.064,6.618 -3.498,11.688 -7.235,15.071 l -0.001,0 c -2.257,2.041 -5.051,3.322 -7.874,3.778 -3.171,0.512 -6.379,-0.016 -8.904,-1.675 -2.787,-1.836 -4.893,-5.005 -6.091,-9.166 -0.294,-1.017 -0.524,-2.061 -0.684,-3.1 -1.342,-8.505 1.526,-17.473 7.672,-23.982 2.866,-3.028 6.342,-4.723 9.796,-4.765 3.119,-0.04 6.038,1.214 8.44,3.628 1.263,1.262 2.361,2.834 3.261,4.67 2.059,4.2 2.604,9.429 1.62,15.541 z"
       id="path6"
       inkscape:connector-curvature="0"
       style="fill:none" /><path
       d="m 59.026,38.162 c -1.699,-1.706 -3.714,-2.592 -5.832,-2.566 -0.382,0.006 -0.764,0.039 -1.144,0.1 -2.112,0.341 -4.189,1.547 -6.067,3.532 -5.301,5.614 -7.879,13.638 -6.726,20.941 0.137,0.893 0.333,1.784 0.585,2.654 0.667,2.317 2.007,5.435 4.603,7.145 3.916,2.574 9.292,1.012 12.361,-1.763 3.112,-2.816 5.161,-7.177 6.091,-12.963 0.863,-5.359 0.426,-9.858 -1.296,-13.373 -0.725,-1.477 -1.591,-2.723 -2.575,-3.707 z"
       id="path8"
       inkscape:connector-curvature="0"
       style="fill:none" /><path
       d="M 77.715,37.047 C 77.522,35.74 77.36,34.464 77.201,33.214 76.267,25.889 75.301,18.316 68.802,11.601 65.136,7.814 60.628,5.494 56.108,5.068 45.764,4.096 39.594,13.799 35.512,20.222 l -0.115,0.181 c -0.529,0.83 -1.041,1.635 -1.542,2.386 -4.494,6.737 -7.612,12.559 -9.812,18.322 -4.939,12.944 -4.912,26.235 0.075,36.469 5.678,11.653 18.788,19.016 30.494,17.125 0.631,-0.102 1.269,-0.234 1.899,-0.392 C 66.961,91.69 75.548,81.854 78.389,69.257 80.845,58.366 79.182,47.041 77.715,37.047 Z M 71.442,67.689 C 69.186,77.691 62.644,85.431 54.775,87.407 45.814,89.677 35.155,83.975 30.518,74.46 26.39,65.99 26.455,54.76 30.695,43.65 32.7,38.398 35.586,33.024 39.778,26.737 c 0.56,-0.841 1.134,-1.743 1.741,-2.696 3.285,-5.169 7.009,-11.026 11.955,-11.825 0.633,-0.102 1.294,-0.122 1.963,-0.059 2.832,0.267 5.762,1.829 8.247,4.395 4.853,5.015 5.523,10.278 6.466,17.674 0.161,1.257 0.326,2.543 0.519,3.856 1.445,9.836 2.939,20.006 0.773,29.607 z"
       id="path10"
       inkscape:connector-curvature="0" /><path
       d="m 61.588,35.606 c -2.402,-2.414 -5.321,-3.668 -8.44,-3.628 -3.454,0.041 -6.931,1.736 -9.796,4.765 -6.146,6.509 -9.013,15.478 -7.672,23.982 0.16,1.04 0.39,2.084 0.684,3.1 1.198,4.161 3.304,7.33 6.091,9.166 2.525,1.659 5.732,2.187 8.904,1.675 2.823,-0.456 5.617,-1.737 7.874,-3.778 l 0.001,0 c 3.737,-3.383 6.171,-8.453 7.235,-15.071 0.984,-6.112 0.439,-11.341 -1.619,-15.541 -0.901,-1.836 -1.999,-3.408 -3.262,-4.67 z m 1.308,19.636 c -0.93,5.786 -2.979,10.146 -6.091,12.963 -3.069,2.775 -8.445,4.336 -12.361,1.763 -2.596,-1.709 -3.936,-4.828 -4.603,-7.145 -0.251,-0.87 -0.448,-1.76 -0.585,-2.654 -1.152,-7.302 1.425,-15.327 6.726,-20.941 1.878,-1.986 3.956,-3.191 6.067,-3.532 0.38,-0.062 0.763,-0.095 1.144,-0.1 2.119,-0.026 4.134,0.86 5.832,2.566 0.984,0.984 1.85,2.231 2.574,3.707 1.724,3.514 2.16,8.014 1.297,13.373 z"
       id="path12"
       inkscape:connector-curvature="0" /></g></svg>