<?xml version="1.0" encoding="UTF-8" standalone="no"?>
<svg
   xmlns:dc="http://purl.org/dc/elements/1.1/"
   xmlns:cc="http://creativecommons.org/ns#"
   xmlns:rdf="http://www.w3.org/1999/02/22-rdf-syntax-ns#"
   xmlns:svg="http://www.w3.org/2000/svg"
   xmlns="http://www.w3.org/2000/svg"
   xmlns:sodipodi="http://sodipodi.sourceforge.net/DTD/sodipodi-0.dtd"
   xmlns:inkscape="http://www.inkscape.org/namespaces/inkscape"
   version="1.1"
   x="0px"
   y="0px"
   viewBox="0 0 90.001396 55.256508"
   enable-background="new 0 0 100 100"
   xml:space="preserve"
   id="root"
   inkscape:version="0.91 r13725"
   sodipodi:docname="banana.svg"
   width="90.001396"
   height="55.256508"><metadata
     id="metadata3997"><rdf:RDF><cc:Work
         rdf:about=""><dc:format>image/svg+xml</dc:format><dc:type
           rdf:resource="http://purl.org/dc/dcmitype/StillImage" /><dc:title></dc:title></cc:Work></rdf:RDF></metadata><defs
     id="defs3995" /><sodipodi:namedview
     pagecolor="#ffffff"
     bordercolor="#666666"
     borderopacity="1"
     objecttolerance="10"
     gridtolerance="10"
     guidetolerance="10"
     inkscape:pageopacity="0"
     inkscape:pageshadow="2"
     inkscape:window-width="2495"
     inkscape:window-height="1056"
     id="namedview3993"
     showgrid="false"
     inkscape:zoom="1.888"
     inkscape:cx="40.00234"
     inkscape:cy="-32.242"
     inkscape:window-x="65"
     inkscape:window-y="24"
     inkscape:window-maximized="1"
     inkscape:current-layer="root"
     fit-margin-top="0"
     fit-margin-left="0"
     fit-margin-right="0"
     fit-margin-bottom="0" /><g
     id="g3983"
     transform="translate(-4.9988305,-22.372491)"><path
       d="M 89.949,41.512 C 89.337,41.467 88.758,41.397 88.317,41.336 L 83.28,43.808 69.668,50.284 C 42.092,62.45 28.295,49.614 21.664,43.447 20.879,42.717 20.2,42.087 19.638,41.626 13.77,36.835 13.313,30.192 13.283,28.801 c -0.24,-1.47 -0.612,-1.618 -2.034,-1.517 -0.164,0.173 -0.353,0.597 -0.484,1.023 1.548,3.632 0.872,9.179 0.707,10.341 -0.021,0.148 -0.056,0.294 -0.103,0.435 -2.286,6.81 -1.224,11.188 -1.213,11.231 2.237,8.364 10.815,14.408 10.901,14.469 14.146,10.477 38.203,10.704 53.686,0.55 15.529,-10.185 15.354,-21.118 15.35,-21.227 -0.001,-0.049 -0.002,-0.1 0,-0.15 0.022,-0.816 -0.041,-1.78 -0.144,-2.444 z"
       id="path3985"
       inkscape:connector-curvature="0"
       style="fill:none" /><path
       d="m 93.462,37.629 c -0.608,-0.623 -1.407,-0.966 -2.25,-0.966 -0.015,-10e-4 -0.031,-10e-4 -0.045,0 -1.226,0 -2.797,-0.274 -2.812,-0.278 -0.512,-0.091 -1.041,-0.016 -1.507,0.214 l -5.701,2.799 -13.521,6.433 C 43.068,56.665 31.315,45.731 25,39.86 c -0.847,-0.788 -1.579,-1.468 -2.264,-2.027 -4.532,-3.701 -4.559,-8.932 -4.557,-9.191 0.002,-0.134 -0.007,-0.267 -0.026,-0.398 -0.428,-2.885 -2.043,-6.255 -7.38,-5.836 -3.377,0.255 -4.742,3.831 -5.016,5.905 -0.074,0.559 0.048,1.127 0.344,1.606 0.9,1.459 0.864,5.376 0.547,7.83 -2.696,8.201 -1.289,13.6 -1.23,13.82 2.7,10.087 12.428,16.949 12.782,17.194 7.967,5.901 18.792,8.867 29.752,8.866 10.502,0 21.131,-2.725 29.477,-8.2 C 94.647,58.136 95.003,45.374 94.992,44.042 95.05,41.878 94.828,39.03 93.462,37.629 Z M 74.743,65.333 C 59.26,75.487 35.204,75.26 21.057,64.783 20.97,64.722 12.393,58.678 10.156,50.314 10.145,50.271 9.082,45.893 11.369,39.083 c 0.047,-0.141 0.082,-0.287 0.103,-0.435 0.165,-1.161 0.841,-6.709 -0.707,-10.341 0.131,-0.426 0.319,-0.849 0.484,-1.023 1.422,-0.102 1.794,0.047 2.034,1.517 0.03,1.391 0.487,8.035 6.355,12.825 0.563,0.461 1.241,1.091 2.026,1.821 6.63,6.167 20.428,19.003 48.004,6.837 l 13.612,-6.476 5.037,-2.472 c 0.441,0.061 1.02,0.13 1.632,0.176 0.103,0.664 0.166,1.628 0.144,2.445 -0.002,0.049 -0.001,0.1 0,0.15 0.003,0.108 0.178,11.041 -15.35,21.226 z"
       id="path3987"
       inkscape:connector-curvature="0" /></g></svg>