<?xml version="1.0" encoding="UTF-8" standalone="no"?>
<svg
   xmlns:dc="http://purl.org/dc/elements/1.1/"
   xmlns:cc="http://creativecommons.org/ns#"
   xmlns:rdf="http://www.w3.org/1999/02/22-rdf-syntax-ns#"
   xmlns:svg="http://www.w3.org/2000/svg"
   xmlns="http://www.w3.org/2000/svg"
   xmlns:sodipodi="http://sodipodi.sourceforge.net/DTD/sodipodi-0.dtd"
   xmlns:inkscape="http://www.inkscape.org/namespaces/inkscape"
   version="1.1"
   x="0px"
   y="0px"
   viewBox="0 0 61.258735 89.998298"
   enable-background="new 0 0 100 100"
   xml:space="preserve"
   id="root"
   inkscape:version="0.91 r13725"
   sodipodi:docname="bell-pepper.svg"
   width="61.258736"
   height="89.998299"><metadata
     id="metadata26"><rdf:RDF><cc:Work
         rdf:about=""><dc:format>image/svg+xml</dc:format><dc:type
           rdf:resource="http://purl.org/dc/dcmitype/StillImage" /><dc:title></dc:title></cc:Work></rdf:RDF></metadata><defs
     id="defs24" /><sodipodi:namedview
     pagecolor="#ffffff"
     bordercolor="#666666"
     borderopacity="1"
     objecttolerance="10"
     gridtolerance="10"
     guidetolerance="10"
     inkscape:pageopacity="0"
     inkscape:pageshadow="2"
     inkscape:window-width="748"
     inkscape:window-height="480"
     id="namedview22"
     showgrid="false"
     fit-margin-top="0"
     fit-margin-left="0"
     fit-margin-right="0"
     fit-margin-bottom="0"
     inkscape:zoom="1.888"
     inkscape:cx="30.630648"
     inkscape:cy="32.49742"
     inkscape:window-x="65"
     inkscape:window-y="24"
     inkscape:window-maximized="0"
     inkscape:current-layer="root" /><g
     id="g4"
     transform="translate(-19.369352,-4.9991215)"><path
       d="m 49.465,20.767 c -0.287,1.301 -0.975,2.23 -1.735,3.007 0.507,-0.017 1.014,-0.002 1.52,0.036 -0.033,-0.341 0.021,-0.688 0.178,-1 0.126,-0.25 0.243,-0.513 0.348,-0.776 0.964,-2.368 1.059,-5.098 0.267,-7.502 -0.751,-2.277 -2.65,-4.368 -5.25,-5.802 -0.825,0.16 -1.639,0.516 -2.4,1.036 -1.076,0.745 -1.955,1.769 -2.523,2.891 2.896,0.188 6.191,1.27 8.109,3.261 1.34,1.391 1.868,3.114 1.486,4.849 z"
       id="path6"
       inkscape:connector-curvature="0"
       style="fill:none" /><path
       d="M 35.825,78.926 C 35.634,78.53 35.446,78.116 35.269,77.7 31.639,69.313 30.138,60.072 30.931,50.986 c 0.657,-7.554 2.148,-17.01 7.881,-23.132 l 0.099,-0.104 c 0.018,-0.02 0.038,-0.04 0.056,-0.06 -0.104,-0.131 -0.211,-0.249 -0.319,-0.361 -0.051,-0.045 -0.099,-0.092 -0.145,-0.142 -1.067,-0.998 -2.401,-1.099 -4.944,-0.094 -4.434,1.748 -7.406,6.315 -9.088,13.964 -2.807,12.702 -1.473,26.257 3.755,38.17 0.487,1.1 0.973,2.029 1.481,2.835 1.501,2.394 3.167,3.69 4.955,3.856 1.497,0.14 3.143,-0.558 4.478,-1.86 -0.137,-0.152 -0.274,-0.302 -0.407,-0.463 -1.079,-1.273 -2.034,-2.806 -2.908,-4.669 z"
       id="path8"
       inkscape:connector-curvature="0"
       style="fill:none" /><path
       d="m 50.432,88.617 c 0.46,1.238 1.005,2.375 1.779,2.658 0.908,0.334 2.169,-0.768 2.651,-1.936 0.239,-0.581 0.335,-1.285 0.298,-2.04 -0.963,0.462 -1.968,0.818 -2.988,1.052 -0.578,0.133 -1.159,0.212 -1.74,0.266 z"
       id="path10"
       inkscape:connector-curvature="0"
       style="fill:none" /><path
       d="m 63.599,59.266 c 0.136,-2.633 0.083,-5.274 -0.159,-7.85 -0.694,-7.359 -2.082,-15.559 -7.114,-20.567 l -0.143,-0.15 c -0.052,-0.055 -0.105,-0.112 -0.161,-0.166 -2.537,-2.393 -6.424,-3.682 -9.943,-2.872 -1.585,0.365 -3.096,1.156 -4.373,2.463 l -0.078,0.083 c -0.059,0.066 -0.119,0.131 -0.183,0.194 -4.924,5.26 -6.258,13.936 -6.865,20.903 -0.74,8.481 0.662,17.109 4.055,24.951 0.159,0.373 0.324,0.736 0.499,1.098 0.753,1.605 1.516,2.836 2.408,3.892 0.323,0.388 0.642,0.73 0.961,1.03 1.891,1.757 4.485,2.785 6.937,2.745 2.652,-0.045 5.41,-1.306 7.372,-3.372 0.567,-0.599 1.074,-1.261 1.55,-2.021 0.806,-1.279 1.475,-2.749 2.173,-4.77 1.768,-5.061 2.798,-10.304 3.063,-15.59 0,10e-4 0,0 10e-4,-0.001 z"
       id="path12"
       inkscape:connector-curvature="0"
       style="fill:none" /><path
       d="m 74.069,37.475 c -2.126,-6.384 -5.171,-10.144 -9.315,-11.502 -3.231,-1.068 -4.777,-0.64 -6.133,1.985 0.078,0.077 0.156,0.155 0.229,0.233 l 0.085,0.09 c 5.834,5.803 7.396,14.781 8.151,22.793 0.258,2.752 0.315,5.571 0.17,8.38 -0.282,5.635 -1.38,11.223 -3.26,16.607 -0.532,1.54 -1.303,3.567 -2.532,5.517 -0.076,0.121 -0.161,0.226 -0.238,0.344 0.144,0.171 0.317,0.339 0.614,0.622 l 0.364,0.349 c 1.473,1.411 3.302,2.112 4.892,1.869 2.404,-0.38 4.438,-2.741 6.031,-7.052 4.527,-12.197 5.07,-25.809 1.528,-38.33 -0.178,-0.628 -0.37,-1.271 -0.586,-1.905 z"
       id="path14"
       inkscape:connector-curvature="0"
       style="fill:none" /><path
       d="M 78.179,38.382 C 77.985,37.693 77.773,36.988 77.54,36.304 75.061,28.86 71.144,24.212 65.899,22.492 60.727,20.785 57.934,22.432 56.213,24.874 55.432,24.028 54.5,23.302 53.432,22.71 c 1.034,-2.984 1.072,-6.342 0.087,-9.328 -1.1,-3.336 -3.863,-6.32 -7.58,-8.188 -0.31,-0.156 -0.658,-0.22 -1.004,-0.186 -1.593,0.157 -3.189,0.759 -4.622,1.738 -2.624,1.816 -4.4,4.667 -4.751,7.626 -0.068,0.576 0.141,1.151 0.564,1.55 0.423,0.398 1.01,0.571 1.582,0.468 2.513,-0.455 6.15,0.53 7.63,2.067 0.637,0.661 0.628,1.16 0.548,1.52 -0.151,0.686 -0.686,1.19 -1.617,2.02 -0.314,0.281 -0.635,0.568 -0.951,0.879 -0.714,0.702 -1.645,1.076 -2.855,1.192 -2.131,-1.672 -4.754,-1.763 -8.25,-0.382 -5.654,2.228 -9.358,7.653 -11.322,16.584 -2.973,13.453 -1.56,27.811 3.98,40.434 0.563,1.272 1.131,2.357 1.734,3.31 2.135,3.406 4.731,5.275 7.718,5.552 0.85,0.078 1.716,0.011 2.572,-0.185 1.824,-0.42 3.592,-1.441 5.037,-2.935 1.394,0.904 2.93,1.546 4.519,1.903 0.038,0.11 0.076,0.21 0.114,0.321 0.773,2.261 1.734,5.074 4.385,6.043 0.905,0.331 1.817,0.358 2.682,0.159 2.036,-0.469 3.81,-2.188 4.614,-4.139 0.676,-1.64 0.756,-3.646 0.264,-5.656 0.119,-0.105 0.237,-0.211 0.353,-0.319 0.134,0.134 0.277,0.273 0.447,0.435 l 0.352,0.338 c 2.293,2.198 5.277,3.264 7.985,2.85 0.204,-0.031 0.405,-0.07 0.605,-0.115 3.537,-0.814 6.331,-3.935 8.308,-9.285 4.797,-12.916 5.371,-27.335 1.619,-40.599 z M 39.869,12.656 c 0.568,-1.123 1.447,-2.146 2.523,-2.891 0.761,-0.52 1.575,-0.876 2.4,-1.036 2.6,1.434 4.5,3.525 5.25,5.802 0.793,2.404 0.698,5.134 -0.267,7.502 -0.105,0.263 -0.222,0.526 -0.348,0.776 -0.157,0.312 -0.211,0.659 -0.178,1 -0.506,-0.037 -1.013,-0.053 -1.52,-0.036 0.76,-0.776 1.448,-1.706 1.735,-3.007 0.383,-1.734 -0.146,-3.458 -1.487,-4.849 -1.917,-1.991 -5.212,-3.072 -8.108,-3.261 z M 34.662,85.92 c -1.788,-0.166 -3.454,-1.462 -4.955,-3.856 -0.509,-0.806 -0.994,-1.735 -1.481,-2.835 -5.228,-11.913 -6.562,-25.468 -3.755,-38.17 1.682,-7.649 4.654,-12.217 9.088,-13.964 2.544,-1.005 3.878,-0.905 4.944,0.094 0.046,0.05 0.094,0.097 0.145,0.142 0.108,0.112 0.214,0.23 0.319,0.361 -0.018,0.02 -0.038,0.04 -0.056,0.06 l -0.099,0.104 c -5.733,6.122 -7.223,15.578 -7.881,23.132 -0.793,9.085 0.708,18.326 4.338,26.714 0.176,0.416 0.364,0.829 0.556,1.226 0.874,1.863 1.83,3.396 2.909,4.671 0.133,0.161 0.27,0.31 0.407,0.463 -1.336,1.3 -2.982,1.998 -4.479,1.858 z m 20.199,3.419 c -0.482,1.168 -1.742,2.27 -2.651,1.936 -0.774,-0.283 -1.319,-1.42 -1.779,-2.658 0.581,-0.054 1.162,-0.133 1.739,-0.266 1.021,-0.235 2.026,-0.59 2.988,-1.052 0.038,0.755 -0.057,1.46 -0.297,2.04 z m 3.501,-9.71 c -0.476,0.759 -0.983,1.421 -1.55,2.021 -1.962,2.066 -4.72,3.327 -7.372,3.372 -2.451,0.04 -5.045,-0.988 -6.937,-2.745 -0.32,-0.3 -0.639,-0.641 -0.961,-1.03 C 40.649,80.191 39.887,78.96 39.134,77.355 38.96,76.992 38.795,76.63 38.635,76.257 35.241,68.415 33.839,59.787 34.58,51.306 c 0.607,-6.967 1.941,-15.643 6.865,-20.903 0.063,-0.063 0.124,-0.129 0.183,-0.194 l 0.078,-0.083 c 1.278,-1.307 2.788,-2.098 4.373,-2.463 3.518,-0.81 7.406,0.479 9.943,2.872 0.056,0.054 0.109,0.111 0.161,0.166 l 0.143,0.15 c 5.033,5.008 6.421,13.208 7.114,20.567 0.242,2.577 0.295,5.217 0.159,7.85 -10e-4,10e-4 0,0.002 0,0.003 -0.266,5.286 -1.295,10.529 -3.063,15.59 -0.698,2.019 -1.368,3.488 -2.174,4.768 z M 73.127,77.71 c -1.593,4.311 -3.627,6.672 -6.031,7.052 -1.59,0.242 -3.419,-0.458 -4.892,-1.869 L 61.84,82.544 c -0.297,-0.283 -0.47,-0.451 -0.614,-0.622 0.078,-0.118 0.163,-0.223 0.238,-0.344 1.23,-1.95 2,-3.977 2.532,-5.517 1.881,-5.384 2.978,-10.972 3.26,-16.607 0.146,-2.809 0.089,-5.628 -0.17,-8.38 -0.755,-8.012 -2.317,-16.99 -8.151,-22.793 l -0.085,-0.09 c -0.073,-0.078 -0.151,-0.156 -0.229,-0.233 1.356,-2.625 2.902,-3.052 6.133,-1.985 4.143,1.359 7.189,5.118 9.315,11.502 0.216,0.634 0.408,1.277 0.585,1.905 3.543,12.521 3,26.133 -1.527,38.33 z"
       id="path16"
       inkscape:connector-curvature="0" /></g></svg>