<?xml version="1.0" encoding="UTF-8" standalone="no"?>
<svg
   xmlns:dc="http://purl.org/dc/elements/1.1/"
   xmlns:cc="http://creativecommons.org/ns#"
   xmlns:rdf="http://www.w3.org/1999/02/22-rdf-syntax-ns#"
   xmlns:svg="http://www.w3.org/2000/svg"
   xmlns="http://www.w3.org/2000/svg"
   xmlns:sodipodi="http://sodipodi.sourceforge.net/DTD/sodipodi-0.dtd"
   xmlns:inkscape="http://www.inkscape.org/namespaces/inkscape"
   version="1.1"
   x="0px"
   y="0px"
   viewBox="0 0 61.800648 90.000824"
   enable-background="new 0 0 100 100"
   xml:space="preserve"
   id="root"
   inkscape:version="0.91 r13725"
   sodipodi:docname="broccoli.svg"
   width="61.800648"
   height="90.000824"><metadata
     id="metadata22"><rdf:RDF><cc:Work
         rdf:about=""><dc:format>image/svg+xml</dc:format><dc:type
           rdf:resource="http://purl.org/dc/dcmitype/StillImage" /><dc:title></dc:title></cc:Work></rdf:RDF></metadata><defs
     id="defs20" /><sodipodi:namedview
     pagecolor="#ffffff"
     bordercolor="#666666"
     borderopacity="1"
     objecttolerance="10"
     gridtolerance="10"
     guidetolerance="10"
     inkscape:pageopacity="0"
     inkscape:pageshadow="2"
     inkscape:window-width="748"
     inkscape:window-height="480"
     id="namedview18"
     showgrid="false"
     fit-margin-top="0"
     fit-margin-left="0"
     fit-margin-right="0"
     fit-margin-bottom="0"
     inkscape:zoom="1.888"
     inkscape:cx="30.900838"
     inkscape:cy="32.499835"
     inkscape:window-x="75"
     inkscape:window-y="34"
     inkscape:window-maximized="0"
     inkscape:current-layer="root" /><g
     id="g4"
     transform="translate(-19.099162,-4.9990139)"><path
       d="m 53.355,58.48 c -1.898,-0.883 -2.479,-3.177 -2.071,-4.986 0.197,-0.882 0.487,-1.754 0.839,-2.541 -0.144,-0.013 -0.289,-0.027 -0.435,-0.04 -0.38,-0.035 -0.766,-0.069 -1.157,-0.109 -0.116,1.214 -0.314,2.486 -0.783,3.693 -0.19,0.483 -0.423,0.932 -0.686,1.348 -0.006,0.011 -0.009,0.022 -0.015,0.033 -0.005,0.008 -0.012,0.014 -0.017,0.023 -0.86,1.334 -2.065,2.279 -3.402,2.624 -3.036,0.773 -5.826,-1.484 -6.934,-4.019 -0.179,-0.41 -0.371,-0.817 -0.563,-1.223 -0.417,-0.885 -0.843,-1.79 -1.158,-2.748 -0.286,0.426 -0.607,0.863 -1.01,1.262 l 2.575,7.975 c 3.437,10.653 3.172,22.48 2.385,32.01 1.03,-0.271 2.089,-0.495 3.127,-0.715 l 0.095,-0.02 c 1.392,-0.292 2.822,-0.591 4.114,-0.99 1.104,-11.108 3.893,-21.88 8.168,-31.659 -0.036,0.018 -0.071,0.036 -0.107,0.052 -0.991,0.464 -2.015,0.474 -2.965,0.03 z"
       id="path6"
       inkscape:connector-curvature="0"
       style="fill:none" /><path
       d="m 44.951,55.919 c 0.301,-0.078 0.594,-0.234 0.873,-0.443 -0.945,-0.645 -1.846,-1.372 -2.438,-2.114 -0.577,0.266 -1.206,0.504 -1.871,0.715 0.787,1.222 2.16,2.187 3.436,1.842 z"
       id="path8"
       inkscape:connector-curvature="0"
       style="fill:none" /><path
       d="m 69.615,25.34 c -0.502,-0.03 -0.946,-0.337 -1.151,-0.796 -0.205,-0.459 -0.136,-0.995 0.178,-1.387 2.036,-2.549 2.105,-6.808 0.159,-9.907 C 67.008,10.399 63.76,8.429 59.889,7.847 59.228,7.748 58.577,7.696 57.954,7.693 55.171,7.662 52.747,8.51 51.122,10.082 c -1.81,1.751 -2.843,3.85 -2.695,5.478 0.057,0.634 -0.338,1.223 -0.947,1.409 -0.603,0.186 -1.265,-0.08 -1.573,-0.638 -1.502,-2.729 -3.856,-4.656 -6.459,-5.288 -3.492,-0.846 -7.373,0.932 -8.834,4.048 -1.445,3.089 -0.662,6.851 1.711,8.214 0.612,0.352 0.848,1.116 0.542,1.752 -0.308,0.636 -1.053,0.924 -1.709,0.666 -2.436,-0.968 -5.428,-0.341 -7.279,1.522 -2.079,2.09 -2.694,5.697 -1.433,8.39 1.245,2.66 4.3,4.348 7.107,3.926 0.722,-0.109 1.399,0.378 1.526,1.098 0.126,0.719 -0.344,1.408 -1.06,1.553 -1.474,0.297 -3.022,1.93 -3.524,3.719 -0.203,0.72 -0.217,1.4 -0.043,1.969 0.984,3.216 4.383,4.149 6.841,4.394 l -0.176,-0.546 c -0.189,-0.584 0.042,-1.222 0.56,-1.551 0.517,-0.327 0.883,-0.887 1.306,-1.535 0.521,-0.797 1.11,-1.701 2.123,-2.34 0.421,-0.265 0.956,-0.277 1.389,-0.028 0.432,0.249 0.692,0.715 0.675,1.214 -0.013,0.382 0.017,0.759 0.092,1.154 0.179,0.985 0.597,1.956 1.065,2.962 1.255,-0.369 2.362,-0.848 3.175,-1.394 10e-4,-10e-4 10e-4,-10e-4 10e-4,-10e-4 0.62,-0.416 1.454,-0.251 1.869,0.366 0.241,0.358 0.286,0.789 0.162,1.169 0.335,0.372 1.014,0.924 1.793,1.468 0.419,-1.237 0.532,-2.647 0.628,-4.021 0.026,-0.371 0.206,-0.717 0.495,-0.952 0.29,-0.233 0.664,-0.339 1.034,-0.287 0.815,0.114 1.607,0.186 2.446,0.262 0.833,0.076 1.695,0.154 2.574,0.277 0.477,0.066 0.882,0.383 1.062,0.83 0.18,0.447 0.107,0.956 -0.19,1.334 -0.608,0.774 -1.17,2.08 -1.466,3.408 -0.064,0.286 -0.07,0.583 -0.032,0.859 0.851,-0.024 1.7,-0.094 2.525,-0.172 0.234,-0.384 0.427,-0.813 0.542,-1.247 0.122,-0.462 0.22,-0.942 0.318,-1.422 0.297,-1.451 0.605,-2.95 1.503,-4.206 0.243,-0.339 0.516,-0.642 0.812,-0.902 0.27,-0.236 0.622,-0.355 0.979,-0.332 0.451,0.032 0.736,-0.036 1.128,-0.13 0.48,-0.113 1.076,-0.254 1.935,-0.197 0.47,0.032 0.889,0.307 1.106,0.726 0.216,0.419 0.197,0.92 -0.049,1.322 -0.546,0.889 -1.076,1.786 -1.592,2.698 -0.494,0.873 -0.971,1.76 -1.438,2.654 0.56,-0.229 1.07,-0.489 1.511,-0.802 1.94,-1.369 3.705,-3.921 3.171,-5.292 -0.169,-0.431 -0.104,-0.919 0.172,-1.29 0.275,-0.372 0.723,-0.578 1.184,-0.541 2.339,0.176 4.832,-0.719 6.838,-2.459 2.153,-1.866 3.487,-4.443 3.662,-7.07 0.19,-2.817 -0.822,-5.777 -2.707,-7.915 -1.604,-1.823 -3.686,-2.896 -5.863,-3.025 z"
       id="path10"
       inkscape:connector-curvature="0"
       style="fill:none" /><path
       d="M 77.498,26.582 C 75.931,24.802 73.988,23.572 71.887,23 73.481,19.632 73.23,15.239 71.081,11.817 68.87,8.302 64.937,5.884 60.291,5.184 59.501,5.065 58.719,5.003 57.975,5 54.489,4.961 51.39,6.08 49.251,8.147 c -1.324,1.28 -2.316,2.718 -2.905,4.16 -1.733,-1.944 -3.91,-3.31 -6.263,-3.881 -4.769,-1.154 -9.886,1.219 -11.906,5.522 -1.352,2.89 -1.263,6.157 -0.013,8.639 -2.297,0.129 -4.537,1.09 -6.194,2.761 -2.881,2.897 -3.706,7.703 -1.961,11.428 1.139,2.434 3.296,4.254 5.763,5.069 -0.852,0.949 -1.52,2.112 -1.868,3.356 -0.343,1.217 -0.352,2.424 -0.026,3.486 1.191,3.893 4.926,6.182 10.305,6.364 l 1.791,5.547 c 3.532,10.944 2.973,23.349 2.092,32.933 -0.042,0.459 0.153,0.907 0.518,1.189 0.303,0.233 0.688,0.325 1.058,0.259 0.075,-0.013 0.15,-0.033 0.223,-0.06 1.427,-0.518 3.036,-0.859 4.74,-1.219 l 0.093,-0.02 c 1.775,-0.372 3.61,-0.757 5.274,-1.359 0.491,-0.178 0.835,-0.624 0.882,-1.144 1.102,-12.088 4.255,-23.774 9.176,-34.188 1.919,-0.383 3.432,-0.976 4.682,-1.862 1.829,-1.29 4.224,-3.976 4.396,-6.641 2.535,-0.199 5.081,-1.288 7.177,-3.105 2.691,-2.333 4.362,-5.586 4.585,-8.923 0.241,-3.57 -0.988,-7.17 -3.372,-9.876 z m -29.24,63.474 c -1.292,0.399 -2.721,0.698 -4.114,0.99 l -0.095,0.02 c -1.038,0.22 -2.098,0.444 -3.127,0.715 0.787,-9.53 1.053,-21.357 -2.385,-32.01 l -2.575,-7.975 c 0.403,-0.399 0.724,-0.836 1.01,-1.262 0.315,0.958 0.741,1.863 1.158,2.748 0.192,0.407 0.384,0.813 0.563,1.223 1.108,2.535 3.898,4.792 6.934,4.019 1.338,-0.345 2.542,-1.29 3.402,-2.624 0.005,-0.008 0.012,-0.014 0.017,-0.023 0.006,-0.011 0.009,-0.022 0.015,-0.033 0.263,-0.416 0.496,-0.865 0.686,-1.348 0.469,-1.207 0.667,-2.48 0.783,-3.693 0.391,0.04 0.777,0.074 1.157,0.109 0.146,0.013 0.291,0.026 0.435,0.04 -0.352,0.786 -0.642,1.658 -0.839,2.541 -0.407,1.809 0.174,4.103 2.071,4.986 0.951,0.444 1.975,0.434 2.964,-0.031 0.036,-0.016 0.071,-0.034 0.107,-0.052 -4.274,9.78 -7.063,20.552 -8.167,31.66 z M 41.516,54.077 c 0.665,-0.211 1.294,-0.449 1.871,-0.715 0.591,0.742 1.492,1.469 2.438,2.114 -0.279,0.209 -0.572,0.365 -0.873,0.443 -1.277,0.345 -2.65,-0.62 -3.436,-1.842 z M 78.185,36.278 c -0.175,2.627 -1.51,5.204 -3.662,7.07 -2.006,1.74 -4.499,2.635 -6.838,2.459 -0.46,-0.037 -0.908,0.169 -1.184,0.541 -0.276,0.371 -0.34,0.859 -0.172,1.29 0.535,1.371 -1.231,3.923 -3.171,5.292 -0.442,0.313 -0.951,0.573 -1.511,0.802 0.467,-0.894 0.944,-1.782 1.438,-2.654 0.516,-0.912 1.046,-1.809 1.592,-2.698 0.246,-0.402 0.265,-0.903 0.049,-1.322 -0.216,-0.419 -0.636,-0.694 -1.106,-0.726 -0.859,-0.057 -1.455,0.084 -1.935,0.197 -0.392,0.094 -0.677,0.162 -1.128,0.13 -0.357,-0.023 -0.709,0.096 -0.979,0.332 -0.295,0.26 -0.569,0.563 -0.812,0.902 -0.898,1.256 -1.206,2.755 -1.503,4.206 -0.099,0.48 -0.196,0.961 -0.318,1.422 -0.115,0.434 -0.308,0.863 -0.542,1.247 -0.824,0.078 -1.673,0.148 -2.525,0.172 -0.038,-0.276 -0.032,-0.573 0.032,-0.859 0.296,-1.327 0.857,-2.634 1.466,-3.408 0.297,-0.379 0.37,-0.888 0.19,-1.334 -0.18,-0.447 -0.585,-0.764 -1.062,-0.83 -0.878,-0.123 -1.74,-0.202 -2.574,-0.277 -0.839,-0.076 -1.63,-0.148 -2.446,-0.262 -0.37,-0.052 -0.744,0.053 -1.034,0.287 -0.29,0.235 -0.469,0.58 -0.495,0.952 -0.096,1.374 -0.209,2.785 -0.628,4.021 -0.779,-0.544 -1.458,-1.095 -1.793,-1.468 0.124,-0.38 0.078,-0.812 -0.162,-1.169 -0.415,-0.617 -1.249,-0.781 -1.868,-0.366 0,0 -10e-4,0 -0.002,0.001 -0.813,0.546 -1.92,1.025 -3.175,1.394 -0.468,-1.006 -0.886,-1.977 -1.065,-2.962 -0.075,-0.395 -0.106,-0.772 -0.092,-1.154 0.017,-0.499 -0.242,-0.965 -0.675,-1.214 -0.433,-0.249 -0.968,-0.237 -1.389,0.028 -1.013,0.639 -1.602,1.543 -2.123,2.34 -0.423,0.648 -0.789,1.208 -1.306,1.535 -0.518,0.329 -0.749,0.967 -0.56,1.551 l 0.176,0.546 c -2.458,-0.245 -5.857,-1.178 -6.841,-4.394 -0.174,-0.569 -0.16,-1.249 0.043,-1.969 0.502,-1.789 2.05,-3.422 3.524,-3.719 0.716,-0.145 1.187,-0.834 1.06,-1.553 -0.127,-0.72 -0.804,-1.207 -1.526,-1.098 -2.807,0.422 -5.862,-1.266 -7.107,-3.926 -1.261,-2.693 -0.646,-6.299 1.433,-8.39 1.85,-1.863 4.843,-2.49 7.279,-1.522 0.656,0.258 1.402,-0.03 1.709,-0.666 0.307,-0.636 0.071,-1.4 -0.542,-1.752 -2.373,-1.363 -3.156,-5.125 -1.711,-8.214 1.461,-3.116 5.342,-4.894 8.834,-4.048 2.603,0.632 4.957,2.559 6.459,5.288 0.307,0.559 0.97,0.824 1.573,0.638 0.609,-0.186 1.004,-0.775 0.947,-1.409 -0.148,-1.628 0.885,-3.726 2.695,-5.478 1.625,-1.572 4.049,-2.42 6.832,-2.389 0.623,0.003 1.274,0.054 1.935,0.154 3.871,0.583 7.119,2.552 8.912,5.403 1.945,3.098 1.877,7.357 -0.159,9.907 -0.314,0.392 -0.382,0.928 -0.178,1.387 0.205,0.459 0.648,0.767 1.151,0.796 2.177,0.128 4.259,1.202 5.863,3.022 1.885,2.141 2.897,5.1 2.707,7.918 z"
       id="path12"
       inkscape:connector-curvature="0" /></g></svg>