<?xml version="1.0" encoding="UTF-8" standalone="no"?>
<svg
   xmlns:dc="http://purl.org/dc/elements/1.1/"
   xmlns:cc="http://creativecommons.org/ns#"
   xmlns:rdf="http://www.w3.org/1999/02/22-rdf-syntax-ns#"
   xmlns:svg="http://www.w3.org/2000/svg"
   xmlns="http://www.w3.org/2000/svg"
   xmlns:sodipodi="http://sodipodi.sourceforge.net/DTD/sodipodi-0.dtd"
   xmlns:inkscape="http://www.inkscape.org/namespaces/inkscape"
   version="1.1"
   x="0px"
   y="0px"
   viewBox="0 0 26.238327 90.000252"
   enable-background="new 0 0 100 100"
   xml:space="preserve"
   id="root"
   inkscape:version="0.91 r13725"
   sodipodi:docname="carrot.svg"
   width="26.238327"
   height="90.000252"><metadata
     id="metadata38"><rdf:RDF><cc:Work
         rdf:about=""><dc:format>image/svg+xml</dc:format><dc:type
           rdf:resource="http://purl.org/dc/dcmitype/StillImage" /><dc:title></dc:title></cc:Work></rdf:RDF></metadata><defs
     id="defs36" /><sodipodi:namedview
     pagecolor="#ffffff"
     bordercolor="#666666"
     borderopacity="1"
     objecttolerance="10"
     gridtolerance="10"
     guidetolerance="10"
     inkscape:pageopacity="0"
     inkscape:pageshadow="2"
     inkscape:window-width="748"
     inkscape:window-height="480"
     id="namedview34"
     showgrid="false"
     fit-margin-top="0"
     fit-margin-left="0"
     fit-margin-right="0"
     fit-margin-bottom="0"
     inkscape:zoom="1.888"
     inkscape:cx="13.120785"
     inkscape:cy="32.500552"
     inkscape:window-x="65"
     inkscape:window-y="24"
     inkscape:window-maximized="0"
     inkscape:current-layer="root" /><g
     id="g4"
     transform="translate(-36.879215,-5.0002973)"><path
       d="m 48.217,16.969 c 0.205,-0.03 0.409,-0.06 0.613,-0.08 0.125,-0.012 0.25,-0.015 0.375,-0.023 0.16,-0.01 0.32,-0.026 0.479,-0.03 0.182,-1.031 0.303,-2.141 0.422,-3.224 0.125,-1.146 0.244,-2.227 0.427,-3.158 C 50.817,9.02 50.71,7.958 50.261,7.747 50.236,7.735 50.209,7.727 50.181,7.721 49.87,7.657 49.363,7.93 49.095,8.323 c -0.452,0.666 -0.579,1.673 -0.691,2.562 -0.303,2.397 -0.493,4.331 -0.599,6.142 0.016,-0.003 0.032,-0.004 0.048,-0.007 0.121,-0.021 0.242,-0.033 0.364,-0.051 z"
       id="path6"
       inkscape:connector-curvature="0"
       style="fill:none" /><polygon
       points="45.88,37.261 45.879,37.261 45.878,37.261 "
       id="polygon8"
       style="fill:none" /><path
       d="m 42.483,19.23 c 0.101,-0.068 0.206,-0.128 0.308,-0.194 0.098,-0.063 0.196,-0.126 0.296,-0.186 0.266,-0.161 0.535,-0.313 0.81,-0.456 0.053,-0.028 0.104,-0.058 0.157,-0.085 0.013,-0.007 0.026,-0.015 0.039,-0.021 -0.26,-1.08 -0.629,-2.22 -0.988,-3.333 -0.354,-1.096 -0.689,-2.132 -0.902,-3.055 0,-0.001 0,-0.001 0,-0.002 C 41.893,10.547 41.398,9.645 40.924,9.548 40.899,9.543 40.873,9.54 40.848,9.54 c -0.327,-0.006 -0.738,0.491 -0.829,1.002 -0.14,0.791 0.143,1.722 0.417,2.621 0.73,2.401 1.372,4.307 2.047,6.067 z"
       id="path10"
       inkscape:connector-curvature="0"
       style="fill:none" /><path
       d="m 54.507,17.872 c 0.132,0.068 0.262,0.138 0.391,0.213 0.157,0.092 0.31,0.191 0.462,0.293 0.077,0.052 0.158,0.094 0.234,0.148 0.378,-0.394 0.753,-0.797 1.119,-1.191 0.787,-0.846 1.529,-1.645 2.234,-2.283 1.084,-0.98 1.633,-1.896 1.399,-2.333 -0.155,-0.289 -0.788,-0.406 -1.279,-0.236 -0.759,0.263 -1.433,0.964 -2.085,1.642 -1.22,1.269 -2.242,2.374 -3.16,3.42 0.07,0.028 0.136,0.068 0.205,0.098 0.162,0.071 0.322,0.148 0.48,0.229 z"
       id="path12"
       inkscape:connector-curvature="0"
       style="fill:none" /><path
       d="m 59.104,53.523 c -0.378,0.167 -0.787,0.207 -1.179,0.127 -0.284,-0.058 -0.56,-0.179 -0.809,-0.361 -0.441,-0.322 -0.905,-0.432 -1.419,-0.334 -1.132,0.215 -2.19,-0.516 -2.407,-1.662 -0.216,-1.138 0.496,-2.197 1.622,-2.411 1.642,-0.312 3.276,0.053 4.605,1.027 0.066,0.048 0.114,0.11 0.173,0.164 -0.063,-3.651 -0.191,-7.249 -0.318,-10.741 -0.155,-4.194 -0.518,-14.016 -4.631,-17.997 0,0 -10e-4,0 -10e-4,-0.001 -0.304,-0.294 -0.619,-0.541 -0.946,-0.756 -0.221,-0.145 -0.445,-0.279 -0.679,-0.389 -0.193,-0.091 -0.392,-0.172 -0.596,-0.241 -0.249,-0.084 -0.517,-0.152 -0.792,-0.211 -0.172,-0.037 -0.345,-0.074 -0.526,-0.101 -0.175,-0.026 -0.354,-0.05 -0.535,-0.065 -0.215,-0.018 -0.433,-0.024 -0.651,-0.026 -0.038,0 -0.075,-0.005 -0.113,-0.004 -0.513,0.002 -1.031,0.049 -1.553,0.139 -0.261,0.045 -0.522,0.101 -0.784,0.168 -0.256,0.066 -0.511,0.144 -0.763,0.228 -0.221,0.074 -0.438,0.16 -0.655,0.248 l -10e-4,10e-4 c -0.909,0.369 -1.79,0.867 -2.59,1.459 -0.267,0.198 -0.524,0.406 -0.771,0.623 -2.172,1.915 -3.334,4.357 -3.185,6.698 l 1.612,25.476 c 0.715,11.306 1.525,24.119 7.261,34.68 0.659,1.22 1.434,2.162 2.184,2.655 0.487,0.321 0.948,0.438 1.41,0.353 0.933,-0.169 1.725,-1.178 2.491,-3.173 1.727,-4.514 2.894,-9.21 3.686,-13.981 -0.062,0.033 -0.117,0.079 -0.182,0.105 -0.652,0.262 -1.384,0.153 -1.957,-0.297 -0.773,-0.605 -1.646,-0.759 -2.594,-0.461 -0.341,0.107 -0.688,0.125 -1.014,0.058 -0.332,-0.068 -0.641,-0.222 -0.899,-0.459 -0.544,-0.499 -0.778,-1.28 -0.61,-2.036 0.166,-0.747 0.701,-1.329 1.431,-1.559 2.105,-0.662 4.406,-0.243 6.153,1.126 0.064,0.05 0.11,0.114 0.168,0.169 0.801,-6.211 1.02,-12.509 0.986,-18.687 -0.183,0.183 -0.385,0.345 -0.622,0.449 z m -6.046,-9.404 c -0.382,0.642 -1.06,1.02 -1.816,1.01 -0.822,-0.01 -1.634,0.117 -2.481,0.39 -0.351,0.113 -0.701,0.129 -1.026,0.063 -0.665,-0.136 -1.221,-0.619 -1.452,-1.337 -0.365,-1.138 0.249,-2.356 1.369,-2.716 1.17,-0.377 2.425,-0.56 3.729,-0.545 0,0 0,0 10e-4,0 0.729,0.009 1.373,0.382 1.719,0.999 0.362,0.645 0.345,1.483 -0.043,2.136 z M 47.592,26.833 c 0.13,-0.672 0.612,-1.214 1.289,-1.448 2.119,-0.733 4.316,-0.412 6.033,0.881 0.603,0.454 0.908,1.167 0.818,1.907 -0.092,0.753 -0.592,1.425 -1.273,1.715 -0.652,0.276 -1.389,0.178 -1.974,-0.262 -0.642,-0.484 -1.398,-0.63 -2.073,-0.395 -0.37,0.128 -0.754,0.151 -1.12,0.076 -0.353,-0.072 -0.687,-0.235 -0.974,-0.483 -0.587,-0.508 -0.865,-1.271 -0.726,-1.991 z M 41.98,39.56 c -0.304,-0.062 -0.594,-0.193 -0.851,-0.391 -0.602,-0.463 -0.929,-1.236 -0.831,-1.966 0.093,-0.697 0.55,-1.277 1.223,-1.555 1.323,-0.546 2.678,-0.906 4.028,-1.072 0.751,-0.096 1.471,0.21 1.924,0.81 0.458,0.608 0.568,1.438 0.28,2.116 -0.274,0.646 -0.87,1.086 -1.593,1.173 -1.064,0.131 -2.033,0.381 -2.961,0.763 -0.399,0.164 -0.82,0.203 -1.219,0.122 z m 10.371,37.592 c 0.723,-0.02 1.371,0.32 1.735,0.91 0.389,0.631 0.402,1.447 0.034,2.127 -0.362,0.67 -1.034,1.083 -1.798,1.106 -0.753,0.021 -1.469,0.258 -2.187,0.724 -0.466,0.301 -0.988,0.394 -1.471,0.295 -0.494,-0.101 -0.948,-0.401 -1.258,-0.879 -0.661,-1.018 -0.393,-2.326 0.609,-2.976 1.27,-0.821 2.728,-1.261 4.336,-1.307 z M 50.366,66.791 c -0.648,0.39 -1.432,0.403 -2.097,0.034 -0.604,-0.33 -1.326,-0.338 -1.98,-0.015 -0.43,0.213 -0.891,0.265 -1.321,0.177 -0.601,-0.123 -1.14,-0.518 -1.441,-1.127 -0.516,-1.041 -0.114,-2.255 0.914,-2.764 1.894,-0.938 4.058,-0.876 5.939,0.163 0.636,0.352 1.023,0.978 1.036,1.677 0.015,0.746 -0.387,1.456 -1.05,1.855 z m 1.238,-9.457 c -0.639,-0.052 -1.263,0.027 -1.909,0.241 -0.311,0.104 -0.645,0.121 -0.969,0.055 -0.214,-0.044 -0.425,-0.124 -0.621,-0.24 -0.528,-0.31 -0.907,-0.84 -1.015,-1.416 -0.196,-1.047 0.408,-2.026 1.468,-2.38 1.074,-0.357 2.207,-0.49 3.37,-0.396 0,0 0.001,0 0.001,0 1.146,0.09 1.973,1.078 1.879,2.241 -0.094,1.155 -1.062,1.987 -2.204,1.895 z"
       id="path14"
       inkscape:connector-curvature="0"
       style="fill:none" /><path
       d="m 57.534,20.407 c 0.394,-0.41 0.782,-0.823 1.16,-1.23 0.746,-0.802 1.45,-1.559 2.067,-2.118 2.771,-2.505 2.601,-4.437 1.969,-5.616 -0.908,-1.695 -3.022,-2.047 -4.552,-1.515 -1.372,0.476 -2.357,1.499 -3.148,2.322 -0.865,0.9 -1.624,1.714 -2.329,2.491 0.032,-0.278 0.063,-0.557 0.093,-0.833 0.119,-1.086 0.231,-2.112 0.392,-2.928 C 53.912,7.316 52.621,5.869 51.41,5.299 49.67,4.48 47.765,5.465 46.855,6.803 c -0.817,1.203 -0.995,2.612 -1.138,3.744 -0.123,0.975 -0.226,1.87 -0.315,2.72 -0.227,-0.717 -0.43,-1.391 -0.565,-1.974 -0.836,-3.64 -2.604,-4.44 -3.944,-4.458 -1.922,-0.034 -3.259,1.642 -3.541,3.235 -0.254,1.431 0.16,2.789 0.492,3.88 0.87,2.858 1.622,5.043 2.448,7.109 -2.342,2.372 -3.578,5.316 -3.395,8.218 l 1.612,25.475 c 0.733,11.585 1.563,24.715 7.582,35.797 0.613,1.136 1.645,2.686 3.075,3.626 0.558,0.368 1.144,0.616 1.741,0.737 0.543,0.111 1.095,0.118 1.642,0.019 2.568,-0.467 3.816,-3 4.533,-4.867 C 63.335,73.715 62.665,55.396 62.073,39.232 61.92,35.011 61.566,25.505 57.534,20.407 Z m -0.553,-6.282 c 0.652,-0.678 1.326,-1.379 2.085,-1.642 0.491,-0.17 1.124,-0.053 1.279,0.236 0.234,0.437 -0.315,1.353 -1.399,2.333 -0.705,0.638 -1.447,1.437 -2.234,2.283 -0.367,0.394 -0.741,0.797 -1.119,1.191 -0.076,-0.055 -0.157,-0.097 -0.234,-0.148 -0.152,-0.102 -0.305,-0.201 -0.462,-0.293 -0.129,-0.075 -0.259,-0.145 -0.391,-0.213 -0.158,-0.082 -0.318,-0.158 -0.481,-0.229 -0.069,-0.03 -0.135,-0.07 -0.205,-0.098 0.92,-1.046 1.941,-2.15 3.161,-3.42 z m -8.578,-3.24 c 0.112,-0.889 0.24,-1.896 0.691,-2.562 0.268,-0.393 0.775,-0.665 1.086,-0.602 0.028,0.006 0.056,0.014 0.08,0.026 0.449,0.211 0.556,1.273 0.272,2.707 -0.184,0.931 -0.302,2.012 -0.427,3.158 -0.119,1.082 -0.24,2.193 -0.422,3.224 -0.159,0.004 -0.319,0.02 -0.479,0.03 -0.125,0.008 -0.25,0.012 -0.375,0.023 -0.204,0.019 -0.409,0.05 -0.613,0.08 -0.122,0.018 -0.243,0.03 -0.365,0.051 -0.016,0.003 -0.032,0.004 -0.048,0.007 0.107,-1.811 0.297,-3.745 0.6,-6.142 z m -8.385,-0.344 c 0.09,-0.511 0.501,-1.008 0.829,-1.002 0.025,10e-4 0.051,0.003 0.076,0.008 0.474,0.097 0.969,0.999 1.279,2.35 0,10e-4 0,10e-4 0,0.002 0.213,0.923 0.548,1.959 0.902,3.055 0.36,1.112 0.728,2.253 0.988,3.333 -0.013,0.007 -0.026,0.015 -0.039,0.021 -0.053,0.027 -0.104,0.058 -0.157,0.085 -0.274,0.143 -0.544,0.295 -0.81,0.456 -0.1,0.061 -0.198,0.123 -0.296,0.186 -0.102,0.065 -0.207,0.126 -0.308,0.194 -0.675,-1.759 -1.317,-3.666 -2.048,-6.068 -0.273,-0.898 -0.556,-1.828 -0.416,-2.62 z m 18.721,61.22 c -0.057,-0.056 -0.103,-0.119 -0.168,-0.169 -1.747,-1.369 -4.048,-1.788 -6.153,-1.126 -0.73,0.229 -1.265,0.812 -1.431,1.559 -0.169,0.757 0.065,1.537 0.61,2.036 0.258,0.236 0.567,0.391 0.899,0.459 0.326,0.066 0.673,0.049 1.014,-0.058 0.948,-0.298 1.821,-0.143 2.594,0.461 0.573,0.45 1.305,0.559 1.957,0.297 0.065,-0.026 0.12,-0.072 0.182,-0.105 -0.792,4.771 -1.959,9.467 -3.686,13.981 -0.766,1.995 -1.557,3.004 -2.491,3.173 -0.462,0.085 -0.923,-0.031 -1.41,-0.353 -0.75,-0.493 -1.524,-1.435 -2.184,-2.655 -5.736,-10.56 -6.546,-23.374 -7.261,-34.68 L 39.6,29.105 c -0.148,-2.341 1.013,-4.783 3.185,-6.698 0.247,-0.218 0.505,-0.426 0.771,-0.623 0.8,-0.593 1.681,-1.09 2.59,-1.459 l 10e-4,-10e-4 c 0.217,-0.088 0.433,-0.173 0.655,-0.248 0.252,-0.084 0.507,-0.162 0.763,-0.228 0.262,-0.067 0.523,-0.123 0.784,-0.168 0.522,-0.09 1.04,-0.137 1.553,-0.139 0.038,0 0.075,0.004 0.113,0.004 0.218,0.002 0.435,0.008 0.651,0.026 0.181,0.015 0.36,0.039 0.535,0.065 0.181,0.027 0.354,0.064 0.526,0.101 0.276,0.059 0.543,0.127 0.792,0.211 0.204,0.069 0.402,0.149 0.596,0.241 0.234,0.111 0.459,0.244 0.679,0.389 0.327,0.215 0.642,0.462 0.946,0.756 0,0 10e-4,0 10e-4,0 4.114,3.981 4.477,13.803 4.632,17.997 0.128,3.492 0.255,7.09 0.318,10.741 -0.059,-0.054 -0.107,-0.116 -0.173,-0.164 -1.328,-0.974 -2.963,-1.339 -4.605,-1.027 -1.125,0.214 -1.837,1.274 -1.622,2.411 0.217,1.146 1.275,1.876 2.407,1.662 0.514,-0.097 0.978,0.013 1.419,0.334 0.249,0.182 0.525,0.303 0.809,0.361 0.392,0.08 0.801,0.04 1.179,-0.127 0.237,-0.104 0.438,-0.266 0.62,-0.449 0.034,6.179 -0.185,12.477 -0.986,18.688 z"
       id="path16"
       inkscape:connector-curvature="0" /><path
       d="m 49.291,29.308 c 0.366,0.075 0.75,0.051 1.12,-0.076 0.675,-0.234 1.431,-0.089 2.073,0.395 0.585,0.44 1.323,0.538 1.974,0.262 0.681,-0.29 1.181,-0.963 1.273,-1.715 0.091,-0.74 -0.214,-1.453 -0.818,-1.907 -1.717,-1.293 -3.914,-1.614 -6.033,-0.881 -0.677,0.234 -1.159,0.775 -1.289,1.448 -0.139,0.72 0.139,1.484 0.725,1.992 0.288,0.247 0.623,0.41 0.975,0.482 z"
       id="path18"
       inkscape:connector-curvature="0" /><path
       d="m 47.752,37.502 c 0.288,-0.678 0.178,-1.509 -0.28,-2.116 -0.453,-0.599 -1.173,-0.905 -1.924,-0.81 -1.35,0.166 -2.706,0.527 -4.028,1.072 -0.673,0.278 -1.131,0.859 -1.223,1.555 -0.097,0.73 0.229,1.502 0.831,1.966 0.257,0.198 0.548,0.329 0.851,0.391 0.399,0.081 0.821,0.042 1.219,-0.122 0.928,-0.382 1.896,-0.632 2.961,-0.763 0.723,-0.088 1.319,-0.527 1.593,-1.173 z m -1.874,-0.241 0,0 c 10e-4,-0.001 10e-4,-0.001 10e-4,-0.001 0,0.001 0,0.001 -10e-4,0.001 z"
       id="path20"
       inkscape:connector-curvature="0" /><path
       d="m 51.383,40.984 c -0.001,0 -0.001,0 0,0 -1.305,-0.016 -2.56,0.168 -3.73,0.545 -1.12,0.359 -1.734,1.578 -1.369,2.716 0.231,0.718 0.787,1.202 1.452,1.337 0.325,0.066 0.675,0.05 1.026,-0.063 0.848,-0.273 1.659,-0.4 2.481,-0.39 0.755,0.009 1.434,-0.368 1.816,-1.01 0.388,-0.653 0.405,-1.491 0.043,-2.136 -0.346,-0.617 -0.99,-0.989 -1.719,-0.999 z"
       id="path22"
       inkscape:connector-curvature="0" /><path
       d="m 51.929,53.198 c 0,0 -0.001,0 -0.001,0 -1.163,-0.093 -2.296,0.039 -3.37,0.396 -1.06,0.354 -1.664,1.333 -1.468,2.38 0.108,0.577 0.487,1.106 1.015,1.416 0.196,0.116 0.406,0.196 0.621,0.24 0.324,0.066 0.657,0.049 0.969,-0.055 0.646,-0.214 1.27,-0.294 1.909,-0.241 1.142,0.092 2.11,-0.74 2.204,-1.895 0.094,-1.164 -0.734,-2.152 -1.879,-2.241 z"
       id="path24"
       inkscape:connector-curvature="0" /><path
       d="m 50.381,63.26 c -1.881,-1.039 -4.046,-1.101 -5.939,-0.163 -1.028,0.508 -1.43,1.723 -0.914,2.764 0.301,0.609 0.84,1.005 1.441,1.127 0.429,0.088 0.891,0.036 1.321,-0.177 0.654,-0.323 1.376,-0.315 1.98,0.015 0.665,0.368 1.449,0.356 2.097,-0.034 0.663,-0.399 1.065,-1.109 1.051,-1.855 -0.014,-0.699 -0.401,-1.326 -1.037,-1.677 z"
       id="path26"
       inkscape:connector-curvature="0" /><path
       d="m 47.407,81.436 c 0.31,0.478 0.763,0.778 1.258,0.879 0.483,0.099 1.005,0.006 1.471,-0.295 0.719,-0.466 1.434,-0.703 2.187,-0.724 0.764,-0.022 1.436,-0.435 1.798,-1.106 0.368,-0.681 0.355,-1.496 -0.034,-2.127 -0.364,-0.59 -1.012,-0.93 -1.735,-0.91 -1.608,0.046 -3.066,0.485 -4.336,1.308 -1.002,0.649 -1.27,1.956 -0.609,2.975 z"
       id="path28"
       inkscape:connector-curvature="0" /></g></svg>