<?xml version="1.0" encoding="UTF-8" standalone="no"?>
<svg
   xmlns:dc="http://purl.org/dc/elements/1.1/"
   xmlns:cc="http://creativecommons.org/ns#"
   xmlns:rdf="http://www.w3.org/1999/02/22-rdf-syntax-ns#"
   xmlns:svg="http://www.w3.org/2000/svg"
   xmlns="http://www.w3.org/2000/svg"
   xmlns:sodipodi="http://sodipodi.sourceforge.net/DTD/sodipodi-0.dtd"
   xmlns:inkscape="http://www.inkscape.org/namespaces/inkscape"
   version="1.1"
   x="0px"
   y="0px"
   viewBox="0 0 89.671906 90.001404"
   enable-background="new 0 0 100 100"
   xml:space="preserve"
   id="root"
   inkscape:version="0.91 r13725"
   sodipodi:docname="cherry.svg"
   width="89.671906"
   height="90.001404"><metadata
     id="metadata22"><rdf:RDF><cc:Work
         rdf:about=""><dc:format>image/svg+xml</dc:format><dc:type
           rdf:resource="http://purl.org/dc/dcmitype/StillImage" /><dc:title></dc:title></cc:Work></rdf:RDF></metadata><defs
     id="defs20" /><sodipodi:namedview
     pagecolor="#ffffff"
     bordercolor="#666666"
     borderopacity="1"
     objecttolerance="10"
     gridtolerance="10"
     guidetolerance="10"
     inkscape:pageopacity="0"
     inkscape:pageshadow="2"
     inkscape:window-width="748"
     inkscape:window-height="480"
     id="namedview18"
     showgrid="false"
     fit-margin-top="0"
     fit-margin-left="0"
     fit-margin-right="0"
     fit-margin-bottom="0"
     inkscape:zoom="1.888"
     inkscape:cx="44.835858"
     inkscape:cy="32.5"
     inkscape:window-x="65"
     inkscape:window-y="24"
     inkscape:window-maximized="0"
     inkscape:current-layer="root" /><g
     id="g4"
     transform="translate(-5.1641424,-4.9985926)"><path
       d="m 27.412,55.11 c -6.578,0 -12.904,3.685 -15.947,9.997 -2.049,4.252 -2.32,9.048 -0.764,13.503 1.558,4.456 4.756,8.039 9.008,10.088 4.252,2.052 9.05,2.319 13.504,0.765 4.456,-1.557 8.039,-4.756 10.089,-9.008 2.05,-4.252 2.321,-9.047 0.764,-13.503 C 42.509,62.496 39.31,58.913 35.058,56.864 32.592,55.674 29.983,55.11 27.412,55.11 Z"
       id="path6"
       inkscape:connector-curvature="0"
       style="fill:none" /><path
       d="m 56.747,45.852 -1.11,-1.607 -1.158,-1.914 c -0.501,-0.758 -0.933,-1.628 -1.349,-2.468 -0.243,-0.489 -0.487,-0.984 -0.757,-1.465 -0.042,-0.075 -0.08,-0.152 -0.112,-0.232 -0.188,-0.448 -0.386,-0.894 -0.583,-1.341 -0.419,-0.948 -0.852,-1.928 -1.22,-2.969 -0.193,-0.611 -0.387,-1.133 -0.58,-1.654 -0.34,-0.923 -0.693,-1.876 -0.935,-2.917 -0.134,-0.57 -0.299,-1.134 -0.462,-1.693 -0.253,-0.87 -0.515,-1.768 -0.685,-2.716 -0.123,-0.637 -0.254,-1.289 -0.388,-1.929 -0.148,-0.709 -0.298,-1.402 -0.446,-2.075 -0.014,-0.066 -0.026,-0.133 -0.034,-0.199 -0.166,-1.301 -0.343,-2.53 -0.52,-3.667 L 45.93,12.957 45.69,10.699 c -0.543,1.238 -1.346,3.096 -2.283,5.351 -0.592,1.411 -1.18,3.063 -1.803,4.812 -0.289,0.814 -0.586,1.648 -0.897,2.495 -1.041,2.789 -2.06,5.817 -2.932,8.437 -0.827,2.574 -1.792,5.617 -2.62,8.503 -0.443,1.525 -0.863,3.032 -1.254,4.483 0.511,-1.379 1.042,-2.838 1.59,-4.369 0.963,-2.681 1.942,-5.555 2.917,-8.428 l 0.305,-0.922 c 0.849,-2.564 1.693,-5.113 2.444,-7.533 0.388,-1.22 0.753,-2.39 1.095,-3.509 0.367,-1.199 1.634,-1.876 2.833,-1.507 0.969,0.296 1.585,1.185 1.595,2.148 0.006,0.046 0.021,0.09 0.024,0.137 0.179,1.323 0.388,2.8 0.635,4.323 0.151,1.055 0.425,2.118 0.714,3.244 0.111,0.43 0.222,0.861 0.327,1.297 0.177,0.781 0.431,1.524 0.657,2.152 l 0.837,2.402 c 0.365,0.962 0.829,1.957 1.321,3.01 0.204,0.437 0.406,0.873 0.603,1.307 l 1.173,2.06 c 0.443,0.793 0.792,1.357 1.143,1.842 l 1.356,1.954 c 0.229,0.289 0.538,0.662 0.84,1.028 l 0.473,0.575 c 0.098,0.127 0.207,0.237 0.308,0.359 -0.114,-0.168 -0.236,-0.335 -0.344,-0.498 z"
       id="path8"
       inkscape:connector-curvature="0"
       style="fill:none" /><path
       d="m 84.544,57.801 c -3.283,-2.998 -7.48,-4.623 -11.897,-4.623 -0.273,0 -0.546,0.006 -0.82,0.018 -4.715,0.214 -9.065,2.251 -12.249,5.737 -3.183,3.486 -4.818,8.003 -4.605,12.717 0.441,9.735 8.723,17.271 18.453,16.854 C 83.16,88.062 90.72,79.784 90.28,70.05 90.067,65.334 88.029,60.984 84.544,57.801 Z"
       id="path10"
       inkscape:connector-curvature="0"
       style="fill:none" /><path
       d="m 87.604,54.451 c -4.382,-4.003 -10.067,-6.066 -15.982,-5.787 -1.935,0.087 -3.813,0.443 -5.616,1.003 -0.508,-0.499 -1.076,-1.069 -1.469,-1.489 -0.374,-0.359 -0.744,-0.787 -1.14,-1.238 -0.273,-0.312 -0.555,-0.634 -0.78,-0.873 -0.21,-0.251 -0.416,-0.517 -0.626,-0.789 l -0.46,-0.586 c -0.34,-0.417 -0.679,-0.858 -1.022,-1.378 L 59.448,41.785 58.316,39.911 C 57.92,39.308 57.568,38.598 57.195,37.846 56.938,37.329 56.678,36.806 56.397,36.295 56.213,35.861 56.021,35.425 55.829,34.991 55.427,34.08 55.047,33.22 54.763,32.422 54.573,31.816 54.355,31.221 54.135,30.627 53.83,29.8 53.541,29.02 53.363,28.252 53.209,27.598 53.023,26.955 52.838,26.32 52.608,25.531 52.391,24.785 52.259,24.048 52.127,23.357 51.989,22.68 51.851,22.016 51.708,21.328 51.562,20.654 51.417,19.997 51.249,18.688 51.071,17.454 50.894,16.315 L 50.012,8.466 c -0.213,-1.86 -1.723,-3.306 -3.59,-3.437 -0.01,-0.001 -0.02,0.001 -0.03,0 -1.557,-0.19 -3.162,0.518 -3.982,1.911 -0.041,0.069 -0.079,0.142 -0.113,0.217 -0.013,0.028 -1.317,2.908 -3.077,7.141 -0.637,1.52 -1.246,3.23 -1.89,5.04 -0.285,0.801 -0.578,1.622 -0.878,2.442 -1.063,2.845 -2.096,5.92 -2.989,8.601 -0.845,2.631 -1.823,5.716 -2.666,8.655 -0.775,2.666 -1.495,5.313 -2.081,7.644 -0.38,1.48 -0.681,2.804 -0.933,3.918 -8.396,-0.137 -16.525,4.49 -20.404,12.537 -2.576,5.344 -2.917,11.37 -0.96,16.971 1.957,5.601 5.978,10.103 11.321,12.679 3.055,1.474 6.333,2.215 9.628,2.215 2.467,0 4.944,-0.417 7.343,-1.254 5.6,-1.957 10.103,-5.978 12.679,-11.321 2.577,-5.344 2.917,-11.37 0.961,-16.971 -1.957,-5.599 -5.978,-10.103 -11.321,-12.679 -0.377,-0.181 -0.761,-0.323 -1.143,-0.481 0.339,-0.859 0.722,-1.836 1.149,-2.962 0.832,-2.155 1.758,-4.681 2.729,-7.391 0.971,-2.703 1.959,-5.601 2.949,-8.518 l 0.31,-0.936 c 0.267,-0.805 0.527,-1.6 0.79,-2.399 0.052,0.203 0.107,0.415 0.153,0.605 0.225,0.993 0.548,1.939 0.798,2.634 l 0.851,2.437 c 0.445,1.176 0.967,2.295 1.473,3.378 0.21,0.45 0.419,0.9 0.621,1.347 0.03,0.066 0.062,0.131 0.097,0.193 l 1.215,2.133 c 0.523,0.939 0.961,1.641 1.394,2.241 l 1.405,2.019 c 0.329,0.422 0.665,0.83 0.997,1.232 l 0.411,0.496 c 0.734,0.957 1.538,1.756 2.248,2.462 0.247,0.247 0.49,0.487 0.72,0.727 0.036,0.037 0.074,0.074 0.112,0.109 0.706,0.639 1.389,1.227 2.049,1.756 -0.743,0.626 -1.463,1.285 -2.129,2.015 -4.001,4.381 -6.056,10.057 -5.788,15.984 0.539,11.892 10.386,21.203 22.175,21.203 0.337,0 0.676,-0.007 1.016,-0.024 C 85.865,92.481 95.367,82.077 94.813,69.843 94.544,63.917 91.984,58.451 87.604,54.451 Z m -43.538,12.5 c 1.558,4.456 1.286,9.251 -0.764,13.503 -2.05,4.252 -5.633,7.452 -10.089,9.008 -4.454,1.554 -9.251,1.286 -13.504,-0.765 -4.252,-2.049 -7.451,-5.632 -9.008,-10.088 -1.557,-4.455 -1.286,-9.251 0.764,-13.503 3.043,-6.311 9.369,-9.997 15.947,-9.997 2.571,0 5.18,0.564 7.647,1.753 4.251,2.05 7.451,5.633 9.007,10.089 z M 56.314,45.415 c -0.303,-0.366 -0.611,-0.739 -0.84,-1.028 l -1.356,-1.954 c -0.351,-0.484 -0.7,-1.049 -1.143,-1.842 l -1.173,-2.06 c -0.196,-0.434 -0.399,-0.87 -0.603,-1.307 -0.492,-1.053 -0.956,-2.049 -1.321,-3.01 l -0.837,-2.402 c -0.226,-0.628 -0.479,-1.371 -0.657,-2.152 -0.106,-0.436 -0.216,-0.867 -0.327,-1.297 -0.289,-1.125 -0.563,-2.189 -0.714,-3.244 -0.247,-1.523 -0.456,-3 -0.635,-4.323 -0.004,-0.047 -0.018,-0.091 -0.024,-0.137 -0.01,-0.963 -0.626,-1.851 -1.595,-2.148 -1.199,-0.369 -2.466,0.307 -2.833,1.507 -0.342,1.12 -0.707,2.289 -1.095,3.509 -0.751,2.419 -1.595,4.969 -2.444,7.533 l -0.305,0.922 c -0.976,2.873 -1.954,5.747 -2.917,8.428 -0.548,1.531 -1.079,2.99 -1.59,4.369 0.391,-1.451 0.811,-2.958 1.254,-4.483 0.827,-2.886 1.792,-5.929 2.62,-8.503 0.872,-2.62 1.891,-5.648 2.932,-8.437 0.31,-0.846 0.607,-1.681 0.897,-2.495 0.623,-1.749 1.211,-3.402 1.803,-4.812 0.937,-2.255 1.74,-4.114 2.283,-5.351 l 0.24,2.258 0.478,4.049 c 0.177,1.137 0.354,2.366 0.52,3.667 0.008,0.066 0.02,0.133 0.034,0.199 0.148,0.674 0.298,1.366 0.446,2.075 0.134,0.64 0.266,1.292 0.388,1.929 0.169,0.948 0.431,1.846 0.685,2.716 0.162,0.558 0.328,1.123 0.462,1.693 0.241,1.041 0.595,1.994 0.935,2.917 0.193,0.521 0.387,1.043 0.58,1.654 0.368,1.041 0.801,2.021 1.22,2.969 0.197,0.448 0.394,0.894 0.583,1.341 0.032,0.08 0.07,0.157 0.112,0.232 0.27,0.482 0.514,0.976 0.757,1.465 0.417,0.84 0.848,1.71 1.349,2.468 l 1.158,1.914 1.11,1.607 c 0.108,0.163 0.23,0.33 0.348,0.496 -0.102,-0.122 -0.21,-0.231 -0.308,-0.359 l -0.477,-0.573 z m 17.113,43.089 c -9.73,0.417 -18.012,-7.119 -18.453,-16.854 -0.213,-4.715 1.422,-9.231 4.605,-12.717 3.184,-3.486 7.534,-5.523 12.249,-5.737 0.275,-0.012 0.547,-0.018 0.82,-0.018 4.416,0 8.614,1.625 11.897,4.623 3.485,3.183 5.523,7.533 5.736,12.249 0.44,9.734 -7.12,18.012 -16.854,18.454 z"
       id="path12"
       inkscape:connector-curvature="0" /></g></svg>