<?xml version="1.0" encoding="UTF-8" standalone="no"?>
<svg
   xmlns:dc="http://purl.org/dc/elements/1.1/"
   xmlns:cc="http://creativecommons.org/ns#"
   xmlns:rdf="http://www.w3.org/1999/02/22-rdf-syntax-ns#"
   xmlns:svg="http://www.w3.org/2000/svg"
   xmlns="http://www.w3.org/2000/svg"
   xmlns:sodipodi="http://sodipodi.sourceforge.net/DTD/sodipodi-0.dtd"
   xmlns:inkscape="http://www.inkscape.org/namespaces/inkscape"
   version="1.1"
   x="0px"
   y="0px"
   viewBox="0 0 24.455736 89.999405"
   enable-background="new 0 0 100 100"
   xml:space="preserve"
   id="root"
   inkscape:version="0.91 r13725"
   sodipodi:docname="chili-pepper.svg"
   width="24.455736"
   height="89.999405"><metadata
     id="metadata22"><rdf:RDF><cc:Work
         rdf:about=""><dc:format>image/svg+xml</dc:format><dc:type
           rdf:resource="http://purl.org/dc/dcmitype/StillImage" /><dc:title></dc:title></cc:Work></rdf:RDF></metadata><defs
     id="defs20" /><sodipodi:namedview
     pagecolor="#ffffff"
     bordercolor="#666666"
     borderopacity="1"
     objecttolerance="10"
     gridtolerance="10"
     guidetolerance="10"
     inkscape:pageopacity="0"
     inkscape:pageshadow="2"
     inkscape:window-width="748"
     inkscape:window-height="480"
     id="namedview18"
     showgrid="false"
     fit-margin-top="0"
     fit-margin-left="0"
     fit-margin-right="0"
     fit-margin-bottom="0"
     inkscape:zoom="1.888"
     inkscape:cx="12.227458"
     inkscape:cy="32.498"
     inkscape:window-x="65"
     inkscape:window-y="24"
     inkscape:window-maximized="0"
     inkscape:current-layer="root" /><g
     id="g4"
     transform="translate(-37.772542,-4.9985914)"><path
       d="m 52.976,19.848 2.295,-8.447 c 0.003,-0.012 0.006,-0.022 0.009,-0.034 0.015,-0.048 0.363,-1.185 0.539,-2.379 L 55.87,8.596 c 0.054,-0.493 0.052,-0.844 0.03,-1.089 -0.75,1.66 -1.944,6.503 -3.009,12.322 0.027,0.004 0.058,0.014 0.085,0.019 z"
       id="path6"
       inkscape:connector-curvature="0"
       style="fill:none" /><path
       d="m 50.727,20.399 c 0.011,-0.064 0.022,-0.12 0.033,-0.183 l -0.352,0.379 0.319,-0.196 z"
       id="path8"
       inkscape:connector-curvature="0"
       style="fill:none" /><path
       d="m 56.147,17.248 c -0.122,-0.043 -0.221,-0.063 -0.336,-0.1 l -0.724,2.664 c 0.654,-0.069 1.291,0.338 1.447,1.003 0.115,0.513 -0.075,1.044 -0.481,1.363 -0.005,0.004 -0.009,0.006 -0.013,0.01 -0.073,0.055 -0.466,0.341 -1.09,0.553 -0.486,0.178 -1.056,0.271 -1.629,0.271 -0.28,0 -0.562,-0.022 -0.836,-0.067 -0.405,-0.067 -0.827,-0.206 -1.292,-0.424 -0.166,-0.059 -0.344,-0.182 -0.473,-0.271 -0.212,-0.137 -0.346,-0.248 -0.468,-0.355 -0.286,-0.228 -0.46,-0.446 -0.563,-0.576 -0.206,-0.261 -0.27,-0.359 -0.27,-0.359 -0.414,-0.628 -0.241,-1.482 0.387,-1.902 0.374,-0.241 0.803,-0.257 1.19,-0.128 0.142,-0.77 0.283,-1.517 0.422,-2.223 -0.974,0.156 -1.909,0.485 -2.784,1.004 -1.114,0.66 -2.165,1.616 -3.122,2.845 -3.725,4.774 -4.91,11.996 -4.958,12.301 -3.594,31.073 6.583,49.263 9.787,54.097 1.775,2.678 3.204,4.108 4.091,4.839 0.711,0.582 2.012,1.498 2.756,1.056 1.368,-0.816 1.287,-5.921 0.417,-10.384 C 57.445,81.201 54.01,53.094 58.653,36.106 63.174,19.571 56.436,17.335 56.147,17.248 Z"
       id="path10"
       inkscape:connector-curvature="0"
       style="fill:none" /><path
       d="m 56.779,15.322 c -0.147,-0.053 -0.29,-0.083 -0.436,-0.13 l 0.882,-3.246 c 0.06,-0.198 0.413,-1.385 0.601,-2.666 l 0.06,-0.466 C 58.118,6.702 57.619,5.443 56.406,5.068 55.989,4.935 55.545,4.995 55.16,5.232 c -1.005,0.614 -2.118,3.769 -3.321,9.389 -1.495,0.125 -2.921,0.56 -4.24,1.341 -1.333,0.79 -2.574,1.916 -3.687,3.344 -4.043,5.182 -5.31,12.904 -5.367,13.272 -3.68,31.801 6.805,50.517 10.106,55.495 1.514,2.284 3.068,4.112 4.494,5.285 1.33,1.091 2.535,1.64 3.597,1.64 0.53,0 1.025,-0.137 1.484,-0.408 3.165,-1.886 1.85,-10.057 1.381,-12.456 C 59.46,80.963 56.073,53.243 60.611,36.639 65.561,18.531 57.65,15.582 56.779,15.322 Z m -6.052,5.077 -0.319,0.196 0.352,-0.379 c -0.011,0.064 -0.022,0.12 -0.033,0.183 z M 55.899,7.506 c 0.023,0.246 0.025,0.596 -0.03,1.089 l -0.051,0.392 c -0.176,1.194 -0.524,2.332 -0.539,2.379 -0.003,0.012 -0.006,0.022 -0.009,0.034 l -2.295,8.447 c -0.026,-0.005 -0.058,-0.014 -0.086,-0.02 1.066,-5.818 2.26,-10.662 3.01,-12.321 z m 2.754,28.6 c -4.643,16.988 -1.208,45.095 -1.048,46.359 0.87,4.463 0.951,9.568 -0.417,10.384 -0.745,0.442 -2.045,-0.473 -2.756,-1.056 C 53.546,91.062 52.116,89.632 50.341,86.954 47.137,82.12 36.96,63.93 40.553,32.857 c 0.049,-0.305 1.233,-7.527 4.958,-12.301 0.957,-1.228 2.008,-2.185 3.122,-2.845 0.875,-0.519 1.81,-0.847 2.784,-1.004 -0.14,0.706 -0.28,1.453 -0.422,2.223 -0.388,-0.129 -0.816,-0.113 -1.19,0.128 -0.628,0.42 -0.801,1.274 -0.387,1.902 0,0 0.064,0.097 0.27,0.359 0.103,0.131 0.276,0.349 0.563,0.576 0.123,0.107 0.257,0.218 0.468,0.355 0.13,0.089 0.307,0.212 0.473,0.271 0.465,0.218 0.886,0.357 1.292,0.424 0.274,0.046 0.556,0.067 0.836,0.067 0.573,0 1.143,-0.093 1.629,-0.271 0.625,-0.212 1.017,-0.497 1.09,-0.553 0.004,-0.004 0.008,-0.006 0.013,-0.01 0.406,-0.319 0.596,-0.85 0.481,-1.363 -0.157,-0.665 -0.793,-1.073 -1.447,-1.003 l 0.724,-2.664 c 0.115,0.037 0.214,0.057 0.336,0.1 0.29,0.087 7.028,2.323 2.507,18.858 z"
       id="path12"
       inkscape:connector-curvature="0" /></g></svg>