<?xml version="1.0" encoding="UTF-8" standalone="no"?>
<svg
   xmlns:dc="http://purl.org/dc/elements/1.1/"
   xmlns:cc="http://creativecommons.org/ns#"
   xmlns:rdf="http://www.w3.org/1999/02/22-rdf-syntax-ns#"
   xmlns:svg="http://www.w3.org/2000/svg"
   xmlns="http://www.w3.org/2000/svg"
   xmlns:sodipodi="http://sodipodi.sourceforge.net/DTD/sodipodi-0.dtd"
   xmlns:inkscape="http://www.inkscape.org/namespaces/inkscape"
   version="1.1"
   x="0px"
   y="0px"
   viewBox="0 0 51.132061 90.00071"
   enable-background="new 0 0 100 100"
   xml:space="preserve"
   id="root"
   inkscape:version="0.91 r13725"
   sodipodi:docname="eggplant.svg"
   width="51.132061"
   height="90.00071"><metadata
     id="metadata3630"><rdf:RDF><cc:Work
         rdf:about=""><dc:format>image/svg+xml</dc:format><dc:type
           rdf:resource="http://purl.org/dc/dcmitype/StillImage" /><dc:title></dc:title></cc:Work></rdf:RDF></metadata><defs
     id="defs3628" /><sodipodi:namedview
     pagecolor="#ffffff"
     bordercolor="#666666"
     borderopacity="1"
     objecttolerance="10"
     gridtolerance="10"
     guidetolerance="10"
     inkscape:pageopacity="0"
     inkscape:pageshadow="2"
     inkscape:window-width="2495"
     inkscape:window-height="1056"
     id="namedview3626"
     showgrid="false"
     fit-margin-top="0"
     fit-margin-left="0"
     fit-margin-right="0"
     fit-margin-bottom="0"
     inkscape:zoom="1.888"
     inkscape:cx="25.565322"
     inkscape:cy="32.5"
     inkscape:window-x="65"
     inkscape:window-y="24"
     inkscape:window-maximized="1"
     inkscape:current-layer="root" /><g
     id="g3612"
     transform="translate(-24.434678,-4.9992893)"><path
       d="m 38.972,24.572 c 0.072,-1.059 0.961,-1.859 2.025,-1.857 1.061,0.019 1.921,0.869 1.955,1.931 0.012,0.377 -10e-4,0.752 -0.036,1.127 -0.007,2.996 0.94,5.879 2.687,8.258 1.484,-2.727 2.43,-5.939 2.606,-8.986 0.059,-1.012 0.868,-1.817 1.88,-1.874 1.005,-0.063 1.904,0.656 2.074,1.655 0.445,2.61 2.083,5.234 4.363,7.126 0.83,-2.793 0.9,-6.039 0.125,-8.795 -0.281,-1.003 0.257,-2.053 1.235,-2.41 0.975,-0.357 2.066,0.098 2.497,1.045 0.863,1.895 3.291,3.908 4.329,4.767 0.842,0.697 1.764,1.076 2.812,1.46 -0.044,-0.201 -0.084,-0.366 -0.11,-0.445 -0.45,-1.184 -1.074,-2.363 -1.726,-3.566 -1.122,-2.066 -2.649,-3.944 -4.415,-5.428 -1.685,-1.414 -4.998,-2.054 -7.059,-0.717 -0.683,0.443 -1.57,0.426 -2.237,-0.046 -0.061,-0.044 -0.12,-0.09 -0.175,-0.139 -0.056,0.12 -0.125,0.233 -0.207,0.341 -0.36,0.477 -0.915,0.768 -1.512,0.791 -3.962,0.158 -7.993,0.523 -9.947,3.058 -1.499,1.944 -2.371,4.328 -2.53,6.764 0.723,-0.915 1.191,-1.979 1.324,-3.069 0.006,-0.329 0.019,-0.66 0.042,-0.991 z"
       id="path3614"
       inkscape:connector-curvature="0"
       style="fill:none" /><path
       d="m 48.45,9.421 c 1.2,1.52 2.21,3.402 2.864,5.032 -0.077,-1.887 -1.205,-3.878 -2.864,-5.032 z"
       id="path3616"
       inkscape:connector-curvature="0"
       style="fill:none" /><path
       d="m 66.91,32.037 c -0.105,-0.038 -0.206,-0.077 -0.314,-0.116 -1.377,-0.496 -2.937,-1.059 -4.426,-2.293 -0.344,-0.285 -0.694,-0.58 -1.042,-0.884 -0.178,2.531 -0.816,5.019 -1.887,7.159 -0.244,0.487 -0.678,0.854 -1.201,1.014 -0.521,0.16 -1.088,0.096 -1.561,-0.171 -2.216,-1.253 -4.127,-2.997 -5.566,-5.006 -0.82,2.459 -1.994,4.799 -3.435,6.769 -0.338,0.463 -0.858,0.757 -1.428,0.809 -0.06,0.005 -0.121,0.008 -0.18,0.008 -0.508,0 -0.999,-0.195 -1.371,-0.547 -1.849,-1.754 -3.25,-3.86 -4.195,-6.153 -0.284,2.649 -0.274,5.366 -0.228,7.457 l 0.01,0.457 c 0.123,5.642 0.25,11.475 -2.109,16.838 -1.162,2.638 -2.843,4.938 -4.468,7.162 -1.942,2.657 -3.776,5.167 -4.621,8.05 -0.547,1.862 -0.613,3.84 -0.197,5.878 1.013,4.981 4.71,9.422 9.418,11.315 6.469,2.598 14.636,1.045 20.795,-3.965 C 65.74,80.262 68.833,72.105 70.225,66.242 72.794,55.425 71.699,42.686 67.368,32.996 67.22,32.672 67.063,32.356 66.91,32.037 Z"
       id="path3618"
       inkscape:connector-curvature="0"
       style="fill:none" /><path
       d="m 71.739,33.13 c 0.158,-0.123 0.306,-0.264 0.426,-0.438 0.492,-0.716 0.452,-1.639 -0.033,-2.304 -0.149,-0.446 -0.375,-1.566 -0.502,-2.193 -0.203,-1.012 -0.327,-1.604 -0.484,-2.02 -0.545,-1.431 -1.236,-2.74 -1.955,-4.066 -1.378,-2.538 -3.178,-4.752 -5.355,-6.58 -2.308,-1.936 -5.689,-2.713 -8.63,-2.205 C 54.705,9.868 52.305,6.571 48.922,5.154 48.39,4.931 47.789,4.95 47.271,5.205 c -0.743,0.366 -1.323,0.842 -1.835,1.262 -0.395,0.324 -0.737,0.604 -1.068,0.768 -0.63,0.31 -1.05,0.929 -1.106,1.63 -0.055,0.7 0.262,1.378 0.835,1.783 1.042,0.738 2.27,2.583 3.108,4.343 -3.976,0.341 -7.776,1.272 -10.224,4.445 -2.912,3.777 -4.037,8.811 -3.009,13.468 0.131,0.595 0.528,1.098 1.077,1.364 0.35,0.17 0.736,0.219 1.112,0.173 -0.118,2.091 -0.104,4.093 -0.07,5.727 l 0.011,0.458 c 0.114,5.208 0.231,10.592 -1.773,15.146 -0.987,2.242 -2.469,4.269 -4.037,6.416 -2.06,2.817 -4.188,5.729 -5.228,9.279 -0.732,2.491 -0.826,5.114 -0.279,7.795 1.274,6.259 5.919,11.839 11.836,14.217 C 39.167,94.503 41.92,95 44.728,95 50.513,95 56.523,92.887 61.415,88.909 69.119,82.647 72.565,73.626 74.1,67.161 76.708,56.175 75.788,43.329 71.739,33.13 Z M 51.314,14.453 c -0.654,-1.63 -1.665,-3.512 -2.864,-5.032 1.659,1.154 2.787,3.145 2.864,5.032 z M 40.136,21.87 c 1.954,-2.534 5.985,-2.9 9.947,-3.058 0.597,-0.023 1.152,-0.314 1.512,-0.791 0.082,-0.108 0.151,-0.222 0.207,-0.341 0.055,0.05 0.114,0.095 0.175,0.139 0.666,0.472 1.554,0.488 2.237,0.046 2.062,-1.337 5.374,-0.697 7.059,0.717 1.766,1.484 3.293,3.361 4.415,5.428 0.652,1.202 1.275,2.382 1.726,3.566 0.026,0.079 0.066,0.243 0.11,0.445 -1.048,-0.384 -1.97,-0.764 -2.812,-1.46 -1.038,-0.859 -3.466,-2.872 -4.329,-4.767 -0.431,-0.947 -1.523,-1.402 -2.497,-1.045 -0.978,0.357 -1.516,1.407 -1.235,2.41 0.774,2.756 0.704,6.002 -0.125,8.795 -2.28,-1.892 -3.919,-4.516 -4.363,-7.126 -0.17,-0.999 -1.069,-1.718 -2.074,-1.655 -1.012,0.056 -1.82,0.862 -1.88,1.874 -0.176,3.046 -1.123,6.259 -2.606,8.986 -1.747,-2.379 -2.694,-5.262 -2.687,-8.258 0.035,-0.375 0.048,-0.75 0.036,-1.127 -0.033,-1.062 -0.893,-1.912 -1.955,-1.931 -1.063,-0.002 -1.953,0.798 -2.025,1.857 -0.022,0.332 -0.036,0.663 -0.041,0.993 -0.133,1.091 -0.601,2.154 -1.324,3.069 0.158,-2.438 1.03,-4.822 2.529,-6.766 z m 30.086,44.37 c -1.391,5.864 -4.485,14.02 -11.321,19.576 -6.159,5.009 -14.327,6.562 -20.795,3.965 -4.708,-1.892 -8.405,-6.333 -9.418,-11.315 -0.415,-2.038 -0.349,-4.016 0.197,-5.878 0.845,-2.883 2.679,-5.393 4.621,-8.05 1.626,-2.224 3.307,-4.524 4.468,-7.162 2.359,-5.363 2.232,-11.196 2.109,-16.838 l -0.01,-0.457 c -0.045,-2.09 -0.056,-4.808 0.228,-7.457 0.946,2.293 2.346,4.399 4.195,6.153 0.372,0.352 0.863,0.547 1.371,0.547 0.059,0 0.12,-0.003 0.18,-0.008 0.57,-0.053 1.091,-0.346 1.428,-0.809 1.441,-1.97 2.615,-4.31 3.435,-6.769 1.439,2.009 3.35,3.753 5.566,5.006 0.474,0.268 1.04,0.331 1.561,0.171 0.522,-0.16 0.956,-0.526 1.201,-1.014 1.071,-2.139 1.709,-4.627 1.887,-7.159 0.348,0.305 0.698,0.599 1.042,0.884 1.489,1.234 3.049,1.797 4.426,2.293 0.108,0.039 0.209,0.077 0.314,0.116 0.153,0.319 0.31,0.635 0.454,0.958 4.335,9.692 5.43,22.431 2.861,33.247 z"
       id="path3620"
       inkscape:connector-curvature="0" /></g></svg>