<?xml version="1.0" encoding="UTF-8" standalone="no"?>
<svg
   xmlns:dc="http://purl.org/dc/elements/1.1/"
   xmlns:cc="http://creativecommons.org/ns#"
   xmlns:rdf="http://www.w3.org/1999/02/22-rdf-syntax-ns#"
   xmlns:svg="http://www.w3.org/2000/svg"
   xmlns="http://www.w3.org/2000/svg"
   xmlns:sodipodi="http://sodipodi.sourceforge.net/DTD/sodipodi-0.dtd"
   xmlns:inkscape="http://www.inkscape.org/namespaces/inkscape"
   version="1.1"
   x="0px"
   y="0px"
   viewBox="0 0 89.999489 78.156685"
   enable-background="new 0 0 100 100"
   xml:space="preserve"
   id="root"
   inkscape:version="0.91 r13725"
   sodipodi:docname="garlic.svg"
   width="89.999489"
   height="78.156685"><metadata
     id="metadata22"><rdf:RDF><cc:Work
         rdf:about=""><dc:format>image/svg+xml</dc:format><dc:type
           rdf:resource="http://purl.org/dc/dcmitype/StillImage" /><dc:title></dc:title></cc:Work></rdf:RDF></metadata><defs
     id="defs20" /><sodipodi:namedview
     pagecolor="#ffffff"
     bordercolor="#666666"
     borderopacity="1"
     objecttolerance="10"
     gridtolerance="10"
     guidetolerance="10"
     inkscape:pageopacity="0"
     inkscape:pageshadow="2"
     inkscape:window-width="748"
     inkscape:window-height="480"
     id="namedview18"
     showgrid="false"
     fit-margin-top="0"
     fit-margin-left="0"
     fit-margin-right="0"
     fit-margin-bottom="0"
     inkscape:zoom="1.888"
     inkscape:cx="45.000028"
     inkscape:cy="26.58"
     inkscape:window-x="65"
     inkscape:window-y="24"
     inkscape:window-maximized="0"
     inkscape:current-layer="root" /><g
     id="g4"
     transform="translate(-4.999972,-10.923317)"><path
       d="m 72.786,70.251 c 4.387,-9.3 0.313,-18.958 -2.507,-23.885 0,-0.002 -10e-4,-0.004 -0.002,-0.004 -3.374,-5.92 -7.962,-10.783 -12.819,-15.934 -1.885,-1.999 -3.835,-4.066 -5.705,-6.198 -0.12,-0.136 -0.225,-0.264 -0.342,-0.399 -0.03,-0.033 -0.058,-0.066 -0.086,-0.101 -0.392,-0.453 -0.786,-0.906 -1.153,-1.344 -0.318,0.597 -0.658,1.196 -1.016,1.796 -0.008,0.015 -0.018,0.028 -0.027,0.043 -0.305,0.511 -0.62,1.023 -0.955,1.539 -2.342,3.605 -5.147,6.869 -7.859,10.029 -2.759,3.213 -5.612,6.533 -8.072,10.3 -3.019,4.623 -7.599,13.739 -4.354,22.877 0.906,2.554 2.543,5.056 4.732,7.233 4.285,4.265 10.243,6.89 16.347,7.204 6.8,0.321 13.9,-2.203 18.995,-6.823 2.1,-1.905 3.768,-4.095 4.823,-6.333 z"
       id="path6"
       inkscape:connector-curvature="0"
       style="fill:none" /><path
       d="m 22.575,70.859 c -3.008,-8.47 -1.25,-18.359 4.947,-27.848 1.033,-1.58 2.113,-3.067 3.215,-4.493 -1.13,0.637 -2.265,1.255 -3.393,1.864 l -1.295,0.703 c -4.931,2.684 -9.995,5.691 -12.98,10.29 -2.42,3.728 -3.07,8.635 -1.787,13.46 1.284,4.826 4.287,8.758 8.24,10.792 2.845,1.464 4.456,1.985 6.729,1.852 -1.604,-2.08 -2.86,-4.321 -3.676,-6.62 z"
       id="path8"
       inkscape:connector-curvature="0"
       style="fill:none" /><path
       d="m 73.95,41.085 -0.459,-0.249 c 0.584,0.891 1.152,1.797 1.685,2.733 5.806,10.154 6.768,20.483 2.71,29.088 -0.781,1.658 -1.785,3.245 -2.985,4.752 1.765,-0.103 3.355,-0.639 5.576,-1.782 3.952,-2.034 6.956,-5.966 8.24,-10.791 C 90,60.01 89.35,55.105 86.93,51.374 83.947,46.776 78.882,43.771 73.95,41.085 Z"
       id="path10"
       inkscape:connector-curvature="0"
       style="fill:none" /><path
       d="M 91.661,48.305 C 87.96,42.599 81.971,39.031 76.647,36.132 L 75.34,35.424 c -4.859,-2.629 -9.45,-5.111 -12.8,-8.896 -3.198,-3.615 -4.609,-8.34 -3.594,-12.039 0.398,-1.454 -0.417,-2.963 -1.851,-3.427 -1.432,-0.466 -2.979,0.279 -3.508,1.693 -0.449,1.197 -0.838,2.296 -1.206,3.37 -0.2,-0.262 -0.403,-0.525 -0.594,-0.783 -0.614,-0.828 -1.633,-1.256 -2.654,-1.114 -0.72,0.1 -1.351,0.481 -1.794,1.03 -0.277,-0.77 -0.581,-1.587 -0.923,-2.502 -0.53,-1.413 -2.073,-2.162 -3.509,-1.693 -1.435,0.464 -2.25,1.974 -1.851,3.427 1.014,3.699 -0.397,8.424 -3.594,12.039 -3.35,3.784 -7.94,6.267 -12.799,8.894 l -1.309,0.71 C 18.031,39.03 12.043,42.6 8.34,48.306 5.053,53.37 4.14,59.922 5.833,66.284 c 1.693,6.363 5.742,11.597 11.11,14.358 3.504,1.803 5.937,2.502 8.61,2.502 1.667,0 3.434,-0.275 5.606,-0.72 4.953,3.912 11.171,6.291 17.52,6.617 0.501,0.026 1.002,0.039 1.505,0.039 6.857,0 13.841,-2.362 19.376,-6.512 1.734,0.31 3.267,0.498 4.724,0.498 2.806,0 5.375,-0.676 8.771,-2.423 5.368,-2.761 9.417,-7.995 11.11,-14.356 C 95.86,59.924 94.947,53.37 91.661,48.305 Z M 19.522,75.627 c -3.952,-2.034 -6.956,-5.966 -8.24,-10.792 -1.283,-4.824 -0.632,-9.731 1.787,-13.46 2.985,-4.599 8.049,-7.606 12.98,-10.29 l 1.295,-0.703 c 1.128,-0.61 2.264,-1.228 3.393,-1.864 -1.103,1.426 -2.183,2.913 -3.215,4.493 -6.198,9.489 -7.955,19.378 -4.947,27.848 0.816,2.299 2.072,4.54 3.676,6.619 -2.273,0.133 -3.884,-0.388 -6.729,-1.851 z m 29.446,7.781 c -6.105,-0.314 -12.063,-2.939 -16.347,-7.204 -2.189,-2.177 -3.826,-4.679 -4.732,-7.233 -3.245,-9.138 1.336,-18.255 4.354,-22.877 2.46,-3.767 5.313,-7.088 8.072,-10.3 2.712,-3.159 5.516,-6.423 7.859,-10.029 0.335,-0.516 0.65,-1.028 0.955,-1.539 0.009,-0.015 0.018,-0.028 0.027,-0.043 0.357,-0.6 0.698,-1.199 1.016,-1.796 0.367,0.438 0.76,0.891 1.153,1.344 0.028,0.035 0.057,0.068 0.086,0.101 0.117,0.135 0.223,0.263 0.342,0.399 1.87,2.131 3.819,4.198 5.705,6.198 4.857,5.151 9.445,10.014 12.819,15.934 0.001,0 0.002,0.002 0.002,0.004 2.82,4.927 6.893,14.585 2.507,23.885 -1.055,2.238 -2.722,4.428 -4.823,6.333 -5.094,4.62 -12.195,7.145 -18.995,6.823 z M 88.717,64.836 c -1.284,4.824 -4.287,8.757 -8.24,10.791 -2.221,1.143 -3.811,1.679 -5.576,1.782 1.2,-1.507 2.204,-3.094 2.985,-4.752 4.059,-8.604 3.096,-18.934 -2.71,-29.088 -0.534,-0.936 -1.101,-1.842 -1.685,-2.733 l 0.459,0.249 c 4.932,2.686 9.997,5.691 12.98,10.29 2.42,3.73 3.07,8.635 1.787,13.461 z"
       id="path12"
       inkscape:connector-curvature="0" /></g></svg>