<?xml version="1.0" encoding="UTF-8" standalone="no"?>
<svg
   xmlns:dc="http://purl.org/dc/elements/1.1/"
   xmlns:cc="http://creativecommons.org/ns#"
   xmlns:rdf="http://www.w3.org/1999/02/22-rdf-syntax-ns#"
   xmlns:svg="http://www.w3.org/2000/svg"
   xmlns="http://www.w3.org/2000/svg"
   xmlns:sodipodi="http://sodipodi.sourceforge.net/DTD/sodipodi-0.dtd"
   xmlns:inkscape="http://www.inkscape.org/namespaces/inkscape"
   version="1.1"
   x="0px"
   y="0px"
   viewBox="0 0 89.998642 71.785652"
   enable-background="new 0 0 100 100"
   xml:space="preserve"
   id="root"
   inkscape:version="0.91 r13725"
   sodipodi:docname="lemon.svg"
   width="89.998642"
   height="71.785652"><metadata
     id="metadata18"><rdf:RDF><cc:Work
         rdf:about=""><dc:format>image/svg+xml</dc:format><dc:type
           rdf:resource="http://purl.org/dc/dcmitype/StillImage" /><dc:title></dc:title></cc:Work></rdf:RDF></metadata><defs
     id="defs16" /><sodipodi:namedview
     pagecolor="#ffffff"
     bordercolor="#666666"
     borderopacity="1"
     objecttolerance="10"
     gridtolerance="10"
     guidetolerance="10"
     inkscape:pageopacity="0"
     inkscape:pageshadow="2"
     inkscape:window-width="748"
     inkscape:window-height="480"
     id="namedview14"
     showgrid="false"
     fit-margin-top="0"
     fit-margin-left="0"
     fit-margin-right="0"
     fit-margin-bottom="0"
     inkscape:zoom="1.888"
     inkscape:cx="44.9984"
     inkscape:cy="23.393"
     inkscape:window-x="65"
     inkscape:window-y="24"
     inkscape:window-maximized="0"
     inkscape:current-layer="root" /><g
     id="g4"
     transform="translate(-5.0015997,-14.107347)"><path
       d="M 86.187,53.037 C 85.144,52.269 83.567,51.11 81.532,48.922 77.314,44.384 73.983,38.63 73.231,37.292 68.046,30.373 65.091,28.597 65.061,28.581 64.956,28.528 64.96,28.526 64.86,28.464 57.911,24.133 52.14,22.53 47.316,22.53 c -8.923,0 -14.613,5.474 -18.575,9.284 -0.728,0.7 -1.381,1.326 -1.961,1.835 -5.621,4.938 -12.538,10.049 -12.83,10.265 -0.327,0.263 -0.536,0.558 -0.541,0.683 -0.024,0.501 0.666,1.492 0.964,1.778 1.944,1.72 4.652,4.626 4.766,4.75 0.194,0.207 0.365,0.435 0.513,0.677 4.096,6.73 13.109,16.724 13.199,16.823 6.044,6.168 12.398,9.159 18.753,8.834 C 62.345,76.872 70.357,67.048 71.236,65.93 74.922,61.234 82.902,55.87 83.8,55.273 c 0.196,-0.129 0.402,-0.244 0.618,-0.339 1.433,-0.638 1.965,-1.197 2.136,-1.422 -0.006,-0.074 -0.01,-0.146 -0.013,-0.218 -0.109,-0.08 -0.227,-0.162 -0.354,-0.257 z"
       id="path6"
       inkscape:connector-curvature="0"
       style="fill:none" /><path
       d="M 94.938,52.736 C 94.798,48.937 92.793,47.461 91.171,46.268 90.287,45.617 89.187,44.807 87.69,43.195 83.721,38.928 80.493,33.049 80.46,32.992 80.366,32.82 80.259,32.651 80.141,32.493 74.166,24.467 70.327,21.902 69.214,21.272 43.912,5.56 29.201,19.708 22.914,25.755 c -0.626,0.601 -1.184,1.141 -1.683,1.578 -5.346,4.696 -12.204,9.764 -12.387,9.904 -3.01,2.385 -3.746,5.105 -3.833,6.966 -0.21,4.51 3.163,7.876 3.666,8.352 1.413,1.254 3.322,3.251 4.029,4 4.589,7.375 13.527,17.287 14.025,17.831 7.484,7.642 15.498,11.507 23.847,11.507 0.494,0 0.99,-0.012 1.486,-0.041 C 66.2,85.08 76.023,73.446 77.849,71.123 c 2.323,-2.96 8.004,-7.092 10.335,-8.666 6.03,-2.825 7.116,-7.137 6.754,-9.721 z m -10.521,2.198 c -0.216,0.094 -0.422,0.209 -0.618,0.339 C 82.901,55.87 74.922,61.234 71.235,65.93 70.356,67.049 62.344,76.872 51.603,77.459 45.247,77.783 38.893,74.793 32.85,68.625 32.76,68.527 23.747,58.533 19.651,51.802 c -0.148,-0.242 -0.319,-0.47 -0.513,-0.677 -0.114,-0.123 -2.822,-3.03 -4.766,-4.75 -0.298,-0.285 -0.987,-1.277 -0.964,-1.778 0.005,-0.125 0.214,-0.421 0.541,-0.683 0.292,-0.215 7.209,-5.326 12.83,-10.265 0.58,-0.509 1.234,-1.135 1.961,-1.835 3.961,-3.81 9.652,-9.284 18.575,-9.284 4.825,0 10.595,1.603 17.544,5.934 0.101,0.062 0.096,0.064 0.201,0.117 0.03,0.016 2.985,1.792 8.17,8.711 0.751,1.338 4.083,7.092 8.301,11.63 2.035,2.188 3.613,3.348 4.655,4.115 0.127,0.094 0.245,0.177 0.353,0.257 0.003,0.072 0.007,0.144 0.013,0.218 -0.169,0.225 -0.702,0.784 -2.135,1.422 z"
       id="path8"
       inkscape:connector-curvature="0" /></g></svg>