<?xml version="1.0" encoding="UTF-8" standalone="no"?>
<svg
   xmlns:dc="http://purl.org/dc/elements/1.1/"
   xmlns:cc="http://creativecommons.org/ns#"
   xmlns:rdf="http://www.w3.org/1999/02/22-rdf-syntax-ns#"
   xmlns:svg="http://www.w3.org/2000/svg"
   xmlns="http://www.w3.org/2000/svg"
   xmlns:sodipodi="http://sodipodi.sourceforge.net/DTD/sodipodi-0.dtd"
   xmlns:inkscape="http://www.inkscape.org/namespaces/inkscape"
   version="1.1"
   x="0px"
   y="0px"
   viewBox="0 0 68.628654 89.999977"
   enable-background="new 0 0 100 100"
   xml:space="preserve"
   id="root"
   inkscape:version="0.91 r13725"
   sodipodi:docname="mango.svg"
   width="68.628654"
   height="89.999977"><metadata
     id="metadata18"><rdf:RDF><cc:Work
         rdf:about=""><dc:format>image/svg+xml</dc:format><dc:type
           rdf:resource="http://purl.org/dc/dcmitype/StillImage" /><dc:title></dc:title></cc:Work></rdf:RDF></metadata><defs
     id="defs16" /><sodipodi:namedview
     pagecolor="#ffffff"
     bordercolor="#666666"
     borderopacity="1"
     objecttolerance="10"
     gridtolerance="10"
     guidetolerance="10"
     inkscape:pageopacity="0"
     inkscape:pageshadow="2"
     inkscape:window-width="748"
     inkscape:window-height="480"
     id="namedview14"
     showgrid="false"
     fit-margin-top="0"
     fit-margin-left="0"
     fit-margin-right="0"
     fit-margin-bottom="0"
     inkscape:zoom="1.888"
     inkscape:cx="34.314489"
     inkscape:cy="32.5"
     inkscape:window-x="65"
     inkscape:window-y="24"
     inkscape:window-maximized="0"
     inkscape:current-layer="root" /><g
     id="g4"
     transform="translate(-15.685511,-5.0000235)"><path
       d="M 74.846,70.513 C 62.768,62.859 63.135,52.045 63.156,51.589 63.159,51.524 63.165,51.46 63.173,51.395 66.1,29.242 58.451,18.631 58.374,18.528 58.294,18.421 58.217,18.298 58.158,18.18 52.748,7.411 37.493,9.819 36.585,9.974 c -0.144,0.034 -0.272,0.086 -0.415,0.123 0.297,0.105 0.577,0.256 0.826,0.455 l 0.046,0.029 c 0.288,0.176 0.543,0.299 0.856,0.431 0.134,0.054 0.326,0.131 0.532,0.198 0.21,0.071 0.41,0.125 0.619,0.173 0.41,0.102 0.864,0.167 1.388,0.204 0.143,0 0.285,0.006 0.428,0.012 0.094,0.003 0.185,0.012 0.283,0.008 0.14,-0.014 0.333,-0.021 0.525,-0.027 0.092,-0.003 0.182,-0.002 0.27,-0.012 0.287,-0.039 0.576,-0.069 0.856,-0.095 0.269,-0.05 0.526,-0.095 0.768,-0.131 0.284,-0.038 0.509,-0.09 0.698,-0.132 l 0.405,-0.086 c 0.337,-0.071 0.564,-0.101 0.564,-0.101 1.244,-0.17 2.378,0.399 2.962,1.423 0.382,0.663 0.483,1.444 0.281,2.19 -0.203,0.746 -0.683,1.367 -1.354,1.752 -0.005,0.003 -0.207,0.12 -0.575,0.3 l -0.299,0.143 c -0.29,0.147 -0.728,0.368 -1.289,0.533 -0.191,0.069 -0.511,0.177 -0.854,0.278 -0.483,0.114 -0.847,0.192 -1.226,0.261 -0.357,0.068 -0.745,0.102 -1.138,0.132 l -0.173,0.014 c -0.193,0.015 -0.386,0.02 -0.579,0.02 -0.169,0 -0.338,-0.003 -0.507,-0.009 l -0.272,-0.006 c -0.054,-0.002 -0.108,-0.005 -0.162,-0.009 -1.067,-0.092 -1.978,-0.278 -2.785,-0.569 -0.685,-0.215 -1.443,-0.578 -2.232,-1.082 -0.673,-0.44 -1.139,-0.89 -1.418,-1.159 -0.154,-0.161 -0.344,-0.359 -0.52,-0.593 -0.468,-0.53 -0.717,-1.207 -0.704,-1.918 0.009,-0.544 0.175,-1.057 0.466,-1.501 -5.321,2.247 -9.033,6.316 -11.005,12.203 -4.472,13.344 1.116,34.164 12.998,48.429 12.345,14.822 27.665,19.868 36.685,18.271 2.617,-0.461 5.992,-1.719 7.204,-5.089 3.495,-9.722 -3.589,-14.332 -3.892,-14.524 z"
       id="path6"
       inkscape:connector-curvature="0"
       style="fill:none" /><path
       d="M 77.298,66.609 C 67.958,60.689 67.753,52.769 67.761,51.878 70.735,29.131 63.348,17.583 62.193,15.941 55.016,1.976 36.481,5.301 35.692,5.449 35.659,5.455 35.627,5.461 35.595,5.469 26.657,7.558 20.391,13.261 17.477,21.96 12.458,36.936 18.274,59.161 31.305,74.805 43.184,89.068 57.923,95 68.301,95 c 1.434,0 2.784,-0.114 4.033,-0.335 5.398,-0.952 9.213,-3.817 10.742,-8.068 3.832,-10.655 -2.122,-17.746 -5.778,-19.988 z m 1.438,18.427 c -1.211,3.37 -4.587,4.628 -7.204,5.089 C 62.512,91.722 47.191,86.676 34.847,71.854 22.966,57.589 17.378,36.769 21.85,23.425 c 1.972,-5.887 5.685,-9.956 11.005,-12.203 -0.291,0.444 -0.457,0.957 -0.466,1.501 -0.013,0.712 0.236,1.388 0.704,1.918 0.176,0.234 0.366,0.432 0.52,0.593 0.278,0.269 0.745,0.719 1.418,1.159 0.789,0.504 1.547,0.868 2.232,1.082 0.807,0.291 1.718,0.477 2.785,0.569 0.054,0.005 0.108,0.008 0.162,0.009 l 0.272,0.006 c 0.17,0.006 0.338,0.009 0.507,0.009 0.193,0 0.386,-0.005 0.579,-0.02 l 0.173,-0.014 c 0.393,-0.03 0.781,-0.065 1.138,-0.132 0.379,-0.069 0.742,-0.147 1.226,-0.261 0.343,-0.101 0.663,-0.209 0.854,-0.278 0.561,-0.165 1,-0.386 1.289,-0.533 l 0.299,-0.143 c 0.368,-0.18 0.57,-0.297 0.575,-0.3 0.671,-0.384 1.151,-1.006 1.354,-1.752 0.202,-0.746 0.101,-1.527 -0.281,-2.19 -0.584,-1.024 -1.718,-1.593 -2.962,-1.423 0,0 -0.227,0.03 -0.564,0.101 l -0.405,0.086 c -0.189,0.042 -0.414,0.095 -0.698,0.132 -0.242,0.036 -0.498,0.081 -0.768,0.131 -0.279,0.026 -0.568,0.056 -0.856,0.095 -0.089,0.011 -0.179,0.009 -0.27,0.012 -0.191,0.006 -0.385,0.014 -0.525,0.027 -0.098,0.005 -0.189,-0.005 -0.283,-0.008 C 40.721,11.592 40.579,11.586 40.436,11.586 39.912,11.548 39.458,11.484 39.048,11.382 38.839,11.334 38.639,11.28 38.429,11.209 38.223,11.141 38.031,11.065 37.897,11.011 37.585,10.879 37.33,10.756 37.041,10.58 l -0.046,-0.029 c -0.249,-0.199 -0.529,-0.351 -0.826,-0.455 0.142,-0.036 0.271,-0.088 0.415,-0.123 0.907,-0.155 16.163,-2.562 21.573,8.206 0.059,0.119 0.137,0.242 0.216,0.348 0.077,0.104 7.726,10.715 4.799,32.867 -0.008,0.065 -0.014,0.129 -0.017,0.194 -0.021,0.456 -0.388,11.27 11.69,18.924 0.304,0.193 7.388,4.803 3.891,14.524 z"
       id="path8"
       inkscape:connector-curvature="0" /></g></svg>