<?xml version="1.0" encoding="UTF-8" standalone="no"?>
<svg
   xmlns:dc="http://purl.org/dc/elements/1.1/"
   xmlns:cc="http://creativecommons.org/ns#"
   xmlns:rdf="http://www.w3.org/1999/02/22-rdf-syntax-ns#"
   xmlns:svg="http://www.w3.org/2000/svg"
   xmlns="http://www.w3.org/2000/svg"
   xmlns:sodipodi="http://sodipodi.sourceforge.net/DTD/sodipodi-0.dtd"
   xmlns:inkscape="http://www.inkscape.org/namespaces/inkscape"
   version="1.1"
   x="0px"
   y="0px"
   viewBox="0 0 90.000534 82.79174"
   enable-background="new 0 0 100 100"
   xml:space="preserve"
   id="root"
   inkscape:version="0.91 r13725"
   sodipodi:docname="mushroom.svg"
   width="90.000534"
   height="82.79174"><metadata
     id="metadata18"><rdf:RDF><cc:Work
         rdf:about=""><dc:format>image/svg+xml</dc:format><dc:type
           rdf:resource="http://purl.org/dc/dcmitype/StillImage" /><dc:title></dc:title></cc:Work></rdf:RDF></metadata><defs
     id="defs16" /><sodipodi:namedview
     pagecolor="#ffffff"
     bordercolor="#666666"
     borderopacity="1"
     objecttolerance="10"
     gridtolerance="10"
     guidetolerance="10"
     inkscape:pageopacity="0"
     inkscape:pageshadow="2"
     inkscape:window-width="748"
     inkscape:window-height="480"
     id="namedview14"
     showgrid="false"
     fit-margin-top="0"
     fit-margin-left="0"
     fit-margin-right="0"
     fit-margin-bottom="0"
     inkscape:zoom="1.888"
     inkscape:cx="45.000156"
     inkscape:cy="7.7100548"
     inkscape:window-x="65"
     inkscape:window-y="24"
     inkscape:window-maximized="0"
     inkscape:current-layer="root" /><g
     id="g4"
     transform="translate(-4.9998442,-8.6047521)"><path
       d="m 52.882,17.035 c -5.302,0.31 -11.891,2.383 -18.076,5.685 -0.002,0 -0.002,0 -0.002,0 -11.671,6.224 -24.153,18.126 -20.907,31.175 0.914,3.678 3.792,7.441 7.017,7.448 0.898,-0.006 1.788,0.074 2.665,0.16 1.025,0.101 2.086,0.204 2.439,-0.011 0.937,-0.572 1.587,-1.736 1.58,-2.832 -0.005,-0.743 -0.238,-1.724 -0.484,-2.762 -0.589,-2.484 -1.396,-5.887 0.495,-9.173 1.24,-2.153 3.354,-3.601 5.955,-4.078 2.976,-0.55 6.133,0.252 8.441,2.143 2.887,2.36 4.594,5.952 5.221,10.98 1.094,8.792 -1.094,17.974 -5.915,25.408 5.519,2.52 12.012,2.464 16.825,-0.218 -2.957,-9.5 -4.883,-19.444 -5.341,-27.707 -0.174,-3.155 -0.241,-6.816 1.173,-10.374 1.792,-4.52 5.729,-7.607 10.031,-7.86 5.936,-0.348 10.406,4.434 11.783,9.326 0.878,3.108 0.738,6.231 0.357,9.049 1.233,0.222 2.553,0.165 3.885,-0.222 2.433,-0.715 4.485,-2.43 5.487,-4.589 2.142,-4.62 1.132,-11.075 -2.576,-16.442 C 75.818,21.836 64.877,16.324 52.882,17.035 Z"
       id="path6"
       inkscape:connector-curvature="0"
       style="fill:none" /><path
       d="M 89.821,27.386 C 81.005,14.618 67.362,7.798 52.391,8.681 45.831,9.067 38.187,11.431 30.866,15.337 16.537,22.977 1.369,38.19 5.776,55.912 c 1.658,6.68 7.113,13.838 15.186,13.798 0.607,-0.003 1.208,0.064 1.8,0.121 2.055,0.202 4.869,0.478 7.612,-1.195 3.421,-2.086 5.616,-6.025 5.59,-10.031 -0.011,-1.695 -0.383,-3.258 -0.709,-4.639 -0.252,-1.058 -0.633,-2.657 -0.453,-2.999 0.279,-0.201 1.312,-0.183 1.905,0.301 1.126,0.921 1.871,2.785 2.214,5.538 1.008,8.114 -1.572,16.658 -6.902,22.856 -0.754,0.877 -1.112,2.03 -0.987,3.182 0.125,1.151 0.723,2.199 1.65,2.895 3.935,2.949 8.519,4.746 13.167,5.389 7.198,0.995 14.557,-0.775 19.925,-5.318 1.31,-1.108 1.81,-2.905 1.26,-4.532 -3.273,-9.69 -5.419,-20.073 -5.885,-28.486 -0.124,-2.263 -0.192,-4.844 0.596,-6.826 0.563,-1.419 1.743,-2.535 2.741,-2.593 1.248,-0.063 2.739,1.447 3.243,3.243 0.717,2.543 0.166,5.63 -0.367,8.615 -0.299,1.672 0.443,3.359 1.876,4.269 3.803,2.415 8.595,3.032 13.143,1.702 4.783,-1.405 8.689,-4.719 10.72,-9.097 3.419,-7.368 2.161,-16.841 -3.28,-24.719 z m -4.31,21.198 c -1.002,2.159 -3.054,3.873 -5.487,4.589 -1.332,0.387 -2.652,0.444 -3.885,0.222 0.381,-2.818 0.521,-5.942 -0.357,-9.049 -1.377,-4.892 -5.847,-9.674 -11.783,-9.326 -4.302,0.253 -8.239,3.34 -10.031,7.86 -1.414,3.558 -1.347,7.219 -1.173,10.374 0.457,8.263 2.384,18.208 5.341,27.707 -4.813,2.681 -11.307,2.738 -16.825,0.218 4.821,-7.434 7.008,-16.616 5.915,-25.408 -0.626,-5.028 -2.334,-8.619 -5.221,-10.98 -2.308,-1.891 -5.466,-2.693 -8.441,-2.143 -2.601,0.478 -4.715,1.926 -5.955,4.078 -1.892,3.285 -1.084,6.689 -0.495,9.173 0.246,1.038 0.48,2.019 0.484,2.762 0.007,1.096 -0.643,2.26 -1.58,2.832 -0.354,0.215 -1.414,0.112 -2.439,0.011 -0.877,-0.086 -1.767,-0.166 -2.665,-0.16 -3.224,-0.007 -6.103,-3.771 -7.017,-7.448 -3.246,-13.049 9.236,-24.951 20.907,-31.175 0,0 0,0 0.002,0 6.186,-3.302 12.775,-5.375 18.076,-5.685 11.995,-0.71 22.937,4.802 30.053,15.107 3.708,5.367 4.718,11.821 2.576,16.441 z"
       id="path8"
       inkscape:connector-curvature="0" /></g></svg>