<?xml version="1.0" encoding="UTF-8" standalone="no"?>
<svg
   xmlns:dc="http://purl.org/dc/elements/1.1/"
   xmlns:cc="http://creativecommons.org/ns#"
   xmlns:rdf="http://www.w3.org/1999/02/22-rdf-syntax-ns#"
   xmlns:svg="http://www.w3.org/2000/svg"
   xmlns="http://www.w3.org/2000/svg"
   xmlns:sodipodi="http://sodipodi.sourceforge.net/DTD/sodipodi-0.dtd"
   xmlns:inkscape="http://www.inkscape.org/namespaces/inkscape"
   version="1.1"
   x="0px"
   y="0px"
   viewBox="0 0 74.434517 89.999222"
   enable-background="new 0 0 100 100"
   xml:space="preserve"
   id="root"
   inkscape:version="0.91 r13725"
   sodipodi:docname="orange.svg"
   width="74.434517"
   height="89.999222"><metadata
     id="metadata22"><rdf:RDF><cc:Work
         rdf:about=""><dc:format>image/svg+xml</dc:format><dc:type
           rdf:resource="http://purl.org/dc/dcmitype/StillImage" /><dc:title></dc:title></cc:Work></rdf:RDF></metadata><defs
     id="defs20" /><sodipodi:namedview
     pagecolor="#ffffff"
     bordercolor="#666666"
     borderopacity="1"
     objecttolerance="10"
     gridtolerance="10"
     guidetolerance="10"
     inkscape:pageopacity="0"
     inkscape:pageshadow="2"
     inkscape:window-width="748"
     inkscape:window-height="480"
     id="namedview18"
     showgrid="false"
     fit-margin-top="0"
     fit-margin-left="0"
     fit-margin-right="0"
     fit-margin-bottom="0"
     inkscape:zoom="1.888"
     inkscape:cx="37.217037"
     inkscape:cy="32.5"
     inkscape:window-x="75"
     inkscape:window-y="34"
     inkscape:window-maximized="0"
     inkscape:current-layer="root" /><g
     id="g4"
     transform="translate(-12.782963,-5.0007749)"><path
       d="M 47.08,23.742 C 47.227,23.21 47.39,22.7 47.561,22.201 46.983,19.709 44.137,10.208 34.245,9.947 c 0.84,3.549 3.637,10.179 12.835,13.795 z"
       id="path6"
       inkscape:connector-curvature="0"
       style="fill:none" /><path
       d="m 58.317,15.014 c -0.074,-0.037 -0.164,-0.063 -0.254,-0.08 -0.609,0.519 -1.64,1.492 -2.729,2.942 1.124,-1.256 2.175,-2.204 2.983,-2.862 z"
       id="path8"
       inkscape:connector-curvature="0"
       style="fill:none" /><path
       d="m 56.993,29.197 c -0.093,0 -0.178,-0.003 -0.262,-0.008 -0.82,-0.069 -1.609,-0.091 -2.411,-0.13 -0.206,0.568 -0.396,1.16 -0.569,1.776 0.076,-0.03 0.167,-0.064 0.229,-0.091 0.131,-0.058 0.226,-0.101 0.288,-0.13 1.296,-0.74 2.972,-0.374 3.832,0.877 0.874,1.275 0.591,3.007 -0.615,3.94 -0.106,0.088 -0.332,0.27 -0.649,0.483 -0.022,0.014 -0.173,0.111 -0.195,0.124 -0.362,0.228 -0.909,0.573 -1.628,0.879 -0.165,0.082 -0.464,0.196 -0.778,0.313 l -0.287,0.108 c -0.076,0.029 -0.154,0.055 -0.233,0.077 L 53.441,37.5 c -0.364,0.117 -0.743,0.23 -1.141,0.296 -0.358,0.087 -0.891,0.181 -1.438,0.233 -0.266,0.043 -0.683,0.061 -1.101,0.072 l -0.335,0.011 c -0.062,0.002 -0.123,0.002 -0.182,0.002 -0.357,0 -0.67,-0.021 -0.98,-0.045 l -0.396,-0.027 c -0.06,-0.003 -0.121,-0.008 -0.181,-0.014 -0.35,-0.043 -0.695,-0.104 -1.031,-0.165 L 46.312,37.804 C 45.796,37.688 45.44,37.584 45.098,37.483 L 44.883,37.419 C 44.579,37.335 44.265,37.212 43.968,37.09 l -0.236,-0.095 c -0.02,-0.008 -0.158,-0.063 -0.179,-0.071 -0.41,-0.162 -0.781,-0.326 -1.091,-0.52 l -0.345,-0.185 c -0.005,-0.003 -0.149,-0.082 -0.153,-0.084 -0.398,-0.222 -0.618,-0.36 -0.618,-0.36 -0.664,-0.41 -1.133,-1.058 -1.314,-1.824 -0.181,-0.766 -0.053,-1.556 0.361,-2.224 0.691,-1.124 2.061,-1.657 3.337,-1.275 0.051,0.014 0.289,0.085 0.692,0.225 l 1.323,0.429 c 0.019,0.002 0.161,0.045 0.304,0.088 0.012,0.004 0.025,0.007 0.037,0.01 0.003,-0.685 0.033,-1.348 0.079,-1.998 -28.337,2.714 -28.459,28.118 -28.449,29.219 0.246,27.054 16.21,31.169 31.793,31.626 15.318,0.403 26.346,-9.63 30.125,-19.183 1.649,-4.164 6.301,-18.773 -3.027,-31.93 -7.012,-9.887 -19.5,-9.744 -19.614,-9.741 z"
       id="path10"
       inkscape:connector-curvature="0"
       style="fill:none" /><path
       d="M 80.632,36.087 C 72.43,24.522 58.739,24.266 57.02,24.262 c -0.117,-0.01 -0.229,-0.009 -0.346,-0.018 2.618,-4.121 5.601,-6.052 5.795,-6.174 0.772,-0.477 1.22,-1.338 1.167,-2.244 -0.149,-2.521 -1.27,-3.912 -2.185,-4.635 -1.979,-1.564 -4.41,-1.19 -4.682,-1.144 -0.355,0.063 -0.692,0.202 -0.988,0.41 -0.216,0.152 -2.74,1.988 -5.161,5.577 C 47.764,10.06 41.775,3.874 31.119,5.176 29.861,5.329 28.924,6.409 28.95,7.677 28.953,7.807 29.313,18.372 39.452,25.294 12.892,31.462 12.78,58.176 12.783,58.47 13.071,90.244 33.8,94.526 49.366,94.982 49.745,94.994 50.12,95 50.495,95 67.591,94.998 79.924,83.549 84.223,72.684 89.238,60.012 87.896,46.33 80.632,36.087 Z M 58.063,14.934 c 0.09,0.018 0.18,0.043 0.254,0.08 -0.809,0.658 -1.859,1.606 -2.982,2.862 1.089,-1.45 2.12,-2.424 2.728,-2.942 z M 34.245,9.947 c 9.893,0.26 12.739,9.761 13.316,12.254 C 47.39,22.7 47.227,23.21 47.08,23.742 37.882,20.126 35.085,13.496 34.245,9.947 Z m 45.39,60.922 C 75.855,80.422 64.827,90.455 49.51,90.052 33.927,89.594 17.962,85.48 17.717,58.426 17.707,57.325 17.829,31.92 46.163,29.203 c -0.046,0.65 -0.076,1.313 -0.079,1.998 -0.012,-0.004 -0.025,-0.007 -0.037,-0.01 -0.144,-0.043 -0.285,-0.087 -0.304,-0.088 L 44.42,30.674 c -0.403,-0.14 -0.642,-0.21 -0.692,-0.225 -1.275,-0.382 -2.646,0.151 -3.337,1.275 -0.414,0.668 -0.543,1.458 -0.361,2.224 0.181,0.766 0.65,1.415 1.314,1.824 0,0 0.22,0.138 0.618,0.36 0.005,0.002 0.149,0.08 0.153,0.084 L 42.46,36.4 c 0.311,0.194 0.682,0.358 1.091,0.52 0.021,0.008 0.159,0.063 0.179,0.071 l 0.236,0.095 c 0.296,0.122 0.61,0.246 0.915,0.329 l 0.215,0.064 c 0.342,0.101 0.699,0.206 1.214,0.321 l 0.344,0.059 c 0.336,0.061 0.681,0.122 1.031,0.165 0.06,0.006 0.121,0.011 0.181,0.014 l 0.396,0.027 c 0.31,0.024 0.622,0.045 0.98,0.045 0.059,0 0.12,0 0.182,-0.002 l 0.335,-0.011 c 0.418,-0.011 0.835,-0.029 1.101,-0.072 0.548,-0.051 1.08,-0.146 1.438,-0.233 0.398,-0.066 0.777,-0.178 1.141,-0.296 l 0.274,-0.085 c 0.079,-0.022 0.157,-0.048 0.233,-0.077 l 0.287,-0.108 c 0.314,-0.117 0.613,-0.231 0.778,-0.313 0.719,-0.305 1.266,-0.65 1.628,-0.879 0.022,-0.013 0.173,-0.109 0.195,-0.124 0.317,-0.214 0.543,-0.395 0.649,-0.483 1.206,-0.933 1.49,-2.664 0.615,-3.94 -0.86,-1.251 -2.536,-1.617 -3.832,-0.877 -0.063,0.029 -0.157,0.072 -0.288,0.13 -0.061,0.027 -0.153,0.061 -0.229,0.091 0.174,-0.616 0.364,-1.208 0.569,-1.776 0.802,0.039 1.591,0.061 2.411,0.13 0.084,0.005 0.169,0.008 0.262,0.008 0.114,-0.003 12.602,-0.146 19.615,9.742 9.33,13.161 4.678,27.77 3.029,31.934 z"
       id="path12"
       inkscape:connector-curvature="0" /></g></svg>