<?xml version="1.0" encoding="UTF-8" standalone="no"?>
<svg
   xmlns:dc="http://purl.org/dc/elements/1.1/"
   xmlns:cc="http://creativecommons.org/ns#"
   xmlns:rdf="http://www.w3.org/1999/02/22-rdf-syntax-ns#"
   xmlns:svg="http://www.w3.org/2000/svg"
   xmlns="http://www.w3.org/2000/svg"
   xmlns:sodipodi="http://sodipodi.sourceforge.net/DTD/sodipodi-0.dtd"
   xmlns:inkscape="http://www.inkscape.org/namespaces/inkscape"
   version="1.1"
   x="0px"
   y="0px"
   viewBox="0 0 48.782551 90.000877"
   enable-background="new 0 0 100 100"
   xml:space="preserve"
   id="root"
   inkscape:version="0.91 r13725"
   sodipodi:docname="pear.svg"
   width="48.782551"
   height="90.000877"><metadata
     id="metadata20"><rdf:RDF><cc:Work
         rdf:about=""><dc:format>image/svg+xml</dc:format><dc:type
           rdf:resource="http://purl.org/dc/dcmitype/StillImage" /><dc:title></dc:title></cc:Work></rdf:RDF></metadata><defs
     id="defs18" /><sodipodi:namedview
     pagecolor="#ffffff"
     bordercolor="#666666"
     borderopacity="1"
     objecttolerance="10"
     gridtolerance="10"
     guidetolerance="10"
     inkscape:pageopacity="0"
     inkscape:pageshadow="2"
     inkscape:window-width="748"
     inkscape:window-height="480"
     id="namedview16"
     showgrid="false"
     fit-margin-top="0"
     fit-margin-left="0"
     fit-margin-right="0"
     fit-margin-bottom="0"
     inkscape:zoom="1.888"
     inkscape:cx="24.392036"
     inkscape:cy="32.5"
     inkscape:window-x="75"
     inkscape:window-y="34"
     inkscape:window-maximized="0"
     inkscape:current-layer="root" /><g
     id="g4"
     transform="translate(-25.607964,-4.9991204)"><path
       d="m 55.638,30.406 c -1.144,-2.969 -2.822,-4.189 -4.456,-4.569 0.074,0.304 0.131,0.556 0.16,0.692 0.019,0.062 0.038,0.131 0.057,0.2 0.124,0.001 0.25,-0.01 0.371,0.001 l 0.497,0.045 c 0.656,0.059 1.139,0.639 1.08,1.295 -0.019,0.212 -0.096,0.41 -0.209,0.574 -0.537,0.771 -1.134,1.243 -1.876,1.634 -0.725,0.387 -1.559,0.606 -2.42,0.653 -0.859,0.054 -1.757,-0.091 -2.545,-0.461 -0.804,-0.329 -1.478,-0.899 -1.947,-1.59 -0.238,-0.352 -0.272,-0.769 -0.161,-1.147 -0.75,0.768 -1.523,1.903 -2.174,3.586 -1.06,2.74 -1.983,5.427 -2.877,8.025 -1.269,3.692 -2.467,7.179 -3.947,10.535 -0.987,2.238 -9.46,22.184 -3.144,33.38 2.341,4.151 6.41,6.547 12.439,7.325 0.15,0.019 0.298,0.055 0.441,0.107 -10e-4,0 -10e-4,0 -10e-4,0 0.014,0 2.072,0.548 7.641,-0.249 8.003,-1.146 13.352,-4.411 15.9,-9.703 5.359,-11.13 -2.572,-28.767 -4.989,-32.882 -2.756,-4.689 -4.45,-8.648 -7.84,-17.451 z"
       id="path6"
       inkscape:connector-curvature="0"
       style="fill:none" /><path
       d="m 45.445,26.752 0.248,-0.006 c -0.016,-0.041 -0.031,-0.082 -0.047,-0.123 -0.077,0.041 -0.155,0.087 -0.235,0.135 0.011,-10e-4 0.023,-0.006 0.034,-0.006 z"
       id="path8"
       inkscape:connector-curvature="0"
       style="fill:none" /><path
       d="M 67.033,45.77 C 64.421,41.327 62.785,37.493 59.486,28.924 57.06,22.623 52.541,21.588 49.806,21.591 49.681,21.281 49.55,20.966 49.407,20.644 51.936,17.855 53.679,13.955 54.004,10.042 54.178,7.949 53.659,6.459 52.463,5.612 51.24,4.745 49.708,4.932 48.766,5.353 c -0.107,0.047 -0.21,0.105 -0.308,0.17 -2.952,1.988 -4.52,4.445 -5.251,6.841 -0.792,-0.566 -1.645,-1.047 -2.599,-1.455 -0.267,-0.115 -0.54,-0.164 -0.848,-0.166 -1.027,0.018 -2.359,0.445 -3.015,1.588 -0.31,0.539 -0.704,1.665 0.133,3.158 0.421,0.752 1.12,1.355 2.087,2.189 1.378,1.19 3.202,2.768 4.811,5.259 -1.859,0.96 -4.068,2.915 -5.608,6.896 -1.089,2.813 -2.025,5.538 -2.931,8.173 -1.24,3.607 -2.411,7.015 -3.82,10.212 -1.749,3.966 -10.113,24.393 -2.963,37.069 2.959,5.246 8.119,8.397 15.337,9.365 C 44.295,94.79 45.383,95 47.307,95 48.75,95 50.663,94.882 53.152,94.525 62.599,93.173 69.001,89.137 72.182,82.53 78.229,69.97 70.29,51.316 67.033,45.77 Z m -21.34,-19.024 -0.248,0.006 c -0.011,0 -0.023,0.005 -0.034,0.006 0.08,-0.048 0.159,-0.094 0.235,-0.135 0.016,0.04 0.032,0.082 0.047,0.123 z m 22.774,53.995 c -2.548,5.292 -7.897,8.557 -15.9,9.703 -5.568,0.796 -7.627,0.249 -7.641,0.249 0,0 0,0 10e-4,0 -0.142,-0.051 -0.29,-0.088 -0.441,-0.107 -6.029,-0.778 -10.098,-3.174 -12.439,-7.325 -6.315,-11.196 2.158,-31.143 3.144,-33.38 1.48,-3.356 2.678,-6.843 3.947,-10.535 0.893,-2.598 1.817,-5.285 2.877,-8.025 0.651,-1.684 1.424,-2.819 2.174,-3.586 -0.112,0.378 -0.078,0.795 0.161,1.147 0.468,0.691 1.143,1.261 1.947,1.59 0.788,0.37 1.687,0.514 2.545,0.461 0.861,-0.047 1.695,-0.266 2.42,-0.653 0.741,-0.391 1.339,-0.863 1.876,-1.634 0.113,-0.164 0.19,-0.362 0.209,-0.574 0.059,-0.656 -0.424,-1.235 -1.08,-1.295 L 51.77,26.732 c -0.121,-0.011 -0.247,0 -0.371,-10e-4 -0.019,-0.069 -0.038,-0.139 -0.057,-0.2 -0.028,-0.136 -0.085,-0.388 -0.16,-0.692 1.635,0.38 3.312,1.599 4.456,4.569 3.389,8.802 5.083,12.762 7.84,17.453 2.417,4.113 10.348,21.75 4.989,32.88 z"
       id="path10"
       inkscape:connector-curvature="0" /></g></svg>