<?xml version="1.0" encoding="UTF-8" standalone="no"?>
<svg
   xmlns:dc="http://purl.org/dc/elements/1.1/"
   xmlns:cc="http://creativecommons.org/ns#"
   xmlns:rdf="http://www.w3.org/1999/02/22-rdf-syntax-ns#"
   xmlns:svg="http://www.w3.org/2000/svg"
   xmlns="http://www.w3.org/2000/svg"
   xmlns:sodipodi="http://sodipodi.sourceforge.net/DTD/sodipodi-0.dtd"
   xmlns:inkscape="http://www.inkscape.org/namespaces/inkscape"
   version="1.1"
   x="0px"
   y="0px"
   viewBox="0 0 74.460426 89.999603"
   enable-background="new 0 0 100 100"
   xml:space="preserve"
   id="root"
   inkscape:version="0.91 r13725"
   sodipodi:docname="potato.svg"
   width="74.460426"
   height="89.999603"><metadata
     id="metadata68"><rdf:RDF><cc:Work
         rdf:about=""><dc:format>image/svg+xml</dc:format><dc:type
           rdf:resource="http://purl.org/dc/dcmitype/StillImage" /><dc:title></dc:title></cc:Work></rdf:RDF></metadata><defs
     id="defs66" /><sodipodi:namedview
     pagecolor="#ffffff"
     bordercolor="#666666"
     borderopacity="1"
     objecttolerance="10"
     gridtolerance="10"
     guidetolerance="10"
     inkscape:pageopacity="0"
     inkscape:pageshadow="2"
     inkscape:window-width="748"
     inkscape:window-height="480"
     id="namedview64"
     showgrid="false"
     fit-margin-top="0"
     fit-margin-left="0"
     fit-margin-right="0"
     fit-margin-bottom="0"
     inkscape:zoom="1.888"
     inkscape:cx="37.230663"
     inkscape:cy="32.5"
     inkscape:window-x="65"
     inkscape:window-y="24"
     inkscape:window-maximized="0"
     inkscape:current-layer="root" /><g
     id="g4"
     transform="translate(-12.769337,-5.0004004)"><path
       d="m 62.338,52.785 c 0,-0.485 -0.544,-0.917 -0.974,-0.917 -0.43,0 -0.975,0.431 -0.975,0.914 0,0.242 0.138,0.438 0.221,0.535 0.226,0.264 0.542,0.381 0.754,0.381 0.43,10e-4 0.974,-0.43 0.974,-0.913 z"
       id="path6"
       inkscape:connector-curvature="0"
       style="fill:none" /><path
       d="M 40.104,55.429 40.05,54.188 c -0.058,-0.006 -0.119,-0.01 -0.178,-0.005 -0.345,0.016 -0.645,0.283 -0.754,0.63 0.035,0.118 0.1,0.242 0.211,0.349 0.189,0.182 0.502,0.292 0.775,0.267 z"
       id="path8"
       inkscape:connector-curvature="0"
       style="fill:none" /><path
       d="m 40.566,82.488 c -0.429,0 -0.974,0.431 -0.974,0.914 0,0.485 0.544,0.917 0.974,0.917 0.429,0 0.974,-0.431 0.974,-0.914 -10e-4,-0.485 -0.545,-0.917 -0.974,-0.917 z"
       id="path10"
       inkscape:connector-curvature="0"
       style="fill:none" /><path
       d="m 49.809,70.934 c -0.429,0 -0.974,0.431 -0.974,0.914 0,0.483 0.544,0.916 0.974,0.916 0.212,0 0.528,-0.118 0.754,-0.381 0.083,-0.096 0.221,-0.292 0.221,-0.533 0,-0.486 -0.546,-0.916 -0.975,-0.916 z"
       id="path12"
       inkscape:connector-curvature="0"
       style="fill:none" /><path
       d="m 52.698,43.203 c -0.802,0 -1.532,0.711 -1.532,1.492 0,0.855 0.809,1.494 1.532,1.494 0.802,0 1.532,-0.711 1.532,-1.492 0,-0.856 -0.809,-1.494 -1.532,-1.494 z"
       id="path14"
       inkscape:connector-curvature="0"
       style="fill:none" /><path
       d="m 49.231,63.52 c 0.802,0 1.534,-0.711 1.534,-1.492 0,-0.781 -0.732,-1.494 -1.534,-1.494 -0.802,0 -1.532,0.711 -1.532,1.492 0,0.855 0.809,1.494 1.532,1.494 z"
       id="path16"
       inkscape:connector-curvature="0"
       style="fill:none" /><path
       d="M 40.861,54.797 C 40.825,54.678 40.76,54.556 40.649,54.45 40.499,54.306 40.284,54.213 40.052,54.189 l 0.057,1.24 c 0.342,-0.015 0.643,-0.284 0.752,-0.632 z"
       id="path18"
       inkscape:connector-curvature="0"
       style="fill:none" /><path
       d="m 29.012,73.244 c -0.212,0 -0.528,0.118 -0.754,0.381 -0.083,0.096 -0.22,0.292 -0.22,0.533 0,0.485 0.544,0.916 0.974,0.916 0.43,0 0.974,-0.431 0.974,-0.914 -0.001,-0.484 -0.545,-0.916 -0.974,-0.916 z"
       id="path20"
       inkscape:connector-curvature="0"
       style="fill:none" /><path
       d="m 57.897,19.614 c 0.802,0 1.532,-0.711 1.532,-1.492 0,-0.855 -0.809,-1.494 -1.532,-1.494 -0.802,0 -1.532,0.711 -1.532,1.492 0,0.855 0.81,1.494 1.532,1.494 z"
       id="path22"
       inkscape:connector-curvature="0"
       style="fill:none" /><path
       d="m 30.745,57.646 c -0.802,0 -1.532,0.711 -1.532,1.492 0,0.855 0.809,1.494 1.532,1.494 0.802,0 1.532,-0.711 1.532,-1.492 0,-0.856 -0.81,-1.494 -1.532,-1.494 z"
       id="path24"
       inkscape:connector-curvature="0"
       style="fill:none" /><path
       d="m 35.166,42.963 c 0,-0.855 -0.809,-1.494 -1.532,-1.494 -0.802,0 -1.532,0.711 -1.532,1.492 0,0.855 0.809,1.494 1.532,1.494 0.801,0.001 1.532,-0.711 1.532,-1.492 z"
       id="path26"
       inkscape:connector-curvature="0"
       style="fill:none" /><path
       d="m 78.696,37.522 c -2.11,0 -3.764,-1.671 -3.764,-3.803 0,-2.134 1.654,-3.804 3.764,-3.804 0.747,0 1.433,0.218 2.024,0.595 -1.693,-5.634 -5.173,-10.816 -10.002,-14.662 -2.844,-2.269 -5.973,-3.927 -9.304,-4.932 -1.38,-0.415 -2.675,-0.612 -3.901,-0.612 -7.592,0 -12.493,7.532 -17.906,17.2 l -0.343,0.612 c -2.293,4.089 -5.007,7.926 -7.668,11.64 0.585,-0.375 1.279,-0.597 2.037,-0.597 2.11,0 3.764,1.671 3.764,3.803 0,2.134 -1.654,3.804 -3.764,3.804 -2.11,0 -3.764,-1.671 -3.764,-3.803 0,-0.34 0.055,-0.661 0.134,-0.973 -2.846,3.984 -5.522,7.841 -7.693,12.038 -2.988,5.778 -4.485,11.917 -4.214,17.288 0.185,3.667 1.182,6.923 2.965,9.678 5.413,8.361 17.258,10.172 25.657,7.622 8.271,-2.509 16.136,-8.784 23.377,-18.652 6.036,-8.228 12.894,-20.763 11.679,-34.042 -0.675,0.972 -1.788,1.6 -3.078,1.6 z M 57.897,14.317 c 2.11,0 3.764,1.671 3.764,3.803 0,2.134 -1.654,3.804 -3.764,3.804 -2.11,0 -3.764,-1.671 -3.764,-3.803 0,-2.133 1.654,-3.804 3.764,-3.804 z m -25.62,62.759 c -0.811,0.944 -1.971,1.465 -3.265,1.465 -1.294,0 -2.454,-0.52 -3.265,-1.464 -0.681,-0.794 -1.058,-1.83 -1.058,-2.917 0,-2.498 1.858,-4.382 4.323,-4.382 2.465,0 4.323,1.883 4.323,4.381 0,1.086 -0.377,2.122 -1.058,2.917 z M 30.745,62.942 c -2.11,0 -3.764,-1.671 -3.764,-3.803 0,-2.134 1.654,-3.804 3.764,-3.804 2.11,0 3.764,1.671 3.764,3.803 0,2.133 -1.654,3.804 -3.764,3.804 z m 4.862,-8.426 c 0,-2.347 1.871,-4.27 4.261,-4.379 10e-4,0 0.003,0 0.004,0 1.122,-0.049 2.258,0.375 3.119,1.197 0.877,0.839 1.38,1.998 1.38,3.181 l 0,0.578 c 0,2.347 -1.872,4.271 -4.262,4.38 -0.062,0.003 -0.124,0.004 -0.186,0.004 -1.086,0 -2.121,-0.422 -2.934,-1.2 -0.878,-0.839 -1.381,-2 -1.381,-3.184 l 0,-0.577 z m 4.959,33.268 c -1.294,0 -2.453,-0.52 -3.265,-1.464 -0.681,-0.794 -1.058,-1.83 -1.058,-2.916 0,-2.498 1.858,-4.382 4.323,-4.382 1.294,0 2.453,0.52 3.265,1.464 0.681,0.794 1.058,1.83 1.058,2.916 0,2.498 -1.859,4.382 -4.323,4.382 z m 8.665,-29.56 c 2.11,0 3.764,1.671 3.764,3.803 0,2.134 -1.654,3.804 -3.764,3.804 -2.11,0 -3.763,-1.671 -3.763,-3.803 0,-2.134 1.653,-3.804 3.763,-3.804 z m 0.578,18.006 c -2.465,0 -4.322,-1.883 -4.322,-4.381 0,-1.086 0.375,-2.122 1.056,-2.917 0.811,-0.944 1.971,-1.465 3.265,-1.465 1.294,0 2.454,0.52 3.265,1.464 0.681,0.794 1.058,1.83 1.058,2.917 10e-4,2.498 -1.857,4.382 -4.322,4.382 z m 2.889,-27.731 c -2.11,0 -3.764,-1.671 -3.764,-3.803 0,-2.134 1.654,-3.804 3.764,-3.804 2.11,0 3.764,1.671 3.764,3.803 0,2.134 -1.654,3.804 -3.764,3.804 z m 4.343,4.286 c 0,-2.498 1.858,-4.382 4.323,-4.382 2.463,0 4.322,1.883 4.322,4.38 0,1.086 -0.375,2.122 -1.056,2.917 -0.811,0.944 -1.971,1.465 -3.265,1.465 -1.294,0 -2.453,-0.52 -3.265,-1.464 -0.682,-0.794 -1.059,-1.83 -1.059,-2.916 z m 7.211,16.801 c -2.267,0 -4.044,-1.797 -4.044,-4.091 0,-2.297 1.777,-4.094 4.044,-4.094 2.268,0 4.044,1.797 4.044,4.091 0,2.297 -1.776,4.094 -4.044,4.094 z m 4.671,-35.289 c 0,2.194 -1.746,3.991 -3.975,4.09 -0.058,0.003 -0.118,0.004 -0.176,0.004 -1.016,0 -1.986,-0.394 -2.747,-1.122 -0.819,-0.782 -1.288,-1.865 -1.288,-2.972 l 0,-0.578 c 0,-2.194 1.746,-3.991 3.974,-4.09 1.102,-0.056 2.119,0.349 2.924,1.119 0.819,0.782 1.288,1.865 1.288,2.972 l 0,0.577 z"
       id="path28"
       inkscape:connector-curvature="0"
       style="fill:none" /><path
       d="m 64.711,33.096 c -0.506,0.023 -0.932,0.413 -1.051,0.917 0.041,0.178 0.129,0.385 0.316,0.563 0.247,0.236 0.603,0.371 0.973,0.345 0.507,-0.024 0.933,-0.413 1.052,-0.917 -0.041,-0.178 -0.129,-0.385 -0.316,-0.563 -0.246,-0.237 -0.605,-0.366 -0.974,-0.345 z"
       id="path30"
       inkscape:connector-curvature="0"
       style="fill:none" /><path
       d="m 77.522,32.788 c -0.231,0.27 -0.359,0.6 -0.359,0.93 0,0.781 0.732,1.494 1.534,1.494 0.802,0 1.532,-0.711 1.532,-1.492 0,-0.855 -0.809,-1.494 -1.532,-1.494 -0.428,-10e-4 -0.878,0.215 -1.175,0.562 z"
       id="path32"
       inkscape:connector-curvature="0"
       style="fill:none" /><path
       d="m 64.252,64.29 c -0.579,0 -1.253,0.525 -1.253,1.203 0,0.255 0.103,0.516 0.291,0.734 0.299,0.348 0.705,0.471 0.962,0.471 0.34,0 0.718,-0.185 0.965,-0.472 0.186,-0.219 0.288,-0.477 0.288,-0.731 0,-0.679 -0.674,-1.205 -1.253,-1.205 z"
       id="path34"
       inkscape:connector-curvature="0"
       style="fill:none" /><path
       d="M 86.995,34.728 C 86.019,25.888 81.29,17.497 74.02,11.707 70.65,9.017 66.923,7.045 62.943,5.845 48.15,1.392 40.231,15.548 34.986,24.917 l -0.34,0.608 c -2.295,4.094 -5.125,8.039 -7.861,11.855 -3.222,4.495 -6.554,9.142 -9.179,14.215 -3.413,6.599 -5.117,13.697 -4.799,19.988 0.231,4.609 1.513,8.743 3.807,12.289 C 21.651,91.65 30.606,95 39.161,95 c 3.158,0 6.261,-0.456 9.093,-1.315 9.392,-2.849 18.177,-9.775 26.111,-20.587 0,0 0,0 0,-0.001 6.687,-9.114 14.306,-23.169 12.63,-38.369 z M 70.096,69.964 c -7.241,9.868 -15.106,16.143 -23.377,18.652 -8.399,2.55 -20.244,0.74 -25.657,-7.622 -1.783,-2.754 -2.78,-6.01 -2.965,-9.678 -0.27,-5.37 1.226,-11.51 4.214,-17.288 2.171,-4.197 4.846,-8.054 7.693,-12.038 -0.079,0.311 -0.134,0.633 -0.134,0.973 0,2.132 1.654,3.803 3.764,3.803 2.11,0 3.764,-1.671 3.764,-3.804 0,-2.132 -1.654,-3.803 -3.764,-3.803 -0.758,0 -1.452,0.222 -2.037,0.597 2.661,-3.714 5.375,-7.551 7.668,-11.64 l 0.343,-0.612 c 5.413,-9.667 10.314,-17.2 17.906,-17.2 1.226,0 2.522,0.197 3.901,0.612 3.331,1.005 6.46,2.663 9.304,4.932 4.829,3.846 8.309,9.028 10.002,14.662 -0.592,-0.377 -1.278,-0.595 -2.024,-0.595 -2.11,0 -3.764,1.671 -3.764,3.804 0,2.132 1.654,3.803 3.764,3.803 1.29,0 2.403,-0.628 3.078,-1.601 1.214,13.28 -5.643,25.815 -11.679,34.043 z M 32.101,42.962 c 0,-0.781 0.731,-1.492 1.532,-1.492 0.723,0 1.532,0.639 1.532,1.494 0,0.781 -0.731,1.492 -1.532,1.492 -0.723,0 -1.532,-0.639 -1.532,-1.494 z m 48.127,-9.243 c 0,0.781 -0.731,1.492 -1.532,1.492 -0.801,0 -1.534,-0.713 -1.534,-1.494 0,-0.33 0.128,-0.659 0.359,-0.93 0.297,-0.347 0.747,-0.563 1.174,-0.563 0.724,0.001 1.533,0.64 1.533,1.495 z"
       id="path36"
       inkscape:connector-curvature="0" /><path
       d="m 40.566,79.022 c -2.465,0 -4.323,1.884 -4.323,4.382 0,1.086 0.376,2.122 1.058,2.916 0.812,0.944 1.971,1.464 3.265,1.464 2.465,0 4.323,-1.884 4.323,-4.382 0,-1.086 -0.376,-2.122 -1.058,-2.916 -0.812,-0.944 -1.971,-1.464 -3.265,-1.464 z m 0,5.297 c -0.429,0 -0.974,-0.432 -0.974,-0.917 0,-0.484 0.544,-0.914 0.974,-0.914 0.429,0 0.974,0.432 0.974,0.917 -10e-4,0.483 -0.545,0.914 -0.974,0.914 z"
       id="path38"
       inkscape:connector-curvature="0" /><path
       d="m 49.809,67.467 c -1.294,0 -2.454,0.521 -3.265,1.465 -0.681,0.795 -1.056,1.831 -1.056,2.917 0,2.498 1.857,4.381 4.322,4.381 2.465,0 4.323,-1.884 4.323,-4.382 0,-1.088 -0.376,-2.123 -1.058,-2.917 -0.812,-0.944 -1.972,-1.464 -3.266,-1.464 z m 0.754,4.915 c -0.226,0.264 -0.542,0.381 -0.754,0.381 -0.429,0 -0.974,-0.432 -0.974,-0.916 0,-0.484 0.544,-0.914 0.974,-0.914 0.43,0 0.975,0.431 0.975,0.916 0,0.241 -0.138,0.437 -0.221,0.533 z"
       id="path40"
       inkscape:connector-curvature="0" /><path
       d="m 64.629,55.699 c 0.681,-0.795 1.056,-1.831 1.056,-2.917 0,-2.497 -1.858,-4.38 -4.322,-4.38 -2.465,0 -4.323,1.884 -4.323,4.382 0,1.086 0.376,2.122 1.058,2.916 0.812,0.944 1.971,1.464 3.265,1.464 1.294,0 2.456,-0.521 3.266,-1.465 z m -4.24,-2.917 c 0,-0.484 0.546,-0.914 0.975,-0.914 0.429,0 0.974,0.432 0.974,0.917 0,0.484 -0.544,0.914 -0.974,0.914 -0.212,0 -0.528,-0.118 -0.754,-0.381 -0.082,-0.098 -0.221,-0.294 -0.221,-0.536 z"
       id="path42"
       inkscape:connector-curvature="0" /><path
       d="m 39.922,59.478 c 0.062,0 0.124,-0.001 0.186,-0.004 2.39,-0.109 4.262,-2.033 4.262,-4.38 l 0,-0.578 c 0,-1.183 -0.503,-2.342 -1.38,-3.181 -0.861,-0.822 -1.997,-1.247 -3.119,-1.197 -0.001,0 -0.003,0 -0.004,0 -2.39,0.109 -4.261,2.031 -4.261,4.379 l 0,0.578 c 0,1.183 0.503,2.344 1.381,3.184 0.814,0.777 1.849,1.199 2.935,1.199 z m 0.727,-5.028 c 0.111,0.106 0.176,0.228 0.212,0.347 -0.109,0.348 -0.41,0.617 -0.753,0.632 l -0.057,-1.24 c 0.233,0.025 0.448,0.118 0.598,0.261 z m -0.778,-0.267 c 0.059,-0.005 0.12,-10e-4 0.178,0.005 l 0.054,1.241 c -0.273,0.025 -0.586,-0.085 -0.776,-0.268 -0.111,-0.107 -0.176,-0.231 -0.211,-0.349 0.11,-0.346 0.41,-0.614 0.755,-0.629 z"
       id="path44"
       inkscape:connector-curvature="0" /><path
       d="m 29.012,69.778 c -2.465,0 -4.323,1.884 -4.323,4.382 0,1.088 0.376,2.123 1.058,2.917 0.811,0.944 1.971,1.464 3.265,1.464 1.294,0 2.454,-0.521 3.265,-1.465 0.681,-0.795 1.058,-1.831 1.058,-2.917 0,-2.499 -1.859,-4.381 -4.323,-4.381 z m 0,5.296 c -0.429,0 -0.974,-0.431 -0.974,-0.916 0,-0.241 0.137,-0.437 0.22,-0.533 0.226,-0.264 0.542,-0.381 0.754,-0.381 0.429,0 0.974,0.432 0.974,0.916 -0.001,0.484 -0.545,0.914 -0.974,0.914 z"
       id="path46"
       inkscape:connector-curvature="0" /><path
       d="m 64.711,29.629 c -2.228,0.1 -3.974,1.896 -3.974,4.09 l 0,0.578 c 0,1.107 0.469,2.189 1.288,2.972 0.76,0.728 1.73,1.122 2.747,1.122 0.058,0 0.118,-10e-4 0.176,-0.004 2.229,-0.1 3.975,-1.896 3.975,-4.09 l 0,-0.578 c 0,-1.107 -0.469,-2.189 -1.288,-2.972 -0.805,-0.769 -1.822,-1.174 -2.924,-1.118 z m 0.237,5.291 c -0.37,0.026 -0.726,-0.109 -0.973,-0.345 -0.186,-0.177 -0.274,-0.384 -0.316,-0.563 0.119,-0.504 0.546,-0.894 1.051,-0.917 0.369,-0.021 0.728,0.109 0.974,0.345 0.186,0.177 0.274,0.384 0.316,0.563 -0.119,0.505 -0.545,0.894 -1.052,0.917 z"
       id="path48"
       inkscape:connector-curvature="0" /><path
       d="m 64.252,61.401 c -2.267,0 -4.044,1.797 -4.044,4.094 0,2.294 1.777,4.091 4.044,4.091 2.268,0 4.044,-1.797 4.044,-4.094 0,-2.294 -1.776,-4.091 -4.044,-4.091 z m 0.965,4.824 c -0.247,0.287 -0.625,0.472 -0.965,0.472 -0.257,0 -0.663,-0.123 -0.962,-0.471 -0.188,-0.219 -0.291,-0.48 -0.291,-0.734 0,-0.678 0.674,-1.203 1.253,-1.203 0.579,0 1.253,0.526 1.253,1.205 0,0.254 -0.102,0.513 -0.288,0.731 z"
       id="path50"
       inkscape:connector-curvature="0" /><path
       d="m 49.231,65.831 c 2.11,0 3.764,-1.671 3.764,-3.804 0,-2.132 -1.654,-3.803 -3.764,-3.803 -2.11,0 -3.763,1.671 -3.763,3.804 0,2.132 1.653,3.803 3.763,3.803 z m 0,-5.297 c 0.802,0 1.534,0.713 1.534,1.494 0,0.781 -0.732,1.492 -1.534,1.492 -0.723,0 -1.532,-0.639 -1.532,-1.494 0,-0.78 0.73,-1.492 1.532,-1.492 z"
       id="path52"
       inkscape:connector-curvature="0" /><path
       d="m 30.745,55.335 c -2.11,0 -3.764,1.671 -3.764,3.804 0,2.132 1.654,3.803 3.764,3.803 2.11,0 3.764,-1.671 3.764,-3.804 0,-2.133 -1.654,-3.803 -3.764,-3.803 z m 0,5.296 c -0.723,0 -1.532,-0.639 -1.532,-1.494 0,-0.781 0.731,-1.492 1.532,-1.492 0.723,0 1.532,0.639 1.532,1.494 0,0.781 -0.731,1.492 -1.532,1.492 z"
       id="path54"
       inkscape:connector-curvature="0" /><path
       d="m 57.897,21.924 c 2.11,0 3.764,-1.671 3.764,-3.804 0,-2.132 -1.654,-3.803 -3.764,-3.803 -2.11,0 -3.764,1.671 -3.764,3.804 0,2.133 1.654,3.803 3.764,3.803 z m 0,-5.296 c 0.723,0 1.532,0.639 1.532,1.494 0,0.781 -0.731,1.492 -1.532,1.492 -0.723,0 -1.532,-0.639 -1.532,-1.494 0,-0.781 0.731,-1.492 1.532,-1.492 z"
       id="path56"
       inkscape:connector-curvature="0" /><path
       d="m 52.698,40.892 c -2.11,0 -3.764,1.671 -3.764,3.804 0,2.132 1.654,3.803 3.764,3.803 2.11,0 3.764,-1.671 3.764,-3.804 0,-2.132 -1.654,-3.803 -3.764,-3.803 z m 0,5.296 c -0.723,0 -1.532,-0.639 -1.532,-1.494 0,-0.781 0.731,-1.492 1.532,-1.492 0.723,0 1.532,0.639 1.532,1.494 0,0.781 -0.73,1.492 -1.532,1.492 z"
       id="path58"
       inkscape:connector-curvature="0" /></g></svg>