<?xml version="1.0" encoding="UTF-8" standalone="no"?>
<svg
   xmlns:dc="http://purl.org/dc/elements/1.1/"
   xmlns:cc="http://creativecommons.org/ns#"
   xmlns:rdf="http://www.w3.org/1999/02/22-rdf-syntax-ns#"
   xmlns:svg="http://www.w3.org/2000/svg"
   xmlns="http://www.w3.org/2000/svg"
   xmlns:sodipodi="http://sodipodi.sourceforge.net/DTD/sodipodi-0.dtd"
   xmlns:inkscape="http://www.inkscape.org/namespaces/inkscape"
   version="1.1"
   x="0px"
   y="0px"
   viewBox="0 0 84.07428 90.00029"
   enable-background="new 0 0 100 100"
   xml:space="preserve"
   id="root"
   inkscape:version="0.91 r13725"
   sodipodi:docname="pumpkin.svg"
   width="84.07428"
   height="90.00029"><metadata
     id="metadata28"><rdf:RDF><cc:Work
         rdf:about=""><dc:format>image/svg+xml</dc:format><dc:type
           rdf:resource="http://purl.org/dc/dcmitype/StillImage" /><dc:title></dc:title></cc:Work></rdf:RDF></metadata><defs
     id="defs26" /><sodipodi:namedview
     pagecolor="#ffffff"
     bordercolor="#666666"
     borderopacity="1"
     objecttolerance="10"
     gridtolerance="10"
     guidetolerance="10"
     inkscape:pageopacity="0"
     inkscape:pageshadow="2"
     inkscape:window-width="748"
     inkscape:window-height="480"
     id="namedview24"
     showgrid="false"
     fit-margin-top="0"
     fit-margin-left="0"
     fit-margin-right="0"
     fit-margin-bottom="0"
     inkscape:zoom="1.888"
     inkscape:cx="42.037472"
     inkscape:cy="32.5"
     inkscape:window-x="65"
     inkscape:window-y="24"
     inkscape:window-maximized="0"
     inkscape:current-layer="root" /><g
     id="g4"
     transform="translate(-7.9625283,-4.9997111)"><path
       d="m 48.006,23.384 c 0.63,-0.484 1.438,-0.993 2.422,-1.426 -0.843,-0.947 -1.418,-2.155 -1.641,-3.512 -0.374,1.377 -1.038,2.879 -2.183,4.011 0.465,0.264 0.934,0.573 1.402,0.927 z"
       id="path6"
       inkscape:connector-curvature="0"
       style="fill:none" /><path
       d="m 54.202,10.468 c 0.153,-0.011 1.721,-0.123 1.722,-0.995 -0.038,0.003 -0.178,-0.021 -0.438,-0.02 -0.243,0 -0.591,0.024 -1.059,0.122 -2.51,0.528 -3.916,1.573 -4.672,3.632 0.975,-1.549 2.546,-2.562 4.447,-2.739 z"
       id="path8"
       inkscape:connector-curvature="0"
       style="fill:none" /><path
       d="m 47.939,88.856 c 1.353,-1.047 2.493,-2.637 3.103,-4.926 2.389,-8.962 2.757,-37.966 -1.093,-49.634 -3.221,-9.763 -9.192,-9.061 -9.992,-8.924 -2.641,1.021 -4.653,3.609 -6.041,7.728 -0.037,0.266 -0.118,0.519 -0.243,0.75 -2.583,8.462 -2.741,22.872 -0.45,43.113 0.158,1.398 0.284,2.509 0.349,3.26 0.551,6.268 4.884,9.98 8.682,10.29 1.74,0.143 3.787,-0.271 5.516,-1.536 0.055,-0.043 0.11,-0.084 0.169,-0.121 z"
       id="path10"
       inkscape:connector-curvature="0"
       style="fill:none" /><path
       d="M 29.131,80.612 C 29.067,79.887 28.945,78.814 28.792,77.464 27.131,62.789 25.84,44.597 29.434,32.749 29.261,32.029 28.717,30.318 27.268,29.333 26.025,28.488 24.286,28.321 22.1,28.836 20.252,29.27 18.37,30.92 16.801,33.481 12.964,39.746 10.377,52.608 14.622,69.917 18.185,84.441 26.604,88.115 32.065,88.91 30.516,86.692 29.42,83.905 29.131,80.612 Z"
       id="path12"
       inkscape:connector-curvature="0"
       style="fill:none" /><path
       d="m 75.182,25.657 c -3.235,0.09 -5.028,1.057 -6.017,2.014 -0.077,0.096 -0.16,0.185 -0.25,0.266 -0.313,0.351 -0.525,0.685 -0.665,0.965 4.68,7.357 7.835,20.619 4.817,42.794 -0.041,0.41 -0.962,8.841 -5.266,15.266 6.614,-1.312 17.118,-5.851 19.108,-21.339 2.305,-17.941 -1.806,-31.656 -6.904,-37.291 -1.131,-1.25 -2.912,-2.74 -4.823,-2.675 z"
       id="path14"
       inkscape:connector-curvature="0"
       style="fill:none" /><path
       d="M 68.64,71.169 C 73.36,36.486 62.27,26.517 57.6,25.596 c -3.164,-0.621 -5.282,0.228 -6.491,1.026 1.153,1.612 2.212,3.662 3.074,6.276 4.136,12.533 3.737,42.534 1.167,52.179 -0.447,1.676 -1.153,3.177 -2.053,4.483 2.64,0.436 4.943,0.048 6.964,-1.199 5.797,-3.578 8.014,-13.623 8.379,-17.192 z"
       id="path16"
       inkscape:connector-curvature="0"
       style="fill:none" /><path
       d="m 83.311,25.34 c -2.523,-2.789 -5.383,-4.232 -8.252,-4.139 -3.811,0.106 -6.37,1.172 -8.084,2.481 -3.085,-1.234 -8.447,-3.271 -12.25,-4.121 -1.358,-0.303 -1.63,-1.811 -1.577,-2.654 0.02,-0.313 0.184,-1.882 1.362,-1.994 2.358,-0.107 5.867,-1.641 5.872,-5.433 C 60.383,9.136 60.307,7.353 58.743,6.082 57.465,5.043 55.703,4.75 53.51,5.212 c -5.076,1.068 -7.827,4.034 -8.659,9.336 -0.017,0.112 -0.026,0.225 -0.027,0.339 -0.003,1.097 -0.464,4.266 -1.919,4.767 -0.534,0.184 -1.281,0.426 -2.16,0.71 -4.63,1.495 -9.313,3.072 -12.133,4.631 -2.109,-1.006 -4.632,-1.183 -7.533,-0.5 -3.059,0.721 -5.853,3.023 -8.079,6.658 -5.578,9.108 -6.589,23.996 -2.706,39.827 4.964,20.237 18.725,22.544 24.736,22.543 0.846,0 1.535,-0.046 2.028,-0.093 1.576,0.869 3.235,1.396 4.835,1.526 0.369,0.03 0.734,0.044 1.096,0.044 2.379,0 4.592,-0.648 6.497,-1.812 2.032,0.663 3.978,1.014 5.819,1.014 2.644,0 5.084,-0.682 7.296,-2.048 0.116,-0.071 0.225,-0.15 0.338,-0.224 4.286,-0.093 25.314,-1.784 28.392,-25.739 2.656,-20.672 -2.66,-34.927 -8.02,-40.851 z M 54.428,9.575 c 0.467,-0.098 0.815,-0.122 1.059,-0.122 0.26,-10e-4 0.399,0.023 0.438,0.02 -10e-4,0.872 -1.569,0.984 -1.722,0.995 -1.901,0.177 -3.472,1.191 -4.446,2.74 0.755,-2.06 2.161,-3.105 4.671,-3.633 z m -5.642,8.871 c 0.223,1.356 0.798,2.564 1.641,3.512 -0.984,0.433 -1.791,0.942 -2.422,1.426 -0.468,-0.354 -0.937,-0.663 -1.403,-0.927 1.146,-1.132 1.811,-2.634 2.184,-4.011 z M 14.624,69.918 c -4.246,-17.309 -1.658,-30.171 2.179,-36.436 1.569,-2.561 3.45,-4.211 5.299,-4.645 2.186,-0.515 3.925,-0.347 5.168,0.497 1.449,0.985 1.993,2.696 2.166,3.416 -3.594,11.848 -2.303,30.04 -0.642,44.715 0.153,1.35 0.275,2.423 0.339,3.148 0.289,3.293 1.384,6.08 2.936,8.3 C 26.606,88.116 18.187,84.442 14.624,69.918 Z m 27.631,20.594 c -3.798,-0.31 -8.132,-4.022 -8.682,-10.29 -0.066,-0.751 -0.191,-1.862 -0.349,-3.26 -2.291,-20.241 -2.133,-34.651 0.45,-43.113 0.125,-0.23 0.206,-0.483 0.243,-0.75 1.388,-4.119 3.4,-6.707 6.041,-7.728 0.801,-0.137 6.772,-0.839 9.992,8.924 3.85,11.668 3.481,40.672 1.093,49.634 -0.61,2.29 -1.75,3.879 -3.103,4.926 -0.058,0.037 -0.113,0.078 -0.168,0.121 -1.73,1.265 -3.777,1.679 -5.517,1.536 z M 53.296,89.56 c 0.901,-1.306 1.607,-2.807 2.053,-4.483 2.57,-9.645 2.969,-39.645 -1.167,-52.179 -0.862,-2.614 -1.921,-4.664 -3.074,-6.276 1.209,-0.798 3.328,-1.648 6.491,-1.026 4.67,0.921 15.76,10.89 11.041,45.573 -0.365,3.569 -2.582,13.614 -8.38,17.192 -2.021,1.247 -4.323,1.635 -6.964,1.199 z M 86.909,65.622 C 84.919,81.11 74.415,85.649 67.801,86.961 72.105,80.537 73.026,72.105 73.067,71.695 76.085,49.52 72.931,36.259 68.25,28.901 c 0.14,-0.28 0.352,-0.615 0.665,-0.965 0.091,-0.081 0.173,-0.17 0.25,-0.266 0.989,-0.957 2.782,-1.924 6.017,-2.014 1.91,-0.065 3.691,1.425 4.822,2.674 5.098,5.636 9.21,19.351 6.905,37.292 z"
       id="path18"
       inkscape:connector-curvature="0" /></g></svg>