<?xml version="1.0" encoding="UTF-8" standalone="no"?>
<svg
   xmlns:dc="http://purl.org/dc/elements/1.1/"
   xmlns:cc="http://creativecommons.org/ns#"
   xmlns:rdf="http://www.w3.org/1999/02/22-rdf-syntax-ns#"
   xmlns:svg="http://www.w3.org/2000/svg"
   xmlns="http://www.w3.org/2000/svg"
   xmlns:sodipodi="http://sodipodi.sourceforge.net/DTD/sodipodi-0.dtd"
   xmlns:inkscape="http://www.inkscape.org/namespaces/inkscape"
   version="1.1"
   x="0px"
   y="0px"
   viewBox="0 0 68.79203 90.00016"
   enable-background="new 0 0 100 100"
   xml:space="preserve"
   id="root"
   inkscape:version="0.91 r13725"
   sodipodi:docname="strawberry.svg"
   width="68.79203"
   height="90.00016"><metadata
     id="metadata78"><rdf:RDF><cc:Work
         rdf:about=""><dc:format>image/svg+xml</dc:format><dc:type
           rdf:resource="http://purl.org/dc/dcmitype/StillImage" /><dc:title></dc:title></cc:Work></rdf:RDF></metadata><defs
     id="defs76" /><sodipodi:namedview
     pagecolor="#ffffff"
     bordercolor="#666666"
     borderopacity="1"
     objecttolerance="10"
     gridtolerance="10"
     guidetolerance="10"
     inkscape:pageopacity="0"
     inkscape:pageshadow="2"
     inkscape:window-width="748"
     inkscape:window-height="480"
     id="namedview74"
     showgrid="false"
     fit-margin-top="0"
     fit-margin-left="0"
     fit-margin-right="0"
     fit-margin-bottom="0"
     inkscape:zoom="1.888"
     inkscape:cx="34.396692"
     inkscape:cy="32.5"
     inkscape:window-x="65"
     inkscape:window-y="24"
     inkscape:window-maximized="0"
     inkscape:current-layer="root" /><g
     id="g4"
     transform="translate(-15.603308,-4.9998404)"><path
       d="m 44.252,27.83 c 0.011,0.004 0.124,0.052 0.319,0.102 -0.659,-0.978 -2.398,-3.074 -5.882,-4.381 -0.049,-0.012 -0.094,-0.031 -0.142,-0.048 -2.698,-0.983 -6.409,-1.486 -11.435,-0.639 0.678,0.943 1.771,2.166 3.34,3.345 3.709,-0.99 8.391,-1.001 13.8,1.621 z"
       id="path6"
       inkscape:connector-curvature="0"
       style="fill:none" /><path
       d="m 65.551,22.633 c 1.685,-2.062 2.747,-4.201 3.328,-5.698 -7.731,0.68 -12.679,4.094 -15.79,7.645 3.247,-1.396 7.722,-2.644 12.462,-1.947 z"
       id="path8"
       inkscape:connector-curvature="0"
       style="fill:none" /><path
       d="m 47.563,26.962 c 0.122,0.162 0.205,0.313 0.308,0.47 0.065,-0.035 0.126,-0.056 0.191,-0.095 0.046,-0.033 0.12,-0.084 0.206,-0.143 C 47.163,13.928 40.796,9.741 37.852,8.517 c -0.494,4.333 0.283,8.467 2.29,12.321 4.906,1.979 6.995,5.343 7.421,6.124 z"
       id="path10"
       inkscape:connector-curvature="0"
       style="fill:none" /><path
       d="M 72.865,29.281 C 62.57,20.465 49.948,29.744 49.823,29.84 c -0.04,0.03 -0.081,0.058 -0.123,0.084 -0.671,0.408 -1.315,0.656 -1.937,0.841 -0.035,0.015 -0.059,0.043 -0.096,0.055 -0.064,0.022 -0.129,0.019 -0.194,0.032 -2.526,0.646 -4.448,-0.217 -4.549,-0.265 -2.88,-1.396 -5.51,-1.923 -7.84,-1.923 -7.193,0 -11.532,5.033 -11.589,5.1 -10.412,11.973 -0.61,34.296 -0.51,34.518 0.554,1.288 13.599,30.923 35.069,21.989 20.797,-8.654 22.987,-37.418 23.008,-37.707 0.003,-0.052 0.01,-0.108 0.019,-0.16 0.026,-0.14 2.304,-14.118 -8.216,-23.123 z m -3.677,15.401 c 0.031,10e-4 0.065,0.003 0.095,0.006 0.715,0.076 1.161,0.388 1.538,0.761 0.355,0.391 0.629,0.855 0.615,1.571 -0.014,0.713 -0.603,1.279 -1.315,1.265 -0.039,-10e-4 -0.079,-0.004 -0.117,-0.008 -0.712,-0.079 -1.135,-0.411 -1.478,-0.814 -0.321,-0.422 -0.573,-0.904 -0.555,-1.623 0.017,-0.656 0.561,-1.175 1.217,-1.158 z m -7.703,-7.913 c 0.068,-0.665 0.662,-1.149 1.328,-1.081 0.015,10e-4 0.034,0.004 0.048,0.006 0.697,0.1 1.112,0.42 1.453,0.798 0.32,0.395 0.554,0.856 0.486,1.554 -0.07,0.723 -0.713,1.252 -1.436,1.182 -0.021,-0.002 -0.046,-0.005 -0.066,-0.008 -0.693,-0.103 -1.084,-0.441 -1.39,-0.847 -0.284,-0.424 -0.495,-0.904 -0.423,-1.604 z m -6.885,0.69 c 0.418,-0.521 1.179,-0.605 1.7,-0.187 0.012,0.01 0.028,0.023 0.039,0.033 0.531,0.464 0.705,0.959 0.786,1.463 0.054,0.506 0,1.022 -0.436,1.571 -0.451,0.568 -1.277,0.664 -1.846,0.213 -0.017,-0.013 -0.037,-0.03 -0.053,-0.044 -0.526,-0.464 -0.67,-0.962 -0.706,-1.47 -0.009,-0.511 0.075,-1.029 0.516,-1.579 z m -6.655,1.374 c 0.488,-0.465 1.248,-0.47 1.746,-0.035 0.497,0.437 0.635,0.881 0.68,1.327 0.018,0.446 -0.073,0.895 -0.547,1.351 -0.531,0.511 -1.363,0.517 -1.906,0.038 -0.492,-0.437 -0.6,-0.882 -0.6,-1.328 0.027,-0.447 0.148,-0.896 0.627,-1.353 z m -7.518,0.944 c 0.157,-0.435 0.403,-0.845 0.995,-1.16 0.597,-0.318 1.335,-0.109 1.684,0.46 0.349,0.573 0.353,1.051 0.267,1.505 -0.113,0.446 -0.33,0.864 -0.917,1.181 -0.651,0.351 -1.46,0.124 -1.839,-0.502 -0.345,-0.572 -0.32,-1.042 -0.19,-1.484 z M 32.85,37.198 c 0.26,-0.287 0.595,-0.519 1.216,-0.537 0.665,-0.019 1.235,0.428 1.399,1.044 0.16,0.601 0.033,0.988 -0.169,1.319 -0.224,0.315 -0.535,0.565 -1.152,0.585 -0.727,0.024 -1.352,-0.465 -1.527,-1.14 -0.156,-0.598 -0.006,-0.967 0.233,-1.271 z m -7.133,9.222 c 0.144,-0.324 0.376,-0.62 0.949,-0.805 0.627,-0.202 1.292,0.036 1.66,0.541 0.355,0.487 0.368,0.862 0.294,1.21 -0.101,0.339 -0.305,0.643 -0.873,0.83 -0.684,0.224 -1.412,-0.036 -1.812,-0.59 -0.35,-0.486 -0.336,-0.853 -0.218,-1.186 z m 0.413,12.91 c -0.436,0.327 -1.039,0.274 -1.412,-0.101 -0.571,-0.573 -0.578,-1.394 -0.31,-2.033 0.279,-0.636 0.856,-1.202 1.655,-1.224 0.515,-0.015 0.951,0.356 1.033,0.85 l 0.082,0.494 c 0.093,0.563 0.129,0.772 0.075,0.99 -0.065,0.214 -0.198,0.331 -0.646,0.667 L 26.13,59.33 Z m 2.93,11.493 c -0.663,0.26 -1.389,0.088 -1.868,-0.379 -0.411,-0.402 -0.447,-0.728 -0.376,-1.032 0.098,-0.299 0.286,-0.579 0.827,-0.788 0.608,-0.235 1.271,-0.077 1.711,0.347 0.416,0.403 0.481,0.734 0.455,1.048 -0.054,0.308 -0.213,0.594 -0.749,0.804 z m 0.705,-8.632 c -0.191,-0.646 -0.048,-1.105 0.19,-1.511 0.262,-0.392 0.605,-0.739 1.26,-0.911 0.656,-0.172 1.328,0.21 1.523,0.854 0.195,0.649 0.078,1.122 -0.12,1.55 -0.222,0.415 -0.539,0.776 -1.191,0.95 -0.716,0.192 -1.452,-0.225 -1.662,-0.932 z m 4.47,10.348 c -0.614,0.319 -1.321,0.31 -1.906,0.044 -0.488,-0.226 -0.593,-0.46 -0.59,-0.697 0.031,-0.238 0.155,-0.478 0.637,-0.726 0.563,-0.29 1.21,-0.282 1.746,-0.041 0.493,0.226 0.628,0.459 0.67,0.695 0.014,0.237 -0.08,0.476 -0.557,0.725 z m 0.806,-22.727 c -0.156,0.312 -0.408,0.573 -0.998,0.654 -0.712,0.097 -1.381,-0.285 -1.682,-0.896 -0.262,-0.535 -0.187,-0.889 -0.015,-1.192 0.196,-0.29 0.474,-0.537 1.068,-0.616 0.652,-0.086 1.263,0.263 1.541,0.82 0.267,0.537 0.217,0.905 0.086,1.23 z m 2.731,32.653 c -0.571,0.44 -1.346,0.434 -1.906,0.038 -0.49,-0.348 -0.597,-0.703 -0.595,-1.061 0.03,-0.358 0.152,-0.718 0.632,-1.085 0.525,-0.401 1.233,-0.394 1.746,-0.035 0.495,0.348 0.631,0.702 0.675,1.059 0.016,0.357 -0.077,0.717 -0.552,1.084 z M 39.23,64.397 c -0.154,0.346 -0.406,0.645 -1.005,0.78 -0.708,0.16 -1.412,-0.195 -1.722,-0.817 -0.274,-0.549 -0.202,-0.933 -0.032,-1.272 0.195,-0.326 0.474,-0.613 1.077,-0.746 0.648,-0.143 1.291,0.182 1.578,0.748 0.279,0.552 0.233,0.949 0.104,1.307 z m 3.136,10.739 -0.125,0.126 c -0.482,0.484 -1.252,0.511 -1.769,0.086 -0.536,-0.442 -0.654,-0.993 -0.616,-1.515 0.063,-0.52 0.267,-1.046 0.851,-1.424 0.528,-0.342 1.221,-0.223 1.608,0.255 l 0.098,0.121 c 0.392,0.488 0.477,0.844 0.493,1.209 -0.01,0.365 -0.102,0.703 -0.54,1.142 z m 1.373,-23.58 c -0.179,0.528 -0.637,1.018 -1.342,1.005 -0.432,-0.008 -0.799,-0.27 -0.962,-0.641 l -0.331,-0.759 c -0.207,-0.473 -0.283,-0.565 -0.226,-0.672 0.07,-0.101 0.222,-0.133 0.691,-0.369 l 0.62,-0.312 c 0.374,-0.188 0.809,-0.128 1.115,0.118 0.544,0.438 0.602,1.096 0.435,1.63 z m 3.315,33.189 c -0.553,0.495 -1.401,0.453 -1.904,-0.09 -0.46,-0.497 -0.537,-0.977 -0.505,-1.451 0.059,-0.473 0.211,-0.941 0.72,-1.393 0.509,-0.45 1.283,-0.41 1.744,0.083 0.465,0.498 0.571,0.978 0.585,1.455 -0.013,0.475 -0.135,0.944 -0.64,1.396 z m 1.525,-22.269 c -0.02,-0.014 -0.043,-0.031 -0.062,-0.046 -0.554,-0.435 -0.728,-0.927 -0.795,-1.435 -0.04,-0.512 0.012,-1.038 0.418,-1.617 0.383,-0.545 1.135,-0.677 1.679,-0.294 0.015,0.011 0.033,0.024 0.047,0.035 0.558,0.434 0.762,0.922 0.874,1.423 0.085,0.505 0.062,1.027 -0.339,1.605 -0.412,0.594 -1.228,0.741 -1.822,0.329 z M 52.12,74.54 c -0.626,0.351 -1.384,0.249 -1.896,-0.195 -0.446,-0.388 -0.51,-0.736 -0.466,-1.074 0.071,-0.335 0.235,-0.66 0.755,-0.948 0.574,-0.318 1.266,-0.225 1.737,0.179 0.45,0.388 0.544,0.74 0.546,1.082 -0.027,0.339 -0.161,0.667 -0.676,0.956 z m 1.559,-24.468 c 0.061,-0.337 0.214,-0.667 0.725,-0.971 0.564,-0.336 1.259,-0.264 1.742,0.125 0.462,0.374 0.567,0.723 0.579,1.065 -0.015,0.34 -0.139,0.672 -0.645,0.977 -0.614,0.37 -1.375,0.292 -1.901,-0.136 -0.458,-0.375 -0.533,-0.722 -0.5,-1.06 z m 2.853,32.707 c -0.521,0.504 -1.303,0.571 -1.894,0.21 -0.521,-0.318 -0.662,-0.679 -0.694,-1.052 -0.005,-0.376 0.082,-0.762 0.526,-1.187 0.479,-0.459 1.194,-0.52 1.735,-0.192 0.526,0.318 0.696,0.675 0.773,1.043 0.05,0.371 -0.008,0.753 -0.446,1.178 z M 58.49,61.981 c -0.287,0.631 -0.995,0.937 -1.64,0.738 l -0.134,-0.041 c -0.59,-0.181 -0.827,-0.451 -0.994,-0.777 -0.143,-0.339 -0.217,-0.704 -0.046,-1.303 l 0.033,-0.114 c 0.175,-0.612 0.774,-0.988 1.387,-0.902 0.667,0.093 1.045,0.452 1.309,0.861 0.241,0.422 0.364,0.926 0.085,1.538 z m 1.754,11.276 -0.126,-0.124 c -0.443,-0.435 -0.54,-0.776 -0.553,-1.143 0.013,-0.368 0.093,-0.729 0.482,-1.222 l 0.09,-0.115 c 0.39,-0.495 1.091,-0.603 1.612,-0.273 0.586,0.374 0.794,0.897 0.863,1.416 0.043,0.52 -0.068,1.071 -0.597,1.521 -0.523,0.444 -1.29,0.409 -1.771,-0.06 z m 4.181,7.519 c -0.372,0.373 -0.942,0.427 -1.373,0.164 l -0.527,-0.322 c -0.465,-0.284 -0.596,-0.38 -0.653,-0.568 -0.043,-0.192 0.004,-0.382 0.144,-0.92 l 0.13,-0.502 c 0.125,-0.483 0.565,-0.8 1.042,-0.791 0.748,0.014 1.266,0.522 1.524,1.093 0.245,0.575 0.246,1.311 -0.287,1.846 z M 63.161,50.838 63.156,50.835 c -0.581,-0.361 -0.789,-0.81 -0.891,-1.284 -0.075,-0.48 -0.061,-0.982 0.303,-1.565 0.361,-0.578 1.12,-0.756 1.7,-0.4 0.586,0.36 0.823,0.802 0.969,1.266 0.12,0.47 0.134,0.964 -0.226,1.547 -0.389,0.632 -1.218,0.829 -1.85,0.439 z m 4.673,10.572 c -0.324,0.558 -0.96,0.822 -1.56,0.7 l -0.232,-0.048 c -0.556,-0.114 -0.751,-0.297 -0.876,-0.543 -0.102,-0.258 -0.132,-0.542 0.068,-1.08 l 0.069,-0.185 c 0.208,-0.559 0.745,-0.9 1.309,-0.888 0.631,0.015 0.988,0.318 1.226,0.674 0.216,0.369 0.312,0.826 -0.004,1.37 z m 3.619,9.203 c -0.232,0.683 -0.974,1.048 -1.656,0.816 -0.026,-0.009 -0.055,-0.02 -0.08,-0.03 -0.652,-0.271 -0.956,-0.699 -1.16,-1.173 -0.179,-0.485 -0.274,-1.008 -0.042,-1.679 0.217,-0.627 0.901,-0.96 1.529,-0.743 0.02,0.007 0.043,0.016 0.062,0.023 0.657,0.269 0.987,0.685 1.233,1.14 0.22,0.466 0.341,0.977 0.114,1.646 z m 3.86,-11.17 c -0.227,0.637 -0.927,0.969 -1.564,0.742 -0.056,-0.02 -0.109,-0.043 -0.16,-0.07 l -0.075,-0.04 c -0.63,-0.337 -0.911,-0.755 -1.121,-1.221 -0.186,-0.478 -0.307,-0.977 -0.165,-1.683 l 0.013,-0.064 c 0.123,-0.611 0.718,-1.007 1.329,-0.884 0.05,0.01 0.104,0.025 0.15,0.041 0.726,0.254 1.138,0.745 1.433,1.283 0.271,0.551 0.418,1.173 0.16,1.896 z"
       id="path12"
       inkscape:connector-curvature="0"
       style="fill:none" /><path
       d="M 74.856,26.956 C 72.885,25.269 70.848,24.148 68.82,23.439 71.617,19.542 72.47,15.8 72.51,15.619 72.611,15.162 72.496,14.682 72.198,14.32 71.901,13.958 71.501,13.784 70.985,13.76 60.63,13.966 54.326,18.57 50.761,22.619 47.84,6.963 37.335,5.098 36.846,5.02 36.037,4.886 35.254,5.434 35.102,6.248 c -0.885,4.715 -0.466,9.241 1.199,13.506 -3.152,-0.569 -7.065,-0.572 -11.939,0.534 -0.438,0.1 -0.809,0.386 -1.018,0.783 -0.208,0.399 -0.231,0.867 -0.063,1.284 0.05,0.122 1.079,2.535 3.854,5.078 -3.777,1.807 -5.93,4.298 -5.965,4.341 C 9.489,45.206 19.75,68.547 20.183,69.511 20.311,69.805 31.369,95.001 50.177,95 53.021,94.999 56.045,94.423 59.233,93.096 81.445,83.854 83.959,54.943 84.112,52.848 84.337,51.469 86.403,36.843 74.856,26.956 Z M 68.879,16.935 c -0.582,1.496 -1.644,3.636 -3.328,5.698 -4.739,-0.697 -9.214,0.551 -12.462,1.947 3.111,-3.551 8.06,-6.965 15.79,-7.645 z M 37.852,8.517 c 2.944,1.224 9.31,5.411 10.416,18.676 -0.086,0.059 -0.16,0.11 -0.206,0.143 -0.065,0.039 -0.126,0.06 -0.191,0.095 -0.103,-0.157 -0.187,-0.308 -0.308,-0.47 C 47.137,26.18 45.048,22.817 40.142,20.838 38.135,16.984 37.359,12.85 37.852,8.517 Z M 27.111,22.864 c 5.026,-0.847 8.737,-0.343 11.435,0.639 0.048,0.017 0.093,0.035 0.142,0.048 3.483,1.307 5.223,3.403 5.882,4.381 -0.194,-0.05 -0.308,-0.098 -0.319,-0.102 -5.409,-2.622 -10.09,-2.611 -13.8,-1.621 -1.569,-1.179 -2.662,-2.403 -3.34,-3.345 z m 53.972,29.54 c -0.01,0.052 -0.016,0.108 -0.019,0.16 -0.02,0.29 -2.21,29.053 -23.008,37.707 -21.47,8.934 -34.515,-20.701 -35.069,-21.989 -0.1,-0.223 -9.902,-22.545 0.51,-34.518 0.057,-0.067 4.395,-5.1 11.589,-5.1 2.33,0 4.96,0.528 7.84,1.923 0.1,0.048 2.022,0.911 4.549,0.265 0.065,-0.013 0.13,-0.01 0.194,-0.032 0.037,-0.012 0.061,-0.041 0.096,-0.055 0.622,-0.185 1.266,-0.433 1.937,-0.841 0.042,-0.025 0.083,-0.054 0.123,-0.084 0.125,-0.096 12.747,-9.375 23.042,-0.559 10.518,9.005 8.24,22.983 8.216,23.123 z"
       id="path14"
       inkscape:connector-curvature="0" /><path
       d="m 63.298,39.219 c 0.02,0.003 0.045,0.006 0.066,0.008 0.723,0.07 1.366,-0.459 1.436,-1.182 0.068,-0.697 -0.166,-1.159 -0.486,-1.554 -0.342,-0.378 -0.756,-0.698 -1.453,-0.798 -0.014,-0.002 -0.034,-0.004 -0.048,-0.006 -0.665,-0.068 -1.26,0.416 -1.328,1.081 -0.072,0.701 0.139,1.18 0.423,1.603 0.305,0.406 0.696,0.745 1.39,0.848 z"
       id="path16"
       inkscape:connector-curvature="0" /><path
       d="m 54.843,40.552 c 0.568,0.451 1.395,0.356 1.846,-0.213 0.436,-0.55 0.49,-1.065 0.436,-1.571 -0.081,-0.504 -0.255,-0.999 -0.786,-1.463 -0.012,-0.01 -0.027,-0.023 -0.039,-0.033 -0.521,-0.418 -1.282,-0.334 -1.7,0.187 -0.441,0.55 -0.525,1.068 -0.516,1.578 0.036,0.508 0.18,1.006 0.706,1.47 0.016,0.015 0.036,0.031 0.053,0.045 z"
       id="path18"
       inkscape:connector-curvature="0" /><path
       d="m 49.824,41.477 c 0.474,-0.456 0.565,-0.905 0.547,-1.351 -0.045,-0.446 -0.184,-0.89 -0.68,-1.327 -0.498,-0.435 -1.258,-0.43 -1.746,0.035 -0.479,0.456 -0.599,0.905 -0.627,1.353 0,0.447 0.109,0.891 0.6,1.328 0.542,0.479 1.375,0.473 1.906,-0.038 z"
       id="path20"
       inkscape:connector-curvature="0" /><path
       d="m 42.455,41.763 c 0.587,-0.317 0.805,-0.735 0.917,-1.181 0.086,-0.454 0.083,-0.932 -0.267,-1.505 -0.349,-0.569 -1.087,-0.778 -1.684,-0.46 -0.592,0.316 -0.838,0.726 -0.995,1.16 -0.13,0.442 -0.155,0.912 0.189,1.484 0.38,0.625 1.189,0.853 1.84,0.502 z"
       id="path22"
       inkscape:connector-curvature="0" /><path
       d="m 34.144,39.609 c 0.618,-0.021 0.929,-0.27 1.152,-0.585 0.202,-0.331 0.329,-0.718 0.169,-1.319 -0.164,-0.616 -0.734,-1.063 -1.399,-1.044 -0.622,0.018 -0.956,0.25 -1.216,0.537 -0.238,0.304 -0.389,0.673 -0.233,1.271 0.176,0.675 0.801,1.164 1.527,1.14 z"
       id="path24"
       inkscape:connector-curvature="0" /><path
       d="m 70.004,48.277 c 0.038,0.004 0.078,0.007 0.117,0.008 0.713,0.014 1.302,-0.553 1.315,-1.265 0.014,-0.716 -0.26,-1.179 -0.615,-1.571 -0.376,-0.373 -0.822,-0.685 -1.538,-0.761 -0.031,-0.003 -0.064,-0.006 -0.095,-0.006 -0.656,-0.016 -1.201,0.502 -1.217,1.158 -0.018,0.719 0.234,1.202 0.555,1.623 0.343,0.403 0.767,0.735 1.478,0.814 z"
       id="path26"
       inkscape:connector-curvature="0" /><path
       d="m 65.237,48.852 c -0.147,-0.463 -0.383,-0.906 -0.969,-1.266 -0.579,-0.356 -1.339,-0.178 -1.7,0.4 -0.364,0.583 -0.379,1.085 -0.303,1.565 0.102,0.474 0.31,0.923 0.891,1.284 l 0.005,0.003 c 0.632,0.39 1.461,0.193 1.851,-0.439 0.359,-0.583 0.345,-1.077 0.225,-1.547 z"
       id="path28"
       inkscape:connector-curvature="0" /><path
       d="m 56.079,51.267 c 0.506,-0.305 0.63,-0.637 0.645,-0.977 -0.012,-0.342 -0.117,-0.69 -0.579,-1.065 -0.483,-0.389 -1.178,-0.461 -1.742,-0.125 -0.511,0.304 -0.664,0.634 -0.725,0.971 -0.033,0.339 0.042,0.685 0.499,1.059 0.527,0.429 1.288,0.507 1.902,0.137 z"
       id="path30"
       inkscape:connector-curvature="0" /><path
       d="m 42.189,49.808 -0.62,0.312 c -0.469,0.236 -0.621,0.268 -0.691,0.369 -0.057,0.107 0.019,0.199 0.226,0.672 l 0.331,0.759 c 0.163,0.371 0.53,0.633 0.962,0.641 0.705,0.013 1.162,-0.478 1.342,-1.005 0.167,-0.533 0.109,-1.192 -0.435,-1.63 -0.307,-0.246 -0.741,-0.307 -1.115,-0.118 z"
       id="path32"
       inkscape:connector-curvature="0" /><path
       d="m 33.414,47.761 c -0.595,0.078 -0.872,0.325 -1.068,0.616 -0.172,0.303 -0.247,0.658 0.015,1.192 0.301,0.612 0.97,0.994 1.682,0.896 0.59,-0.081 0.842,-0.341 0.998,-0.654 0.132,-0.325 0.181,-0.693 -0.085,-1.23 -0.279,-0.556 -0.89,-0.906 -1.542,-0.82 z"
       id="path34"
       inkscape:connector-curvature="0" /><path
       d="m 27.747,48.195 c 0.568,-0.186 0.773,-0.491 0.873,-0.83 0.074,-0.347 0.061,-0.723 -0.294,-1.21 -0.369,-0.505 -1.033,-0.743 -1.66,-0.541 -0.573,0.185 -0.805,0.48 -0.949,0.805 -0.118,0.333 -0.132,0.7 0.218,1.185 0.4,0.555 1.128,0.816 1.812,0.591 z"
       id="path36"
       inkscape:connector-curvature="0" /><path
       d="m 50.741,60.542 c -0.112,-0.501 -0.316,-0.989 -0.874,-1.423 -0.014,-0.011 -0.032,-0.024 -0.047,-0.035 -0.545,-0.383 -1.297,-0.251 -1.679,0.294 -0.406,0.579 -0.458,1.105 -0.418,1.617 0.067,0.508 0.242,1 0.795,1.435 0.019,0.015 0.042,0.032 0.062,0.046 0.594,0.413 1.41,0.265 1.823,-0.329 0.4,-0.578 0.422,-1.1 0.338,-1.605 z"
       id="path38"
       inkscape:connector-curvature="0" /><path
       d="m 57.096,59.582 c -0.613,-0.086 -1.212,0.29 -1.387,0.902 l -0.033,0.114 c -0.171,0.599 -0.097,0.964 0.046,1.303 0.166,0.326 0.403,0.596 0.994,0.777 l 0.134,0.041 c 0.645,0.199 1.353,-0.108 1.64,-0.738 0.279,-0.612 0.155,-1.116 -0.085,-1.538 -0.263,-0.41 -0.641,-0.768 -1.309,-0.861 z"
       id="path40"
       inkscape:connector-curvature="0" /><path
       d="m 66.613,59.367 c -0.564,-0.013 -1.102,0.329 -1.309,0.888 l -0.069,0.185 c -0.2,0.538 -0.17,0.822 -0.068,1.08 0.125,0.245 0.32,0.429 0.876,0.543 l 0.232,0.048 c 0.599,0.122 1.235,-0.142 1.56,-0.7 0.316,-0.545 0.22,-1.001 0.005,-1.37 -0.239,-0.356 -0.596,-0.659 -1.227,-0.674 z"
       id="path42"
       inkscape:connector-curvature="0" /><path
       d="m 73.721,56.265 c -0.047,-0.016 -0.101,-0.031 -0.15,-0.041 -0.611,-0.123 -1.206,0.273 -1.329,0.884 l -0.013,0.064 c -0.142,0.706 -0.021,1.205 0.165,1.683 0.21,0.466 0.491,0.884 1.121,1.221 l 0.075,0.04 c 0.051,0.027 0.104,0.05 0.16,0.07 0.637,0.227 1.337,-0.105 1.564,-0.742 0.258,-0.723 0.11,-1.346 -0.16,-1.895 -0.296,-0.539 -0.708,-1.03 -1.433,-1.284 z"
       id="path44"
       inkscape:connector-curvature="0" /><path
       d="m 37.548,62.343 c -0.603,0.133 -0.882,0.42 -1.077,0.746 -0.17,0.338 -0.242,0.723 0.032,1.272 0.31,0.621 1.015,0.977 1.722,0.817 0.598,-0.135 0.851,-0.435 1.005,-0.78 0.129,-0.358 0.174,-0.755 -0.104,-1.306 -0.287,-0.567 -0.93,-0.892 -1.578,-0.749 z"
       id="path46"
       inkscape:connector-curvature="0" /><path
       d="m 32.618,62.174 c 0.198,-0.428 0.316,-0.902 0.12,-1.55 -0.195,-0.644 -0.866,-1.026 -1.523,-0.854 -0.656,0.171 -0.998,0.518 -1.26,0.911 -0.238,0.406 -0.381,0.865 -0.19,1.511 0.21,0.707 0.946,1.124 1.662,0.933 0.652,-0.175 0.969,-0.536 1.191,-0.951 z"
       id="path48"
       inkscape:connector-curvature="0" /><path
       d="m 27.252,58.306 c 0.054,-0.217 0.019,-0.427 -0.075,-0.99 l -0.082,-0.494 c -0.082,-0.494 -0.518,-0.865 -1.033,-0.85 -0.8,0.023 -1.377,0.588 -1.655,1.224 -0.268,0.639 -0.261,1.46 0.31,2.033 0.373,0.376 0.976,0.429 1.412,0.101 l 0.477,-0.358 c 0.448,-0.336 0.581,-0.452 0.646,-0.666 z"
       id="path50"
       inkscape:connector-curvature="0" /><path
       d="m 70.105,67.827 c -0.019,-0.008 -0.042,-0.017 -0.062,-0.023 -0.627,-0.217 -1.312,0.116 -1.529,0.743 -0.232,0.671 -0.137,1.194 0.042,1.679 0.204,0.474 0.508,0.902 1.16,1.173 0.025,0.01 0.054,0.021 0.08,0.03 0.683,0.232 1.424,-0.133 1.656,-0.816 0.227,-0.669 0.106,-1.18 -0.115,-1.646 -0.245,-0.454 -0.575,-0.871 -1.232,-1.14 z"
       id="path52"
       inkscape:connector-curvature="0" /><path
       d="m 62.611,71.796 c -0.069,-0.519 -0.277,-1.042 -0.863,-1.416 -0.521,-0.33 -1.222,-0.222 -1.612,0.273 l -0.09,0.115 c -0.389,0.493 -0.469,0.853 -0.482,1.222 0.013,0.367 0.11,0.708 0.553,1.143 l 0.126,0.124 c 0.481,0.469 1.249,0.503 1.771,0.06 0.53,-0.45 0.64,-1 0.597,-1.521 z"
       id="path54"
       inkscape:connector-curvature="0" /><path
       d="m 50.512,72.323 c -0.52,0.288 -0.684,0.613 -0.755,0.948 -0.044,0.337 0.021,0.686 0.466,1.074 0.512,0.444 1.271,0.546 1.896,0.195 0.515,-0.289 0.649,-0.617 0.675,-0.956 -0.002,-0.342 -0.095,-0.694 -0.546,-1.082 -0.469,-0.404 -1.162,-0.497 -1.736,-0.179 z"
       id="path56"
       inkscape:connector-curvature="0" /><path
       d="m 42.314,72.664 c -0.387,-0.478 -1.08,-0.596 -1.608,-0.255 -0.583,0.378 -0.787,0.903 -0.851,1.424 -0.038,0.522 0.08,1.073 0.616,1.515 0.518,0.424 1.287,0.398 1.769,-0.086 l 0.125,-0.126 c 0.437,-0.439 0.529,-0.777 0.539,-1.141 -0.017,-0.365 -0.101,-0.721 -0.493,-1.209 l -0.097,-0.122 z"
       id="path58"
       inkscape:connector-curvature="0" /><path
       d="m 27.643,68.625 c -0.54,0.209 -0.729,0.489 -0.827,0.788 -0.071,0.304 -0.035,0.63 0.376,1.032 0.479,0.467 1.205,0.639 1.868,0.379 0.535,-0.21 0.695,-0.496 0.748,-0.804 0.026,-0.313 -0.038,-0.645 -0.455,-1.048 -0.439,-0.424 -1.103,-0.582 -1.71,-0.347 z"
       id="path60"
       inkscape:connector-curvature="0" /><path
       d="m 63.189,77.837 c -0.477,-0.009 -0.917,0.309 -1.042,0.791 l -0.13,0.502 c -0.14,0.538 -0.187,0.727 -0.144,0.92 0.057,0.188 0.188,0.283 0.653,0.568 l 0.527,0.322 c 0.43,0.263 1,0.208 1.373,-0.164 0.534,-0.534 0.532,-1.27 0.288,-1.846 -0.259,-0.571 -0.777,-1.079 -1.525,-1.093 z"
       id="path62"
       inkscape:connector-curvature="0" /><path
       d="m 56.205,80.558 c -0.542,-0.327 -1.257,-0.266 -1.735,0.192 -0.444,0.425 -0.531,0.811 -0.526,1.187 0.032,0.373 0.173,0.733 0.694,1.052 0.591,0.361 1.374,0.294 1.894,-0.21 0.439,-0.425 0.497,-0.807 0.446,-1.178 -0.077,-0.368 -0.247,-0.725 -0.773,-1.043 z"
       id="path64"
       inkscape:connector-curvature="0" /><path
       d="m 45.365,81.811 c -0.51,0.452 -0.661,0.92 -0.72,1.393 -0.031,0.474 0.046,0.954 0.505,1.451 0.503,0.543 1.351,0.586 1.904,0.09 0.505,-0.452 0.627,-0.922 0.64,-1.397 -0.014,-0.476 -0.121,-0.957 -0.585,-1.455 -0.461,-0.492 -1.235,-0.532 -1.744,-0.082 z"
       id="path66"
       inkscape:connector-curvature="0" /><path
       d="m 37.649,80.322 c -0.513,-0.36 -1.221,-0.366 -1.746,0.035 -0.481,0.367 -0.603,0.727 -0.632,1.085 -0.002,0.358 0.105,0.713 0.595,1.061 0.559,0.396 1.335,0.403 1.906,-0.038 0.476,-0.367 0.568,-0.726 0.552,-1.083 -0.044,-0.357 -0.18,-0.712 -0.675,-1.06 z"
       id="path68"
       inkscape:connector-curvature="0" /></g></svg>