<?xml version="1.0" encoding="UTF-8" standalone="no"?>
<svg
   xmlns:dc="http://purl.org/dc/elements/1.1/"
   xmlns:cc="http://creativecommons.org/ns#"
   xmlns:rdf="http://www.w3.org/1999/02/22-rdf-syntax-ns#"
   xmlns:svg="http://www.w3.org/2000/svg"
   xmlns="http://www.w3.org/2000/svg"
   xmlns:sodipodi="http://sodipodi.sourceforge.net/DTD/sodipodi-0.dtd"
   xmlns:inkscape="http://www.inkscape.org/namespaces/inkscape"
   version="1.1"
   x="0px"
   y="0px"
   viewBox="0 0 89.998573 81.961006"
   enable-background="new 0 0 100 100"
   xml:space="preserve"
   id="root"
   inkscape:version="0.91 r13725"
   sodipodi:docname="tomato.svg"
   width="89.998573"
   height="81.961006"><metadata
     id="metadata24"><rdf:RDF><cc:Work
         rdf:about=""><dc:format>image/svg+xml</dc:format><dc:type
           rdf:resource="http://purl.org/dc/dcmitype/StillImage" /><dc:title></dc:title></cc:Work></rdf:RDF></metadata><defs
     id="defs22" /><sodipodi:namedview
     pagecolor="#ffffff"
     bordercolor="#666666"
     borderopacity="1"
     objecttolerance="10"
     gridtolerance="10"
     guidetolerance="10"
     inkscape:pageopacity="0"
     inkscape:pageshadow="2"
     inkscape:window-width="748"
     inkscape:window-height="480"
     id="namedview20"
     showgrid="false"
     fit-margin-top="0"
     fit-margin-left="0"
     fit-margin-right="0"
     fit-margin-bottom="0"
     inkscape:zoom="1.888"
     inkscape:cx="44.998777"
     inkscape:cy="28.483"
     inkscape:window-x="65"
     inkscape:window-y="24"
     inkscape:window-maximized="0"
     inkscape:current-layer="root" /><g
     id="g4"
     transform="translate(-5.0012231,-9.0219915)"><path
       d="m 62.531,26.332 c 0.57,-0.397 1.15,-0.785 1.761,-1.145 -1.047,0.351 -2.031,0.832 -2.935,1.424 0.389,-0.097 0.778,-0.197 1.174,-0.279 z"
       id="path6"
       inkscape:connector-curvature="0"
       style="fill:none" /><path
       d="m 52.853,30.317 c 1.925,-1.316 4.112,-2.356 6.446,-3.12 -0.168,-0.053 -0.33,-0.13 -0.479,-0.235 -0.396,-0.277 -0.651,-0.697 -0.725,-1.154 -0.305,0.178 -0.667,0.266 -1.037,0.231 -0.819,-0.072 -1.477,-0.703 -1.586,-1.517 -0.217,-1.628 -0.787,-3.222 -1.57,-4.718 0.217,1.914 0.196,3.887 -0.089,5.82 -0.115,0.777 -0.732,1.385 -1.511,1.485 -0.782,0.106 -1.531,-0.328 -1.841,-1.051 -0.75,-1.754 -1.836,-3.313 -3.169,-4.603 0.218,0.787 0.363,1.61 0.429,2.46 0.054,0.705 -0.319,1.374 -0.948,1.698 -0.152,0.078 -0.312,0.13 -0.475,0.161 2.39,1.204 4.613,2.72 6.555,4.543 z"
       id="path8"
       inkscape:connector-curvature="0"
       style="fill:none" /><path
       d="m 79.185,31.133 c -8.279,-3.478 -18.963,-2.275 -25.408,2.864 -0.712,0.569 -1.742,0.496 -2.371,-0.167 -4.675,-4.948 -11.552,-7.741 -18.37,-7.741 -2.095,0 -4.184,0.264 -6.203,0.811 -8.586,2.322 -15.709,9.705 -17.725,18.373 -1.715,7.406 0.301,15.713 5.262,21.676 0.79,0.952 1.647,1.836 2.548,2.626 9.225,8.108 25.218,12.904 39.811,11.954 6.112,-0.405 11.47,-1.77 15.924,-4.056 l 10e-4,0 C 81.744,72.811 88.701,64.546 90.808,55.905 92.41,49.335 91.141,42.891 87.139,37.27 85.275,34.651 82.524,32.529 79.185,31.133 Z"
       id="path10"
       inkscape:connector-curvature="0"
       style="fill:none" /><path
       d="m 41.677,23.542 c 0.194,0.182 0.384,0.366 0.575,0.551 0.54,0.178 1.076,0.37 1.605,0.578 -0.683,-0.453 -1.41,-0.835 -2.18,-1.129 z"
       id="path12"
       inkscape:connector-curvature="0"
       style="fill:none" /><path
       d="m 90,35.232 c -2.245,-3.153 -5.516,-5.69 -9.457,-7.337 -2.81,-1.181 -5.869,-1.879 -8.974,-2.124 0.844,-0.274 1.703,-0.514 2.569,-0.71 0.785,-0.177 1.348,-0.865 1.368,-1.67 0.019,-0.804 -0.51,-1.518 -1.284,-1.734 -3.385,-0.942 -6.883,-0.949 -10.051,-0.096 1.118,-1.183 2.495,-2.214 4.027,-2.978 0.709,-0.354 1.094,-1.14 0.938,-1.917 C 68.98,15.889 68.323,15.312 67.531,15.259 63.699,15.005 60.09,16.721 57.716,19.686 55.853,15.336 52.407,11.594 49.497,9.381 48.779,8.835 47.766,8.92 47.15,9.58 c -0.615,0.659 -0.631,1.676 -0.037,2.355 1.674,1.913 2.797,4.64 3.23,7.617 -2.365,-2.522 -5.446,-4.324 -8.872,-5.093 -0.865,-0.193 -1.735,0.287 -2.037,1.118 -0.3,0.832 0.066,1.758 0.854,2.161 1.113,0.567 2.036,1.447 2.71,2.547 -2.676,-1.037 -5.696,-1.317 -8.838,-0.781 -0.925,0.158 -1.562,1.015 -1.447,1.947 0.057,0.462 0.29,0.866 0.624,1.145 -2.505,-0.03 -5.007,0.262 -7.419,0.915 -9.799,2.65 -17.928,11.077 -20.229,20.97 -1.958,8.456 0.335,17.925 5.981,24.712 0.906,1.094 1.894,2.112 2.933,3.023 5.383,4.731 12.893,8.402 21.109,10.61 l -1.668,2.726 c -0.426,0.697 -0.316,1.596 0.267,2.169 0.582,0.574 1.484,0.67 2.172,0.231 0.505,-0.32 1.195,-0.552 1.927,-0.798 0.049,-0.016 0.098,-0.033 0.146,-0.049 0.034,0.6 0.07,1.212 0.116,1.898 0.053,0.791 0.629,1.449 1.406,1.605 0.779,0.156 1.563,-0.228 1.917,-0.936 0.235,-0.472 0.594,-0.89 1.013,-1.353 0.29,0.594 0.6,1.205 0.982,1.826 0.325,0.529 0.896,0.838 1.496,0.838 0.144,0 0.291,-0.018 0.435,-0.055 0.745,-0.191 1.281,-0.845 1.319,-1.613 0.05,-0.997 0.17,-1.956 0.298,-2.971 0.058,-0.46 0.115,-0.931 0.167,-1.407 1.783,0.149 3.568,0.226 5.342,0.226 1.311,0 2.619,-0.042 3.913,-0.127 C 63.554,84.598 69.373,83.106 74.257,80.6 84.23,75.484 91.879,66.34 94.22,56.735 96.071,49.145 94.612,41.709 90,35.232 Z M 64.291,25.187 c -0.611,0.359 -1.191,0.748 -1.761,1.145 -0.396,0.082 -0.784,0.182 -1.174,0.279 0.905,-0.592 1.888,-1.073 2.935,-1.424 z M 47.722,23.916 c -0.066,-0.851 -0.211,-1.674 -0.429,-2.46 1.332,1.29 2.419,2.849 3.169,4.603 0.309,0.722 1.059,1.157 1.841,1.051 0.779,-0.101 1.396,-0.708 1.511,-1.485 0.285,-1.933 0.306,-3.906 0.089,-5.82 0.783,1.496 1.352,3.09 1.57,4.718 0.109,0.814 0.767,1.445 1.586,1.517 0.37,0.035 0.732,-0.052 1.037,-0.231 0.075,0.456 0.329,0.877 0.725,1.154 0.149,0.105 0.311,0.182 0.479,0.235 -2.334,0.764 -4.522,1.805 -6.446,3.12 -1.942,-1.823 -4.166,-3.339 -6.554,-4.542 0.162,-0.031 0.323,-0.083 0.475,-0.161 0.628,-0.325 1.001,-0.994 0.947,-1.699 z m -6.045,-0.374 c 0.77,0.294 1.497,0.676 2.18,1.129 -0.529,-0.209 -1.065,-0.4 -1.605,-0.578 -0.191,-0.185 -0.381,-0.369 -0.575,-0.551 z M 90.808,55.904 C 88.701,64.546 81.745,72.81 72.654,77.472 l -10e-4,0 C 68.199,79.758 62.841,81.123 56.729,81.528 42.137,82.478 26.144,77.682 16.918,69.574 16.017,68.784 15.16,67.9 14.37,66.948 9.409,60.985 7.393,52.678 9.108,45.272 c 2.016,-8.668 9.139,-16.051 17.725,-18.373 2.018,-0.546 4.108,-0.811 6.203,-0.811 6.817,0 13.694,2.793 18.37,7.741 0.629,0.663 1.659,0.736 2.371,0.167 6.445,-5.139 17.129,-6.342 25.408,-2.864 3.339,1.396 6.09,3.518 7.954,6.136 4.002,5.622 5.271,12.066 3.669,18.636 z"
       id="path14"
       inkscape:connector-curvature="0" /></g></svg>